<svg width="12" height="11" viewBox="0 0 12 11" fill="none" xmlns="http://www.w3.org/2000/svg">
<path d="M6.69728 1.97923C6.46837 1.95253 6.23577 1.93723 6 1.93342C4.96975 1.93835 3.90177 2.20859 2.89087 2.72642C2.14029 3.12674 1.40914 3.69189 0.774171 4.38902C0.46232 4.74489 0.0643101 5.26016 0 5.80992C0.00760001 6.28616 0.48153 6.87397 0.774171 7.23085C1.3696 7.90059 2.08171 8.44957 2.89087 8.89344C2.91837 8.90784 2.94597 8.92206 2.97363 8.93609L2.22291 10.3499L3.24296 11L8.75713 0.647119L7.77527 0L6.69728 1.97923ZM9.02564 2.68535L8.27637 4.08571C8.62107 4.56863 8.82569 5.16416 8.82569 5.80992C8.82569 7.41949 7.56047 8.72442 5.99927 8.72442C5.93178 8.72442 5.86636 8.71657 5.80005 8.71178L5.30419 9.63747C5.53287 9.66388 5.76409 9.68312 6 9.68644C7.03123 9.68145 8.09861 9.40808 9.1084 8.89344C9.85898 8.49312 10.5909 7.92797 11.2258 7.23085C11.5377 6.87499 11.9357 6.35971 12 5.80992C11.9924 5.3337 11.5185 4.74589 11.2258 4.38901C10.6304 3.71926 9.91756 3.17029 9.1084 2.7264C9.08109 2.71212 9.05313 2.69928 9.02564 2.68535ZM5.99927 2.89545C6.06773 2.89545 6.13565 2.8984 6.20289 2.90334L5.62207 3.98778C4.80693 4.166 4.19531 4.9139 4.19531 5.80915C4.19531 6.03403 4.23372 6.24933 4.30444 6.4489C4.30436 6.44867 4.30452 6.44913 4.30444 6.4489L3.72216 7.5373C3.37665 7.05393 3.17284 6.45644 3.17284 5.80991C3.17285 4.20036 4.43808 2.89544 5.99927 2.89545ZM7.68897 5.18201L6.38014 7.62734C7.1909 7.44577 7.79811 6.70128 7.79811 5.80915C7.79811 5.58836 7.75725 5.37845 7.68897 5.18201Z" fill="white"/>
</svg>
