<svg width="23" height="19" viewBox="0 0 23 19" fill="none" xmlns="http://www.w3.org/2000/svg">
<path d="M21.9237 0.854736H1.0762C0.879632 0.854967 0.691185 0.933175 0.552217 1.0722C0.413249 1.21122 0.335114 1.3997 0.334961 1.59627V3.08803C0.334961 3.15676 0.409491 3.23564 0.470391 3.26754L11.4283 9.52661C11.4564 9.54265 11.4882 9.55095 11.5205 9.55068C11.5536 9.55077 11.5861 9.54195 11.6145 9.52516L22.2413 3.27363C22.301 3.24028 22.4593 3.15212 22.5188 3.11152C22.5907 3.06251 22.665 3.01814 22.665 2.93027V1.59598C22.6647 1.39946 22.5866 1.21105 22.4476 1.0721C22.3086 0.933136 22.1202 0.854967 21.9237 0.854736V0.854736Z" fill="#19183F"/>
<path d="M22.5725 5.33727C22.544 5.321 22.5117 5.31254 22.4789 5.31275C22.446 5.31295 22.4138 5.32181 22.3855 5.33843L16.3718 8.87673C16.3478 8.89069 16.3273 8.90987 16.3117 8.93284C16.2962 8.95581 16.286 8.98199 16.282 9.00943C16.278 9.03687 16.2801 9.06487 16.2884 9.09134C16.2967 9.11782 16.3108 9.1421 16.3297 9.16237L22.3443 15.6459C22.3615 15.6646 22.3825 15.6796 22.4058 15.6897C22.4291 15.6999 22.4543 15.7051 22.4797 15.7051C22.5289 15.705 22.576 15.6854 22.6107 15.6507C22.6454 15.616 22.665 15.5689 22.665 15.5198V5.49822C22.6652 5.46562 22.6567 5.43357 22.6404 5.40531C22.6242 5.37704 22.6008 5.35357 22.5725 5.33727Z" fill="#19183F"/>
<path d="M14.6385 10.0648C14.61 10.0337 14.5717 10.0134 14.5299 10.0071C14.4882 10.0009 14.4455 10.0092 14.4092 10.0306L11.9987 11.449C11.8575 11.5306 11.6974 11.5741 11.5343 11.5751C11.3712 11.5762 11.2106 11.5348 11.0684 11.4551L8.94701 10.2432C8.91276 10.2237 8.87319 10.2156 8.83404 10.2201C8.79488 10.2245 8.75817 10.2414 8.72922 10.2681L0.673598 17.7403C0.65248 17.76 0.636265 17.7844 0.626247 17.8115C0.616228 17.8386 0.612683 17.8677 0.615895 17.8965C0.619106 17.9252 0.628984 17.9528 0.644742 17.977C0.6605 18.0012 0.681702 18.0215 0.706658 18.0361C0.831938 18.1097 0.952868 18.1448 1.07583 18.1448H21.7102C21.7463 18.1449 21.7816 18.1343 21.8118 18.1145C21.842 18.0946 21.8656 18.0663 21.8798 18.0332C21.8943 18.0002 21.8988 17.9636 21.8927 17.9281C21.8866 17.8926 21.8703 17.8596 21.8456 17.8333L14.6385 10.0648Z" fill="#19183F"/>
<path d="M6.95682 9.38433C6.97816 9.3646 6.99456 9.34013 7.00469 9.3129C7.01483 9.28567 7.01842 9.25643 7.01518 9.22756C7.01193 9.19868 7.00194 9.17097 6.98601 9.14667C6.97008 9.12237 6.94866 9.10215 6.92347 9.08766L0.611334 5.48238C0.583164 5.46638 0.551289 5.45806 0.518895 5.45826C0.486502 5.45845 0.454727 5.46714 0.426747 5.48346C0.398767 5.49979 0.375563 5.52317 0.359456 5.55128C0.343349 5.57938 0.334904 5.61122 0.334964 5.64362V15.1034C0.33476 15.1395 0.345154 15.1749 0.364861 15.2052C0.384568 15.2355 0.412722 15.2593 0.445838 15.2738C0.478955 15.2882 0.51558 15.2926 0.55118 15.2865C0.586781 15.2803 0.619794 15.2639 0.646134 15.2391L6.95682 9.38433V9.38433Z" fill="#19183F"/>
</svg>
