<svg width="482" height="290" viewBox="0 0 482 290" fill="none" xmlns="http://www.w3.org/2000/svg">
<g opacity="0.1" filter="url(#filter0_d)">
<path d="M209.017 22.7989C193.653 22.7167 178.841 18.7459 163.997 15.6661C147.485 12.247 130.771 9.89875 113.958 8.63608C96.0527 7.28509 77.7335 7.17422 60.3433 10.7591C42.9532 14.3439 26.4553 21.9365 16.4444 33.537C-0.548738 53.1899 4.07608 79.4788 13.0147 102.113C23.619 128.956 39.6176 154.855 63.3556 176.027C80.2382 191.073 100.657 203.433 120.937 215.69C132.396 222.614 143.942 229.586 156.953 234.58C169.063 239.207 182.172 242.004 195.192 244.771C209.107 247.728 223.022 250.693 237.236 252.532C282.601 258.413 329 252.721 374.295 246.541C390.257 244.365 406.877 241.889 419.569 234.087C429.457 228.005 436.005 219.201 440.671 210.102C446.786 198.193 449.937 184.412 443.282 172.66C433.46 155.323 405.772 147.644 394.906 130.689C380.991 108.954 400.141 82.0822 391.198 58.8279C387.478 49.1493 379.169 40.9694 370.488 33.4507C349.8 15.4937 323.246 0.0456058 290.659 6.49257C263.078 11.9499 238.608 22.959 209.017 22.7989Z" fill="#6C63FF"/>
</g>
<g filter="url(#filter1_d)">
<path d="M423.037 233.004C423.037 233.004 417.875 206.795 428.502 188.85C433.008 181.347 434.963 172.583 434.074 163.873C433.616 159.741 432.78 155.66 431.578 151.681" stroke="#FF4654" stroke-width="2" stroke-miterlimit="10"/>
<path d="M438.22 140.325C437.934 143.449 431.446 151.995 431.446 151.995C431.446 151.995 426.627 142.41 426.916 139.282C426.969 138.527 427.172 137.791 427.514 137.116C427.855 136.442 428.327 135.842 428.903 135.352C429.478 134.862 430.145 134.493 430.865 134.265C431.585 134.037 432.343 133.955 433.095 134.024C433.847 134.093 434.578 134.312 435.244 134.667C435.911 135.023 436.5 135.508 436.976 136.095C437.453 136.681 437.809 137.357 438.022 138.083C438.234 138.808 438.3 139.569 438.216 140.321L438.22 140.325Z" fill="#00E0B9"/>
<path d="M445.973 158.502C444.037 160.97 433.959 164.616 433.959 164.616C433.959 164.616 435.114 153.945 437.05 151.477C437.497 150.855 438.066 150.329 438.721 149.932C439.377 149.535 440.105 149.275 440.864 149.168C441.622 149.061 442.394 149.108 443.134 149.308C443.873 149.508 444.564 149.855 445.166 150.329C445.768 150.804 446.268 151.395 446.636 152.068C447.003 152.741 447.231 153.482 447.305 154.246C447.38 155.009 447.299 155.78 447.068 156.511C446.837 157.243 446.461 157.92 445.962 158.502H445.973Z" fill="#00E0B9"/>
<path d="M442.85 188.057C439.934 189.207 429.4 187.257 429.4 187.257C429.4 187.257 435.774 178.629 438.69 177.479C439.386 177.192 440.132 177.046 440.885 177.05C441.638 177.054 442.382 177.208 443.075 177.504C443.768 177.799 444.395 178.229 444.92 178.77C445.445 179.31 445.858 179.95 446.134 180.651C446.41 181.353 446.543 182.103 446.527 182.856C446.511 183.61 446.346 184.354 446.04 185.043C445.735 185.732 445.295 186.354 444.747 186.871C444.2 187.389 443.555 187.792 442.85 188.057Z" fill="#00E0B9"/>
<path d="M435.46 209.884C432.78 211.512 422.067 211.373 422.067 211.373C422.067 211.373 426.898 201.795 429.575 200.163C430.212 199.761 430.923 199.491 431.666 199.367C432.409 199.243 433.169 199.268 433.902 199.442C434.635 199.615 435.326 199.933 435.936 200.377C436.545 200.821 437.06 201.381 437.45 202.026C437.841 202.672 438.099 203.388 438.211 204.134C438.322 204.881 438.284 205.642 438.099 206.373C437.914 207.104 437.585 207.791 437.132 208.394C436.679 208.997 436.111 209.503 435.46 209.884Z" fill="#00E0B9"/>
<path d="M422.039 164.127C424.078 166.512 434.298 169.726 434.298 169.726C434.298 169.726 432.694 159.113 430.659 156.731C429.673 155.61 428.286 154.924 426.798 154.819C425.311 154.715 423.842 155.201 422.71 156.173C421.578 157.144 420.872 158.523 420.747 160.012C420.621 161.5 421.085 162.978 422.039 164.127Z" fill="#00E0B9"/>
<path d="M413.719 189.768C416.374 191.432 427.09 191.435 427.09 191.435C427.09 191.435 422.392 181.797 419.736 180.125C419.104 179.718 418.397 179.44 417.657 179.308C416.917 179.176 416.158 179.193 415.424 179.357C414.691 179.522 413.997 179.831 413.383 180.266C412.77 180.701 412.249 181.254 411.851 181.893C411.452 182.532 411.184 183.243 411.063 183.986C410.941 184.73 410.968 185.49 411.143 186.222C411.317 186.955 411.634 187.646 412.077 188.254C412.52 188.863 413.079 189.377 413.722 189.768H413.719Z" fill="#00E0B9"/>
<path d="M409.042 215.798C411.38 217.887 421.939 219.708 421.939 219.708C421.939 219.708 418.934 209.405 416.592 207.316C416.041 206.79 415.39 206.38 414.678 206.111C413.965 205.842 413.206 205.719 412.446 205.75C411.685 205.781 410.939 205.965 410.25 206.29C409.562 206.616 408.946 207.078 408.44 207.647C407.933 208.216 407.546 208.881 407.301 209.603C407.056 210.326 406.959 211.09 407.015 211.85C407.072 212.611 407.28 213.352 407.628 214.03C407.976 214.708 408.457 215.31 409.042 215.798Z" fill="#00E0B9"/>
</g>
<defs>
<filter id="filter0_d" x="0" y="0" width="482" height="290" filterUnits="userSpaceOnUse" color-interpolation-filters="sRGB">
<feFlood flood-opacity="0" result="BackgroundImageFix"/>
<feColorMatrix in="SourceAlpha" type="matrix" values="0 0 0 0 0 0 0 0 0 0 0 0 0 0 0 0 0 0 127 0"/>
<feOffset dx="15" dy="15"/>
<feGaussianBlur stdDeviation="10"/>
<feColorMatrix type="matrix" values="0 0 0 0 0 0 0 0 0 0 0 0 0 0 0 0 0 0 1 0"/>
<feBlend mode="normal" in2="BackgroundImageFix" result="effect1_dropShadow"/>
<feBlend mode="normal" in="SourceGraphic" in2="effect1_dropShadow" result="shape"/>
</filter>
<filter id="filter1_d" x="407" y="130" width="49.3323" height="107.196" filterUnits="userSpaceOnUse" color-interpolation-filters="sRGB">
<feFlood flood-opacity="0" result="BackgroundImageFix"/>
<feColorMatrix in="SourceAlpha" type="matrix" values="0 0 0 0 0 0 0 0 0 0 0 0 0 0 0 0 0 0 127 0"/>
<feOffset dx="5"/>
<feGaussianBlur stdDeviation="2"/>
<feColorMatrix type="matrix" values="0 0 0 0 0 0 0 0 0 0 0 0 0 0 0 0 0 0 0.25 0"/>
<feBlend mode="normal" in2="BackgroundImageFix" result="effect1_dropShadow"/>
<feBlend mode="normal" in="SourceGraphic" in2="effect1_dropShadow" result="shape"/>
</filter>
</defs>
</svg>
