<svg width="87" height="110" viewBox="0 0 87 110" fill="none" xmlns="http://www.w3.org/2000/svg">
<g id="girlSit">
<path id="Vector" d="M75.1458 77.4842C75.1458 77.4842 68.4274 79.1098 65.7681 82.149C64.7727 83.179 63.547 83.9578 62.1917 84.4214V79.8255C63.7278 77.2448 65.2782 74.3744 65.2782 74.3744C65.3482 74.233 65.9081 72.2541 65.9081 72.2541C67.1677 71.2646 65.8381 67.8013 65.8381 67.8013C65.8381 67.8013 66.6079 65.6103 66.188 65.1862C65.7681 64.7622 66.118 63.6313 66.4679 63.1366C66.7228 62.6607 66.8208 62.1165 66.7479 61.5817C66.7479 61.1576 66.188 60.5215 65.2782 60.1681C64.3684 59.8147 65.3482 59.2493 65.9081 59.1079C66.4679 58.9666 66.6079 57.6237 65.978 56.9169C65.3482 56.2101 66.048 55.786 66.3979 55.0086C66.7478 54.2311 65.2782 54.3725 65.2782 54.3725V47.2353L65.2789 47.2347C65.2789 47.2347 64.859 44.9023 64.4391 40.8016C64.0192 36.7029 62.4089 36.2789 62.4089 36.2789C61.5458 36.0114 60.7037 35.6804 59.8895 35.2887C59.0315 34.8868 58.1418 34.5563 57.2294 34.3006C56.0711 34.2885 54.919 34.1289 53.8009 33.8256C53.0425 33.5681 52.257 33.3981 51.46 33.3188C51.3739 33.2786 51.292 33.2362 51.208 33.1938C49.3134 32.2319 47.812 30.6413 46.9608 28.6944C46.9176 28.5973 46.878 28.5014 46.8391 28.4059C47.2574 27.947 47.632 27.4501 47.958 26.9218L47.9652 26.9097C47.966 26.9818 47.9683 27.0541 47.9683 27.1262C47.9684 27.1565 47.9673 27.1867 47.9673 27.217C47.9666 27.3913 47.9649 27.5655 47.9601 27.7393L47.961 27.7378L47.9609 27.7532C49.0782 25.7808 52.3156 25.3305 52.6238 23.0796C52.6374 22.9773 52.6442 22.8742 52.6442 22.771L52.6446 22.757C52.6446 22.6811 52.641 22.6052 52.6355 22.5294C52.5937 21.901 52.3786 21.2751 52.3367 20.6396C52.3262 20.458 52.3292 20.2757 52.3456 20.0945L52.3467 20.1047C52.4914 18.356 53.8099 16.8359 54.4138 15.1376C54.5747 14.6807 54.6805 14.2062 54.7289 13.7242L54.7303 13.7114C54.7451 13.5656 54.755 13.4194 54.76 13.2729C54.7613 13.2365 54.7613 13.2002 54.7621 13.1638C54.7637 13.062 54.7631 12.9603 54.7602 12.8585C54.7415 11.9555 54.538 11.0658 54.1623 10.2444C53.7866 9.42299 53.2466 8.68723 52.5756 8.08254C51.46 7.11269 49.9854 6.5034 49.2131 5.23778C48.8528 4.6473 48.6754 3.95345 48.2828 3.38434C47.5433 2.31237 46.1827 1.87564 44.8982 1.72063C43.6137 1.56562 42.2892 1.61758 41.059 1.21337C40.1873 0.926968 39.3961 0.420697 38.5149 0.165518C37.555 -0.0913836 36.5394 -0.0484026 35.6046 0.288679C34.6698 0.62576 33.8605 1.24081 33.2854 2.05122C32.8209 2.72857 32.5169 3.53991 31.8912 4.06863C30.6089 5.15219 28.4331 4.68191 27.3094 5.93226C26.6923 6.61883 26.6215 7.5543 26.6964 8.51149L26.699 8.54496C26.7051 8.61913 26.7119 8.69331 26.7194 8.76753C26.7229 8.80209 26.7263 8.83657 26.73 8.87113C26.7341 8.90809 26.7384 8.94493 26.7427 8.98183C26.7823 9.32467 26.832 9.66584 26.875 9.99477C26.8816 10.0449 26.8866 10.0953 26.8926 10.1455C26.9048 10.2476 26.9167 10.3497 26.9267 10.452C26.9341 10.5267 26.9402 10.6015 26.9464 10.6763C26.9541 10.7689 26.9608 10.8616 26.9667 10.9544C26.9713 11.0271 26.9762 11.0997 26.9798 11.1725C27.1065 13.7818 26.5534 16.3793 25.3747 18.7106C24.316 20.7896 22.7413 22.7028 22.4671 25.024C22.4243 25.4041 22.4142 25.7872 22.4369 26.169C22.4392 26.2139 22.4401 26.2588 22.4432 26.3037C22.4481 26.3725 22.4555 26.4411 22.4621 26.5098C22.4696 26.5887 22.4766 26.6675 22.4863 26.7462C22.4918 26.7912 22.4987 26.836 22.505 26.881C22.5193 26.9855 22.5345 27.0899 22.5522 27.1943C22.556 27.2166 22.5603 27.2388 22.5642 27.2611C22.8423 28.8431 23.4718 30.4044 23.8075 31.9916C23.9318 32.5811 24.0154 33.1784 24.0577 33.7793L24.0583 33.7917C24.0716 33.9825 24.0807 34.1737 24.0857 34.365C24.0923 34.624 24.0889 34.883 24.0803 35.1418C23.5489 35.3467 23.0039 35.5141 22.4491 35.6427C21.4686 35.7848 18.5986 38.3292 18.8085 38.9653C19.0164 39.593 17.5236 44.0605 17.4817 44.192L17.4795 44.1941L17.48 44.1945L17.4795 44.1948L15.1186 60.4508C15.1186 60.4508 13.8718 61.6523 14.2614 62.4298C14.651 63.2072 14.186 64.5501 14.186 64.5501C14.186 64.5501 12.0796 65.4689 12.5471 66.0343C13.0147 66.5998 12.8013 67.6599 12.4794 68.3667C12.1575 69.0735 11.6325 70.3457 12.4794 70.5577C13.3264 70.7698 12.6251 73.5262 12.6251 73.5262C12.6251 73.5262 15.5788 73.1872 15.3619 74.9398C15.2926 75.4996 17.4278 77.034 18.3194 77.6483V86.0922C17.1261 85.7806 15.9568 85.384 14.8202 84.9054C13.0006 84.0573 2.78303 82.4317 0.543564 87.3085C-1.6959 92.1853 3.62285 98.6877 4.95252 99.3945C4.95252 99.3945 6.21225 100.384 6.49216 100.879C6.77207 101.373 8.38171 101.515 8.38171 101.515C8.38171 101.515 10.0613 102.292 10.4812 102.716C10.791 103.029 13.3486 103.842 16.3826 104.474L16.3821 104.474C16.3821 104.474 13.9326 110.114 17.9285 109.648C21.9244 109.182 23.8711 107.216 26.6888 107.216C27.8147 107.216 29.9059 107.059 32.0111 106.871C32.5393 106.964 33.0617 107.087 33.5757 107.24C34.762 107.611 35.9803 107.872 37.2149 108.017C37.2149 108.017 40.3641 109.713 42.0437 109.289C42.1832 109.247 42.3129 109.178 42.4253 109.085C42.4379 109.082 42.4512 109.081 42.4636 109.077C42.8808 108.897 43.2335 108.595 43.4751 108.21C45.5772 108.425 47.9705 108.731 48.8713 109.079C50.6131 109.751 63.0619 108.82 63.0619 108.82C63.0619 108.82 71.105 108.978 73.4104 109.675C75.7157 110.372 74.896 102.56 70.644 101.68C69.5039 101.463 68.345 101.36 67.1845 101.374C67.4791 101.071 67.7479 100.745 67.9881 100.397C69.5205 100.258 70.5269 100.172 70.5269 100.172C70.5269 100.172 74.586 98.1929 76.8954 96.9914C78.3718 96.1893 79.6979 95.137 80.8145 93.8816C80.8145 93.8816 82.844 92.6094 83.6838 92.1146C84.5236 91.6199 84.9435 89.9943 84.9435 89.9943C91.312 75.5759 75.1458 77.4842 75.1458 77.4842ZM56.9212 59.3976C56.9219 59.1595 56.9227 58.9215 56.9236 58.6848C57.1473 58.8464 57.1144 59.099 56.9212 59.3976ZM56.9877 64.3961C57.157 64.6192 57.3218 64.8225 57.44 64.9742C57.8924 65.5542 57.0735 65.8364 57.1329 66.8092C57.1463 67.0277 57.1649 67.3297 57.1857 67.6663H57.1856C57.0994 66.2732 57.0292 65.117 56.9877 64.3961H56.9877Z" fill="url(#paint0_linear)"/>
<path id="Vector_2" d="M20.5588 86.7018C20.5588 86.7018 16.6397 85.792 14.8202 84.9522C13.0006 84.1124 2.78303 82.5028 0.543565 87.3317C-1.6959 92.1605 3.62283 98.599 4.95252 99.2988C6.28221 99.9987 19.2291 90.411 19.2291 90.411L29.4467 94.7149L31.4062 88.0315L20.5588 86.7018Z" fill="#65617D"/>
<path id="Vector_3" d="M62.2198 88.0314H31.997C28.0662 88.0314 24.8796 91.2179 24.8796 95.1487V96.3803C24.8796 100.311 28.0662 103.498 31.997 103.498H62.2198C66.1506 103.498 69.3371 100.311 69.3371 96.3803V95.1487C69.3371 91.2179 66.1506 88.0314 62.2198 88.0314Z" fill="#65617D"/>
<path id="Vector_4" opacity="0.1" d="M69.3373 95.7638C69.3373 97.8148 68.5227 99.7818 67.0726 101.232C65.6226 102.683 63.6558 103.498 61.6048 103.498H32.6128C30.5617 103.498 28.5947 102.684 27.1444 101.233C25.694 99.783 24.8793 97.8159 24.8793 95.7649C24.8793 93.7138 25.694 91.7468 27.1444 90.2965C28.5947 88.8461 30.5617 88.0314 32.6128 88.0314H61.6048C63.6555 88.0316 65.6222 88.8463 67.0722 90.2964C68.5223 91.7465 69.337 93.7131 69.3373 95.7638Z" fill="black"/>
<path id="Vector_5" d="M45.1315 96.2162C45.1315 96.2162 40.6745 97.361 37.0372 97.3098C33.3999 97.2586 16.3821 104.328 16.3821 104.328C16.3821 104.328 13.9326 109.912 17.9285 109.451C21.9244 108.99 23.8711 107.043 26.6888 107.043C29.5064 107.043 38.3692 106.07 38.3692 106.07L46.8986 99.7689L45.1315 96.2162Z" fill="#FBBEBE"/>
<path id="Vector_6" d="M47.9225 43.5219L39.9255 45.0986L39.4069 45.2015C39.4069 45.2015 33.0853 43.5219 32.8754 43.3812C32.6654 43.2426 26.9275 35.5081 26.9275 35.5081C26.9275 35.5081 29.829 35.5396 32.1091 34.2253C32.1909 34.1791 32.2707 34.1287 32.3505 34.0783C33.3563 33.476 34.121 32.5421 34.513 31.4372C34.5529 31.3217 34.5886 31.202 34.6222 31.0781C34.8829 29.9423 34.8598 28.7597 34.555 27.6349C33.7824 24.3723 35.5732 23.4737 37.9604 23.5514C41.4077 23.6648 46.1022 25.8168 46.1022 25.8168C46.1624 26.915 46.4117 27.9946 46.8391 29.008C46.8769 29.1025 46.9189 29.197 46.9609 29.2936C47.8167 31.2265 49.3183 32.8016 51.2082 33.7487C51.2922 33.7907 51.3741 33.8327 51.4601 33.8726C51.7142 33.9943 51.9829 34.1098 52.2621 34.2148C58.3507 36.5242 47.9225 43.5219 47.9225 43.5219Z" fill="#FBBEBE"/>
<path id="Vector_7" opacity="0.1" d="M46.9606 29.2939C45.4405 31.0161 43.3778 32.1674 41.114 32.5573C38.8503 32.9471 36.5213 32.552 34.5127 31.4375C34.8894 30.2001 34.9039 28.8807 34.5547 27.6353C32.6651 19.6572 46.1019 25.8171 46.1019 25.8171C46.1695 27.0193 46.4607 28.1985 46.9606 29.2939Z" fill="black"/>
<path id="Vector_8" d="M49.4844 22.2058C49.4874 24.0915 48.9583 25.9399 47.9581 27.5385C47.6317 28.0622 47.257 28.5542 46.8391 29.0082C45.0765 30.9421 42.6279 32.1107 40.0157 32.2645C39.8141 32.2771 39.6105 32.2834 39.4068 32.2834C37.4137 32.2834 35.4653 31.6924 33.808 30.585C32.1508 29.4777 30.8591 27.9037 30.0963 26.0623C29.3336 24.2209 29.134 22.1946 29.5229 20.2397C29.9117 18.2849 30.8715 16.4892 32.2809 15.0798C33.6903 13.6705 35.4859 12.7107 37.4408 12.3218C39.3957 11.933 41.4219 12.1325 43.2634 12.8953C45.1048 13.658 46.6787 14.9497 47.7861 16.607C48.8934 18.2642 49.4844 20.2126 49.4844 22.2058Z" fill="#FBBEBE"/>
<path id="Vector_9" opacity="0.1" d="M47.9225 43.5219L39.9255 45.0987L39.4069 45.2015C39.4069 45.2015 33.0853 43.5219 32.8754 43.3813C32.6654 43.2427 26.9275 35.5081 26.9275 35.5081C26.9275 35.5081 29.829 35.5396 32.1091 34.2253C32.1909 34.1792 32.2707 34.1288 32.3505 34.0784C33.2238 35.0147 34.2795 35.7624 35.4526 36.2755C36.6257 36.7886 37.8914 37.0562 39.1718 37.0618C39.6484 37.059 40.1242 37.0211 40.5952 36.9484C41.7206 36.7762 42.8543 36.665 43.9859 36.5474C46.1526 36.3207 49.4677 35.6635 51.2082 33.7488C51.2922 33.7908 51.3741 33.8327 51.4602 33.8726C51.7142 33.9944 51.9829 34.1099 52.2622 34.2148C58.3507 36.5243 47.9225 43.5219 47.9225 43.5219Z" fill="black"/>
<path id="Vector_10" d="M56.95 63.9563C57.0193 65.4974 58.1404 82.8518 58.1404 82.8518H23.2173L23.4546 71.926L23.6456 63.1858L23.7086 60.3179L23.9878 50.381L22.978 49.4908L17.4794 44.6409L17.4815 44.6388C17.5235 44.5086 19.0162 40.085 18.8084 39.4636C18.5984 38.8337 21.4684 36.3143 22.4489 36.1736C23.0071 36.0453 23.5557 35.8783 24.0907 35.6739C25.7409 35.0945 27.9433 34.2421 28.1868 34.3743C28.529 34.5591 31.9638 34.24 32.1087 34.2253H32.1129C32.9876 35.2419 34.0705 36.0587 35.2883 36.6205C36.5061 37.1823 37.8303 37.4759 39.1714 37.4816C39.648 37.4788 40.1238 37.4409 40.5949 37.3682C41.7202 37.1961 42.8539 37.0848 43.9856 36.9672C46.2614 36.73 49.8012 36.0162 51.4598 33.8726C52.2566 33.9509 53.0419 34.1193 53.8008 34.3743C54.9193 34.6747 56.0712 34.8328 57.2293 34.8447C58.1411 35.0977 59.0308 35.4249 59.8893 35.823C60.704 36.2111 61.5461 36.5388 62.4087 36.8035C62.4087 36.8035 64.019 37.2234 64.4389 41.2817C64.8588 45.3422 65.2787 47.6516 65.2787 47.6516L56.95 54.8592C56.95 54.8592 56.8807 62.4174 56.95 63.9563Z" fill="#B563FF"/>
<path id="Vector_11" d="M17.4796 76.064L18.7033 78.0235L23.2882 79.6394L26.4375 73.8942L23.5341 71.9347L18.8792 70.1155L16.2198 71.655L17.4796 76.064Z" fill="#FBBEBE"/>
<path id="Vector_12" d="M56.6003 85.7221C56.6003 85.7221 63.1087 85.2322 65.7681 82.2229C68.4275 79.2136 75.1459 77.604 75.1459 77.604C75.1459 77.604 91.312 75.7145 84.9435 89.9911C84.9435 89.9911 84.5236 91.6007 83.6838 92.0906C82.844 92.5804 80.8145 93.8401 80.8145 93.8401L55.975 91.6708L56.6003 85.7221Z" fill="#65617D"/>
<path id="Vector_13" opacity="0.1" d="M69.3372 95.7639C69.3391 97.2845 68.8914 98.7717 68.0502 100.038C63.8721 100.41 54.6175 101.279 52.6818 101.819C50.3031 102.478 45.4889 101.33 44.962 101.199C44.9305 101.193 44.9137 101.189 44.9137 101.189C44.9137 101.189 43.9857 98.3736 43.5427 96.5722C43.3432 95.7534 43.2425 95.1445 43.3726 95.1004C43.7925 94.9598 47.643 93.91 47.5716 94.5042C47.5023 95.1004 59.1189 89.9902 59.1189 89.9902L59.4758 94.4699C60.6599 95.8283 69.3372 93.8197 69.3372 95.7639Z" fill="black"/>
<path id="Vector_14" d="M81.3044 92.0205L80.8146 93.8401C79.6958 95.0851 78.3699 96.1269 76.8955 96.9193C74.586 98.109 70.527 100.069 70.527 100.069C70.527 100.069 55.6206 101.328 53.1011 102.028C50.5817 102.728 45.333 101.398 45.333 101.398C45.333 101.398 43.3735 95.4497 43.7934 95.3097C44.2132 95.1697 48.0623 94.12 47.9924 94.7148C47.9224 95.3097 59.5396 90.2009 59.5396 90.2009L81.3044 92.0205Z" fill="#65617D"/>
<path id="Vector_15" d="M39.8036 107.709C39.8036 107.709 47.1295 108.222 48.8713 108.888C50.6131 109.554 63.0619 108.632 63.0619 108.632C63.0619 108.632 71.105 108.788 73.4104 109.478C75.7157 110.168 74.896 102.433 70.644 101.562C66.3919 100.691 60.398 101.972 60.398 101.972C60.398 101.972 53.6356 101.101 52.816 100.998C51.9963 100.896 46.5926 101.048 46.5926 101.048L39.8036 107.709Z" fill="#FBBEBE"/>
<path id="Vector_16" opacity="0.1" d="M11.0125 88.3959C11.0125 88.3959 20.6949 89.2668 23.3588 90.8549L11.0125 88.3959Z" fill="black"/>
<path id="Vector_17" opacity="0.1" d="M71.4124 82.0435C71.4124 82.0435 63.8303 83.8877 60.859 86.6029L71.4124 82.0435Z" fill="black"/>
<path id="Vector_18" opacity="0.1" d="M11.576 86.193C11.7297 86.2442 16.033 86.8078 15.9306 87.2176C15.8281 87.6274 11.576 86.193 11.576 86.193Z" fill="black"/>
<path id="Vector_19" opacity="0.1" d="M4.81238 96.9893L5.37225 99.0888C5.94137 99.5165 6.45814 100.01 6.91188 100.558C7.19181 101.048 8.80143 101.188 8.80143 101.188C8.80143 101.188 10.481 101.958 10.9009 102.378C11.3208 102.798 15.8698 104.128 20.1387 104.687C24.4077 105.247 32.3158 106.297 33.9954 106.857C35.1822 107.225 36.4004 107.483 37.6346 107.627C37.6346 107.627 40.7838 109.306 42.4634 108.886C44.143 108.467 47.0123 100.838 47.0123 100.838C47.0123 100.838 35.955 98.249 35.6051 97.4092C35.2551 96.5694 24.6177 92.6526 24.6177 92.6526L18.3192 92.8016L4.81238 96.9893Z" fill="black"/>
<path id="Vector_20" d="M4.39246 97.1993L4.95233 99.2988C5.52145 99.7265 6.03822 100.22 6.49196 100.768C6.77189 101.258 8.38151 101.398 8.38151 101.398C8.38151 101.398 10.0611 102.168 10.481 102.588C10.9009 103.008 15.4498 104.338 19.7188 104.897C23.9878 105.457 31.8959 106.507 33.5755 107.067C34.7623 107.435 35.9805 107.693 37.2147 107.837C37.2147 107.837 40.3639 109.516 42.0435 109.096C43.7231 108.677 46.5924 101.048 46.5924 101.048C46.5924 101.048 35.535 98.459 35.1851 97.6192C34.8352 96.7794 19.229 90.4109 19.229 90.4109L14.3301 89.2911L4.39246 97.1993Z" fill="#65617D"/>
<path id="Vector_21" d="M18.7028 43.9419L17.4795 44.6417L15.1185 60.7379C15.1185 60.7379 13.8717 61.9276 14.2613 62.6974C14.6509 63.4673 14.1859 64.7969 14.1859 64.7969C14.1859 64.7969 12.0795 65.7067 12.5471 66.2666C13.0146 66.8265 12.8012 67.8762 12.4793 68.576C12.1574 69.2759 11.6324 70.5356 12.4793 70.7455C13.3263 70.9555 12.625 73.6848 12.625 73.6848C12.625 73.6848 15.5788 73.3492 15.3618 75.0845C15.2743 75.7843 18.7028 78.0238 18.7028 78.0238C18.7028 78.0238 14.8068 70.9555 23.534 71.9352L24.2843 67.9502C24.2843 67.9502 25.0346 65.7067 24.2843 65.0069C23.534 64.3071 24.4529 60.9829 24.4529 60.9829L24.6178 46.5313L18.7028 43.9419Z" fill="#B563FF"/>
<path id="Vector_22" opacity="0.1" d="M16.8011 64.7278C16.9548 64.9839 21.668 65.5065 21.9754 66.3466C22.2827 67.1868 16.8011 64.7278 16.8011 64.7278Z" fill="black"/>
<path id="Vector_23" opacity="0.1" d="M15.3157 68.7235C15.3157 68.7235 15.9547 66.7255 17.4795 67.0841C19.0042 67.4427 15.3157 68.7235 15.3157 68.7235Z" fill="black"/>
<path id="Vector_24" opacity="0.1" d="M14.4961 71.6436C14.4961 71.6436 15.6231 68.9797 17.16 69.1846C18.6969 69.3895 14.4961 71.6436 14.4961 71.6436Z" fill="black"/>
<path id="Vector_25" d="M65.7681 71.5854L65.2782 74.5247C65.2782 74.5247 60.2394 83.7625 59.3296 83.9025C58.4198 84.0424 53.451 77.7439 53.451 77.7439L52.1213 71.5854L57.3562 70.5932L59.6795 68.2961C59.6795 68.2961 65.5581 68.856 65.7681 71.5854Z" fill="#FBBEBE"/>
<path id="Vector_26" d="M63.3887 46.3214L65.2782 47.6511V54.7194C65.2782 54.7194 66.7479 54.5795 66.398 55.3493C66.048 56.1191 65.3482 56.539 65.9781 57.2388C66.6079 57.9387 66.468 59.2684 65.9081 59.4083C65.3482 59.5483 64.3684 60.1082 65.2782 60.4581C66.188 60.808 66.7479 61.4378 66.7479 61.8577C66.8208 62.3877 66.7227 62.927 66.4679 63.3974C66.118 63.8873 65.7681 65.007 66.188 65.4269C66.6079 65.8468 65.8381 68.0163 65.8381 68.0163C65.8381 68.0163 67.1678 71.4455 65.9081 72.4252C65.9081 72.4252 65.3482 74.3848 65.2782 74.5247C65.2782 74.5247 66.1601 67.7116 57.3562 70.5933C57.3562 70.5933 57.1923 67.9971 57.133 67.0339C57.0736 66.0706 57.8924 65.7913 57.4401 65.217C56.9877 64.6426 55.8557 63.3272 56.3903 62.9775C56.9249 62.6278 56.7402 61.9977 56.5303 61.5078C56.3203 61.0179 55.5792 61.018 56.2499 60.4231C56.9206 59.8282 57.3164 59.2698 56.9233 58.9892C56.5303 58.7086 55.8466 57.797 56.3903 57.3788C56.9341 56.9607 56.9502 50.8704 56.9502 50.8704C56.9502 50.8704 59.1897 41.9125 63.3887 46.3214Z" fill="#B563FF"/>
<path id="Vector_27" opacity="0.1" d="M62.4984 58.3627C62.4984 58.3627 65.1891 57.6329 65.2782 58.3627C65.3673 59.0925 62.4984 58.3627 62.4984 58.3627Z" fill="black"/>
<path id="Vector_28" opacity="0.1" d="M59.4758 60.3733C59.4758 60.3733 63.1644 59.4512 63.6254 60.1684C64.0865 60.8856 59.4758 60.3733 59.4758 60.3733Z" fill="black"/>
<path id="Vector_29" opacity="0.1" d="M58.6561 62.3197C58.6561 62.3197 64.189 61.5513 64.5476 62.6783C64.9062 63.8054 58.6561 62.3197 58.6561 62.3197Z" fill="black"/>
<path id="Vector_30" opacity="0.1" d="M59.4758 64.7278C59.6807 64.779 64.8037 65.1376 64.9062 66.111C65.0087 67.0843 59.4758 64.7278 59.4758 64.7278Z" fill="black"/>
<path id="Vector_31" d="M57.7008 67.8823H22.8103C20.33 67.8823 18.3193 69.893 18.3193 72.3732V88.3106C18.3193 90.7909 20.33 92.8016 22.8103 92.8016H57.7008C60.1811 92.8016 62.1917 90.7909 62.1917 88.3106V72.3732C62.1917 69.893 60.1811 67.8823 57.7008 67.8823Z" fill="#FF4654"/>
<path id="Vector_32" d="M40.2555 81.9602C41.1493 81.9602 41.8738 81.2357 41.8738 80.342C41.8738 79.4482 41.1493 78.7238 40.2555 78.7238C39.3618 78.7238 38.6373 79.4482 38.6373 80.342C38.6373 81.2357 39.3618 81.9602 40.2555 81.9602Z" fill="#00E0B9"/>
<path id="Vector_33" opacity="0.1" d="M25.6676 52.6094C25.6676 52.6094 29.8723 55.8236 33.1237 53.3741C33.1237 53.3741 27.6272 53.8741 25.6676 52.6094Z" fill="black"/>
<path id="Vector_34" opacity="0.1" d="M46.9608 53.4734C46.9608 53.4734 51.1655 56.6876 54.4169 54.2382C54.4169 54.2382 48.9203 54.7381 46.9608 53.4734Z" fill="black"/>
<path id="Vector_35" opacity="0.1" d="M49.4845 22.2058C49.4875 24.0915 48.9584 25.9399 47.9582 27.5385C47.8742 24.7315 47.2129 21.9245 45.6865 19.5814C44.2882 17.4336 40.0389 13.6692 37.1164 14.7169C36.8107 14.8295 36.5359 15.0124 36.3142 15.251C36.0924 15.4895 35.9299 15.7769 35.8399 16.0899C35.5501 17.1901 36.3983 17.6478 36.9421 18.5233C37.8661 20.026 38.2269 21.8078 37.9604 23.5516C37.9231 23.7862 37.8741 24.0189 37.8134 24.2486C37.3536 25.9744 36.2997 27.95 37.3872 29.3672C38.1451 30.3539 39.7743 30.6941 39.9948 31.9181C40.0152 32.0323 40.0223 32.1486 40.0158 32.2645C39.9654 33.0875 39.2621 33.8139 38.9555 34.6243C38.5944 35.5775 38.7981 36.5244 39.1718 37.4817C39.6589 38.731 40.4336 39.9949 40.6204 41.3133C40.8052 42.6129 40.4042 43.8559 39.9255 45.0988C39.4103 46.2401 39.023 47.435 38.7708 48.6616C38.4327 50.9879 39.2851 53.6773 37.8218 55.5165C37.6731 55.7388 37.4432 55.894 37.1815 55.949C36.243 56.0477 36.4025 54.3617 35.6488 53.7949C35.7286 54.7753 35.8042 55.7957 35.4494 56.7132C35.0924 57.6307 34.1687 58.4075 33.1966 58.2542C33.0853 57.5215 32.974 56.7881 32.8628 56.0539C32.2019 56.7048 31.4064 57.2029 30.5323 57.5131C30.8753 55.1724 31.7034 52.9291 32.9636 50.927C30.4987 52.1132 29.0627 54.6829 27.7799 57.0974C26.98 58.6069 26.1528 60.2571 26.432 61.9431C26.5454 62.6296 26.8414 63.2825 26.9065 63.9754C26.9716 64.6682 26.7196 65.4744 26.0751 65.7389C25.7853 65.8286 25.4752 65.8284 25.1856 65.7384C24.8959 65.6485 24.6402 65.473 24.4522 65.2351C24.4291 65.2078 24.406 65.1805 24.3829 65.1511C24.3427 65.1008 24.3056 65.0482 24.2716 64.9936C24.2008 64.8881 24.1383 64.7772 24.0848 64.6619C23.9086 64.2479 23.7763 63.8165 23.6901 63.3749L23.646 63.1859C22.9951 60.3243 22.4073 57.3745 22.8838 54.4814C23.0602 53.4149 23.3814 52.3588 23.3436 51.2776C23.3148 50.6667 23.1916 50.064 22.9783 49.4909C22.4072 47.8911 21.3071 46.4193 20.6794 44.8069C20.6736 44.7954 20.6687 44.7835 20.6647 44.7712C20.335 43.9167 20.1734 42.8502 20.7822 42.1657C21.135 41.8509 21.5283 41.5848 21.9517 41.3742C23.1694 40.5806 23.7152 39.0753 23.9378 37.6392C24.0402 36.9892 24.0914 36.3321 24.091 35.6741C25.7412 35.0946 27.9436 34.2422 28.1872 34.3745C28.5294 34.5592 31.9642 34.2401 32.109 34.2254C33.2276 33.6253 34.0841 32.632 34.513 31.4373C34.5529 31.3218 34.5886 31.2022 34.6222 31.0783C33.054 30.2327 31.738 28.9866 30.8083 27.4669C29.8785 25.9472 29.3682 24.2082 29.3293 22.427C29.2904 20.6459 29.7243 18.8862 30.5869 17.3274C31.4494 15.7685 32.7097 14.4662 34.2395 13.553C35.7692 12.6397 37.5136 12.1483 39.2951 12.1288C41.0765 12.1092 42.8314 12.5622 44.3808 13.4416C45.9302 14.321 47.2188 15.5954 48.1153 17.135C49.0119 18.6745 49.4843 20.4242 49.4845 22.2058Z" fill="black"/>
<path id="Vector_36" d="M37.813 23.8281C37.3525 25.5545 36.2998 27.5298 37.3878 28.9471C38.146 29.9347 39.7748 30.2734 39.9937 31.499C40.167 32.4688 39.3038 33.2836 38.9553 34.2051C38.124 36.4036 40.2903 38.5655 40.6196 40.8927C40.9768 43.4175 39.1372 45.7189 38.7705 48.2422C38.4326 50.568 39.2851 53.2571 37.8211 55.0956C37.6731 55.3187 37.4431 55.4743 37.181 55.5288C36.2428 55.6284 36.4019 53.9428 35.6477 53.3759C35.7288 54.3564 35.8046 55.3766 35.4488 56.2939C35.0931 57.2112 34.1685 57.988 33.1967 57.8346L32.8627 55.6335C32.2014 56.284 31.4059 56.7822 30.5319 57.0933C30.8752 54.7527 31.7034 52.5096 32.9633 50.5074C30.4997 51.6941 29.063 54.2626 27.7808 56.6779C26.9798 58.1868 26.1535 59.837 26.4325 61.5223C26.5463 62.2097 26.8418 62.8617 26.9069 63.5553C26.972 64.249 26.7197 65.0542 26.075 65.3185C25.7672 65.4113 25.4379 65.4045 25.1341 65.2992C24.8303 65.1939 24.5675 64.9954 24.3832 64.732C24.0259 64.1969 23.7895 63.5904 23.6906 62.9547C23.0221 60.0336 22.3962 57.0175 22.8847 54.0609C23.0609 52.9942 23.3818 51.9379 23.3431 50.8574C23.2584 48.4944 21.5149 46.5575 20.6637 44.3515C20.3339 43.4969 20.1735 42.4306 20.7814 41.7454C21.1349 41.431 21.5286 41.165 21.9522 40.9543C23.1693 40.1604 23.7158 38.6559 23.9386 37.22C24.1789 35.6665 24.1342 34.0823 23.8067 32.5448C23.3152 30.243 22.1884 27.9966 22.4672 25.6594C22.7413 23.3609 24.3161 21.4666 25.3747 19.4081C26.7368 16.7446 27.2596 13.7308 26.8743 10.7642C26.6918 9.38383 26.3736 7.78627 27.3094 6.75527C28.4332 5.51722 30.6089 5.98286 31.8912 4.90994C32.5169 4.38644 32.821 3.58309 33.2854 2.91239C33.8653 2.10802 34.6759 1.49878 35.6098 1.16535C36.5436 0.831916 37.5568 0.790026 38.515 1.04522C39.3961 1.29789 40.1874 1.7992 41.059 2.08279C42.2892 2.48302 43.6137 2.43156 44.8982 2.58504C46.1828 2.73852 47.5433 3.17097 48.2828 4.23241C48.6754 4.79592 48.8529 5.48295 49.2132 6.06763C49.9854 7.3208 51.46 7.92412 52.5757 8.88444C53.5329 9.73762 54.2176 10.8538 54.5443 12.0938C54.8711 13.3337 54.8254 14.6424 54.413 15.8565C53.7468 17.7117 52.2056 19.3512 52.3367 21.3181C52.3906 22.126 52.7341 22.9183 52.6231 23.7204C52.3148 25.9492 49.0775 26.3951 47.9601 28.348C48.0491 25.1458 47.4347 21.8461 45.6867 19.1615C44.2879 17.0131 40.0383 13.2489 37.1168 14.2965C36.8111 14.4091 36.5362 14.5921 36.3144 14.8307C36.0925 15.0693 35.9299 15.3567 35.8398 15.6698C35.5506 16.7698 36.3979 17.2271 36.9415 18.1038C37.4642 18.9504 37.8107 19.8936 37.9604 20.8772C38.1102 21.8607 38.06 22.8644 37.813 23.8281Z" fill="#1F1E2D"/>
<g id="Group" opacity="0.2">
<path id="Vector_37" opacity="0.2" d="M24.0864 34.9256C24.1103 33.9193 24.0167 32.9137 23.8074 31.9291C23.3895 29.9721 22.5155 28.0551 22.4333 26.0884C22.3212 28.2773 23.345 30.3936 23.8074 32.559C23.9731 33.3376 24.0665 34.1298 24.0864 34.9256Z" fill="black"/>
<path id="Vector_38" opacity="0.2" d="M32.4271 50.8139C32.5974 50.5013 32.7742 50.1923 32.9641 49.8911C30.5004 51.0778 29.0637 53.6463 27.7815 56.0617C27.0398 57.4589 26.2781 58.9775 26.3908 60.5329C26.4843 59.1982 27.1403 57.8995 27.7815 56.6915C28.9673 54.4578 30.287 52.0955 32.4271 50.8139Z" fill="black"/>
<path id="Vector_39" opacity="0.2" d="M26.895 63.4744C26.8774 63.7328 26.7925 63.982 26.6488 64.1974C26.5051 64.4128 26.3075 64.5868 26.0757 64.7023C25.7679 64.7951 25.4386 64.7883 25.1348 64.683C24.8311 64.5777 24.5683 64.3792 24.3839 64.1158C24.0266 63.5808 23.7903 62.9742 23.6914 62.3385C23.1517 60.259 22.8252 58.1298 22.7168 55.9841C22.67 58.3209 23.1662 60.6739 23.6914 62.9684C23.7903 63.6041 24.0266 64.2106 24.3839 64.7456C24.5683 65.009 24.8311 65.2076 25.1348 65.3129C25.4386 65.4182 25.7679 65.4249 26.0757 65.3321C26.7204 65.0679 26.9727 64.2627 26.9076 63.569C26.9046 63.5373 26.8989 63.506 26.895 63.4744Z" fill="black"/>
<path id="Vector_40" opacity="0.2" d="M38.0408 21.7241C38.0189 22.2268 37.9428 22.7257 37.8139 23.2121C37.4725 24.4918 36.8065 25.9082 36.9276 27.1329C37.0205 26.0675 37.5297 24.9074 37.8139 23.8419C37.9956 23.1514 38.0721 22.4375 38.0408 21.7241Z" fill="black"/>
<path id="Vector_41" opacity="0.2" d="M26.9953 12.3814C27.0126 11.635 26.9723 10.8884 26.8749 10.1481C26.8028 9.60268 26.7106 9.02363 26.6818 8.45874C26.6747 9.23611 26.7393 10.0125 26.8749 10.778C26.9447 11.3098 26.9849 11.8451 26.9953 12.3814Z" fill="black"/>
<path id="Vector_42" opacity="0.2" d="M39.9946 31.5129C39.9915 31.4957 39.9854 31.4805 39.9818 31.4636C39.8329 32.1922 39.233 32.8571 38.9562 33.5891C38.7934 34.0261 38.7346 34.4951 38.7844 34.9588C38.8088 34.7057 38.8666 34.4569 38.9562 34.219C39.3046 33.2975 40.1679 32.4827 39.9946 31.5129Z" fill="black"/>
<path id="Vector_43" opacity="0.2" d="M23.344 50.2413C23.2593 47.8783 21.5157 45.9414 20.6646 43.7354C20.528 43.3898 20.436 43.0283 20.3909 42.6594C20.3434 43.2418 20.4373 43.827 20.6646 44.3652C21.5016 46.5345 23.1978 48.4445 23.3347 50.7543C23.3447 50.5838 23.3501 50.4129 23.344 50.2413Z" fill="black"/>
<path id="Vector_44" opacity="0.2" d="M45.6877 18.5454C44.2889 16.397 40.0393 12.6328 37.1178 13.6804C36.8121 13.793 36.5372 13.976 36.3153 14.2146C36.0935 14.4532 35.9309 14.7406 35.8408 15.0537C35.7719 15.2934 35.7643 15.5464 35.8188 15.7898C35.8259 15.7545 35.8311 15.7203 35.8408 15.6836C35.9309 15.3705 36.0935 15.083 36.3153 14.8445C36.5372 14.6059 36.8121 14.4229 37.1178 14.3103C40.0393 13.2627 44.2889 17.0268 45.6877 19.1752C47.2708 21.6066 47.9219 24.5425 47.965 27.4537C48.0114 24.3391 47.3851 21.1523 45.6877 18.5454Z" fill="black"/>
<path id="Vector_45" opacity="0.2" d="M52.6239 23.1046C52.3163 25.3285 49.0928 25.7775 47.9687 27.7197C47.9691 27.9341 47.9665 28.1482 47.9609 28.362C49.0783 26.4091 52.3156 25.9632 52.6239 23.7345C52.6513 23.5154 52.652 23.2937 52.6261 23.0745C52.6248 23.0845 52.6253 23.0945 52.6239 23.1046Z" fill="black"/>
<path id="Vector_46" opacity="0.2" d="M54.4137 15.2401C53.7475 17.0954 52.2062 18.7349 52.3373 20.7017C52.3393 20.7306 52.344 20.7593 52.3466 20.7882C52.4913 19.0567 53.8098 17.5516 54.4137 15.87C54.685 15.1014 54.8014 14.2867 54.7562 13.4729C54.7306 14.0757 54.6151 14.6714 54.4137 15.2401Z" fill="black"/>
<path id="Vector_47" opacity="0.2" d="M37.822 54.4795C37.674 54.7025 37.4439 54.8582 37.1818 54.9126C36.2436 55.0122 36.4028 53.3267 35.6486 52.7598C35.667 52.9829 35.6846 53.2082 35.6975 53.4338C36.3936 54.0369 36.2655 55.6398 37.1819 55.5425C37.444 55.488 37.674 55.3324 37.822 55.1094C38.6572 54.0605 38.7383 52.7348 38.7168 51.3577C38.6952 52.5054 38.5289 53.5917 37.822 54.4795Z" fill="black"/>
<path id="Vector_48" opacity="0.2" d="M35.4496 55.6779C35.0939 56.5952 34.1693 57.3719 33.1975 57.2185C33.0862 56.4848 32.9748 55.7511 32.8635 55.0174C32.2318 55.6378 31.4778 56.1196 30.6495 56.4321C30.6073 56.6565 30.5657 56.8811 30.5327 57.1071C31.4067 56.796 32.2021 56.2978 32.8635 55.6473C32.9748 56.381 33.0862 57.1147 33.1975 57.8484C34.1693 58.0018 35.0939 57.225 35.4496 56.3077C35.6707 55.6684 35.7587 54.9907 35.7083 54.3162C35.6974 54.7812 35.61 55.2413 35.4496 55.6779Z" fill="black"/>
<path id="Vector_49" opacity="0.2" d="M38.7714 47.626C38.6959 48.2173 38.6675 48.8137 38.6863 49.4095C38.6905 49.0235 38.7189 48.6382 38.7714 48.2559C39.1209 45.8508 40.807 43.6472 40.6551 41.2598C40.5195 43.409 39.09 45.4338 38.7714 47.626Z" fill="black"/>
</g>
</g>
<defs>
<linearGradient id="paint0_linear" x1="43.2146" y1="109.719" x2="43.2146" y2="-0.00771093" gradientUnits="userSpaceOnUse">
<stop stop-color="#808080" stop-opacity="0.25"/>
<stop offset="0.53514" stop-color="#808080" stop-opacity="0.12"/>
<stop offset="1" stop-color="#808080" stop-opacity="0.1"/>
</linearGradient>
</defs>
</svg>
