<svg width="25" height="12" viewBox="0 0 25 12" fill="none" xmlns="http://www.w3.org/2000/svg">
<path fill-rule="evenodd" clip-rule="evenodd" d="M5.87931 11.5445C4.93198 11.5828 3.99171 11.3663 3.15658 10.9174C2.32145 10.4686 1.62207 9.80386 1.1314 8.9926C0.640721 8.18135 0.376727 7.25328 0.366955 6.30523C0.357184 5.35717 0.601993 4.42386 1.07584 3.60266C1.54969 2.78146 2.23522 2.10246 3.06092 1.63648C3.88662 1.17051 4.82223 0.934642 5.77015 0.953483C6.71807 0.972324 7.64356 1.24518 8.45009 1.7436C9.25662 2.24202 9.91463 2.94772 10.3555 3.78711L21.4528 3.33527L23.8139 5.51166L21.6375 7.87281L20.0634 6.42188L18.6125 7.99598L17.0384 6.54505L15.5875 8.11914L14.0134 6.66821L12.5625 8.24231L10.5402 8.32465C10.1477 9.24741 9.50129 10.0398 8.67623 10.6098C7.85116 11.1798 6.88128 11.5039 5.87931 11.5445ZM4.21283 7.82476C4.61398 7.80843 4.9922 7.63341 5.26431 7.33821C5.53641 7.04301 5.6801 6.65181 5.66377 6.25066C5.64743 5.84952 5.47241 5.4713 5.17721 5.19919C4.88201 4.92709 4.49081 4.7834 4.08967 4.79973C3.68852 4.81607 3.3103 4.99109 3.0382 5.28629C2.76609 5.58149 2.6224 5.97269 2.63874 6.37383C2.65507 6.77497 2.83009 7.1532 3.12529 7.4253C3.42049 7.6974 3.81169 7.84109 4.21283 7.82476Z" fill="#19183F"/>
</svg>
