<svg width="19" height="19" viewBox="0 0 19 19" fill="none" xmlns="http://www.w3.org/2000/svg">
<path d="M13.3329 10.3349C13.4963 10.5628 13.7304 10.7293 13.9954 10.806C14.2604 10.8828 14.5399 10.865 14.7862 10.7557C15.0325 10.6464 15.2304 10.4524 15.3461 10.2067C15.4619 9.96101 15.4883 9.67887 15.421 9.40836C15.3536 9.13785 15.1966 8.8957 14.9767 8.72321C14.7568 8.55071 14.4877 8.45853 14.2151 8.46238C13.9426 8.46622 13.6835 8.56586 13.482 8.7443C13.2806 8.92275 13.1492 9.16896 13.1103 9.44097C13.0863 9.59511 13.0936 9.75382 13.1319 9.90749C13.1701 10.0611 13.2385 10.2066 13.3329 10.3349Z" fill="#00E0B9"/>
<path d="M11.4974 11.9842C11.2524 12.1586 11.0782 12.4163 11.0045 12.7131C10.9307 13.0099 10.9619 13.3275 11.0928 13.6118C11.2237 13.8961 11.4461 14.1294 11.7222 14.2719C11.9982 14.4144 12.3108 14.4573 12.6066 14.3933C12.9023 14.3293 13.163 14.1623 13.344 13.9209C13.5251 13.6795 13.6153 13.3785 13.5994 13.0693C13.5834 12.7602 13.4622 12.462 13.2565 12.2257C13.0508 11.9894 12.7733 11.8295 12.4714 11.7734C12.3008 11.7385 12.1263 11.7392 11.9588 11.7755C11.7913 11.8117 11.6342 11.8828 11.4974 11.9842Z" fill="#00E0B9"/>
<path d="M4.51388 7.3666C4.42241 7.24001 4.29168 7.14775 4.14395 7.10555C3.99622 7.06334 3.84063 7.07379 3.70366 7.13512C3.56669 7.19644 3.45681 7.30486 3.39274 7.44189C3.32866 7.57893 3.31435 7.73613 3.35223 7.88671C3.39011 8.0373 3.47785 8.17197 3.60051 8.26779C3.72317 8.36361 3.87316 8.41466 4.02495 8.41224C4.17674 8.40983 4.32095 8.3541 4.43301 8.25455C4.54508 8.155 4.61808 8.01778 4.63958 7.86625C4.65318 7.78002 4.64904 7.69118 4.62742 7.60523C4.6058 7.51928 4.56715 7.43806 4.51388 7.3666Z" fill="#00E0B9"/>
<path d="M7.23619 14.7098C7.43638 14.988 7.72288 15.191 8.0469 15.2842C8.37092 15.3775 8.71243 15.3552 9.01326 15.2212C9.31409 15.0872 9.55564 14.8497 9.69677 14.5493C9.83791 14.2488 9.8699 13.9039 9.78731 13.5734C9.70471 13.2428 9.51263 12.947 9.24378 12.7363C8.97493 12.5256 8.64593 12.4131 8.31281 12.4179C7.9797 12.4227 7.66306 12.5445 7.41683 12.7626C7.1706 12.9807 7.01 13.2816 6.96238 13.614C6.93253 13.803 6.94142 13.9977 6.9885 14.1862C7.03559 14.3746 7.11988 14.5528 7.23619 14.7098Z" fill="#00E0B9"/>
<path d="M5.20746 4.17054C5.18028 4.35352 5.21704 4.54288 5.31146 4.70631C5.40589 4.86974 5.55212 4.99709 5.72518 5.06662C5.89825 5.13615 6.08742 5.14355 6.2604 5.08755C6.43338 5.03156 6.57944 4.91564 6.67364 4.75959C6.76784 4.60354 6.80435 4.41704 6.77692 4.23193C6.74949 4.04682 6.65982 3.87458 6.52324 3.74461C6.38665 3.61465 6.21161 3.53502 6.02801 3.51933C5.8444 3.50364 5.66362 3.55285 5.51652 3.65857C5.43242 3.71665 5.36162 3.79203 5.30847 3.88007C5.25532 3.96812 5.22094 4.06697 5.20746 4.17054Z" fill="#00E0B9"/>
<path d="M9.13959 4.04724C9.26592 4.22753 9.44846 4.36017 9.65598 4.42248C9.86351 4.48479 10.0831 4.47289 10.2773 4.38882C10.4715 4.30476 10.6281 4.15374 10.7204 3.9616C10.8127 3.76946 10.835 3.54814 10.7834 3.33549C10.7318 3.12284 10.6095 2.93207 10.4375 2.79581C10.2655 2.65955 10.0545 2.58627 9.84046 2.58849C9.62644 2.59071 9.42275 2.6683 9.26424 2.80799C9.10572 2.94768 9.00222 3.14079 8.97145 3.35429C8.95221 3.47348 8.9572 3.59634 8.9861 3.71544C9.015 3.83454 9.06721 3.94742 9.13959 4.04724Z" fill="#00E0B9"/>
<path d="M12.498 6.28567C12.6436 6.4886 12.8523 6.6368 13.0883 6.70502C13.3244 6.77325 13.5734 6.75728 13.7927 6.65983C14.0121 6.56238 14.1883 6.38948 14.2913 6.1706C14.3943 5.95171 14.4178 5.70038 14.3578 5.45942C14.2977 5.21847 14.1578 5.00281 13.9619 4.84917C13.7661 4.69554 13.5263 4.61345 13.2835 4.61688C13.0407 4.62031 12.8099 4.70906 12.6305 4.868C12.451 5.02694 12.334 5.24624 12.2993 5.48853C12.2776 5.62599 12.2841 5.76758 12.3183 5.90464C12.3524 6.04171 12.4136 6.17136 12.498 6.28567Z" fill="#00E0B9"/>
<path d="M3.66736 12.6225C3.8858 12.9236 4.19753 13.1428 4.54953 13.2428C4.90153 13.3428 5.27208 13.3174 5.59815 13.1709C5.92422 13.0245 6.18568 12.766 6.33807 12.4395C6.49046 12.1129 6.52437 11.7385 6.43403 11.3799C6.34369 11.0212 6.13467 10.7005 5.84254 10.4722C5.5504 10.2439 5.19318 10.1222 4.83162 10.1278C4.47006 10.1333 4.12649 10.2658 3.85933 10.5027C3.59217 10.7395 3.41793 11.0661 3.36623 11.427C3.33412 11.6333 3.34426 11.8458 3.39605 12.0514C3.44783 12.257 3.54016 12.4513 3.66736 12.6225Z" fill="#00E0B9"/>
</svg>
