<svg width="18" height="18" viewBox="0 0 18 18" fill="none" xmlns="http://www.w3.org/2000/svg">
<path d="M12.6819 13.7997C10.8112 11.286 7.57703 11.0602 5.84814 13.7997H12.6819Z" fill="#FF4654"/>
<path d="M5.64581 9.03258C6.68515 9.03258 7.5277 8.19003 7.5277 7.15069C7.5277 6.11135 6.68515 5.2688 5.64581 5.2688C4.60647 5.2688 3.76392 6.11135 3.76392 7.15069C3.76392 8.19003 4.60647 9.03258 5.64581 9.03258Z" fill="#FF4654"/>
<path d="M12.4205 9.03258C13.4598 9.03258 14.3024 8.19003 14.3024 7.15069C14.3024 6.11135 13.4598 5.2688 12.4205 5.2688C11.3811 5.2688 10.5386 6.11135 10.5386 7.15069C10.5386 8.19003 11.3811 9.03258 12.4205 9.03258Z" fill="#FF4654"/>
<path d="M9 17.992C7.21997 17.992 5.47991 17.4644 3.99987 16.4759C2.51983 15.4874 1.36629 14.0824 0.6851 12.4386C0.0039103 10.7948 -0.174333 8.98602 0.17293 7.24097C0.5202 5.49592 1.37737 3.89299 2.63604 2.63488C3.89472 1.37676 5.49836 0.519973 7.24418 0.17286C8.99001 -0.174253 10.7996 0.00389683 12.4442 0.684783C14.0887 1.36567 15.4943 2.51871 16.4832 3.9981C17.4722 5.47748 18 7.21676 18 8.99601C17.9973 11.3811 17.0482 13.6677 15.361 15.3542C13.6737 17.0407 11.3861 17.9893 9 17.992ZM9 0.817821C7.38179 0.817821 5.79992 1.29746 4.45443 2.19609C3.10894 3.09472 2.06027 4.37199 1.44101 5.86635C0.82174 7.36072 0.65971 9.00507 0.97541 10.5915C1.29111 12.1779 2.07035 13.6351 3.2146 14.7789C4.35885 15.9226 5.81669 16.7015 7.40381 17.0171C8.99093 17.3326 10.636 17.1707 12.1311 16.5517C13.6261 15.9327 14.9039 14.8845 15.8029 13.5396C16.702 12.1947 17.1818 10.6135 17.1818 8.99601C17.1793 6.82778 16.3165 4.74906 14.7827 3.21589C13.2488 1.68272 11.1692 0.820301 9 0.817821Z" fill="#FF4654"/>
</svg>
