<svg width="1047" height="339" viewBox="0 0 1047 339" fill="none" xmlns="http://www.w3.org/2000/svg">
<g id="TheGirl">
<g id="plant">
<g id="plantShort2">
<path id="Vector" d="M462.037 317.947C461.386 317.96 460.757 318.182 460.242 318.579C458.711 314.536 456.342 311.938 453.681 311.938C451.019 311.938 448.65 314.536 447.12 318.579C446.604 318.182 445.975 317.96 445.325 317.947C442.301 317.947 439.85 323.058 439.85 329.364H467.512C467.512 323.058 465.061 317.947 462.037 317.947Z" fill="#FF4654"/>
<path id="Vector_2" d="M461.137 329.363H422V328.726C422 319.607 425.572 312.463 430.131 312.463C430.881 312.468 431.618 312.659 432.276 313.019C434.561 307.427 437.922 304.239 441.568 304.239C445.215 304.239 448.576 307.427 450.861 313.019C451.519 312.659 452.256 312.468 453.006 312.463C457.565 312.463 461.137 319.607 461.137 328.726V329.363ZM423.282 328.089H459.855C459.697 320.246 456.625 313.737 453.006 313.737C452.25 313.756 451.52 314.017 450.922 314.48L450.247 314.969L449.952 314.19C447.865 308.676 444.809 305.513 441.568 305.513C438.328 305.513 435.272 308.676 433.185 314.19L432.89 314.969L432.215 314.48C431.617 314.017 430.887 313.756 430.131 313.737C426.512 313.737 423.44 320.246 423.282 328.089Z" fill="#7E6786"/>
</g>
<g id="plantShort3_3">
<path id="Vector_3" d="M229.937 317.947C229.286 317.96 228.657 318.182 228.142 318.579C226.611 314.536 224.242 311.938 221.581 311.938C218.919 311.938 216.55 314.536 215.02 318.579C214.504 318.182 213.875 317.96 213.225 317.947C210.201 317.947 207.75 323.058 207.75 329.364H235.412C235.412 323.058 232.961 317.947 229.937 317.947Z" fill="#00E0B9"/>
<path id="Vector_4" d="M234.137 329.363H195V328.726C195 319.607 198.572 312.463 203.131 312.463C203.881 312.468 204.618 312.659 205.276 313.019C207.561 307.427 210.922 304.239 214.568 304.239C218.215 304.239 221.576 307.427 223.861 313.019C224.519 312.659 225.256 312.468 226.006 312.463C230.565 312.463 234.137 319.607 234.137 328.726V329.363ZM196.282 328.089H232.855C232.697 320.246 229.624 313.737 226.006 313.737C225.25 313.756 224.52 314.017 223.922 314.48L223.247 314.969L222.952 314.19C220.864 308.676 217.809 305.513 214.568 305.513C211.328 305.513 208.272 308.676 206.185 314.19L205.89 314.969L205.215 314.48C204.617 314.017 203.887 313.756 203.131 313.737C199.512 313.737 196.44 320.246 196.282 328.089Z" fill="#7E6786"/>
</g>
<g id="plantShort3_3_2">
<path id="Vector_5" d="M146.937 316.947C146.286 316.96 145.657 317.182 145.142 317.579C143.611 313.536 141.242 310.938 138.581 310.938C135.919 310.938 133.55 313.536 132.02 317.579C131.504 317.182 130.875 316.96 130.225 316.947C127.201 316.947 124.75 322.058 124.75 328.364H152.412C152.412 322.058 149.961 316.947 146.937 316.947Z" fill="#00E0B9"/>
<path id="Vector_6" d="M151.137 328.363H112V327.726C112 318.607 115.572 311.463 120.131 311.463C120.881 311.468 121.618 311.659 122.276 312.019C124.561 306.427 127.922 303.239 131.568 303.239C135.215 303.239 138.576 306.427 140.861 312.019C141.519 311.659 142.256 311.468 143.006 311.463C147.565 311.463 151.137 318.607 151.137 327.726V328.363ZM113.282 327.089H149.855C149.697 319.246 146.624 312.737 143.006 312.737C142.25 312.756 141.52 313.017 140.922 313.48L140.247 313.969L139.952 313.19C137.864 307.676 134.809 304.513 131.568 304.513C128.328 304.513 125.272 307.676 123.185 313.19L122.89 313.969L122.215 313.48C121.617 313.017 120.887 312.756 120.131 312.737C116.512 312.737 113.44 319.246 113.282 327.089Z" fill="#7E6786"/>
</g>
<g id="plantShort3_3_3">
<path id="Vector_7" d="M424.937 318.947C424.286 318.96 423.657 319.182 423.142 319.579C421.611 315.536 419.242 312.938 416.581 312.938C413.919 312.938 411.55 315.536 410.02 319.579C409.504 319.182 408.875 318.96 408.225 318.947C405.201 318.947 402.75 324.058 402.75 330.364H430.412C430.412 324.058 427.961 318.947 424.937 318.947Z" fill="#00E0B9"/>
<path id="Vector_8" d="M429.137 330.363H390V329.726C390 320.607 393.572 313.463 398.131 313.463C398.881 313.468 399.618 313.659 400.276 314.019C402.561 308.427 405.922 305.239 409.568 305.239C413.215 305.239 416.576 308.427 418.861 314.019C419.519 313.659 420.256 313.468 421.006 313.463C425.565 313.463 429.137 320.607 429.137 329.726V330.363ZM391.282 329.089H427.855C427.697 321.246 424.624 314.737 421.006 314.737C420.25 314.756 419.52 315.017 418.922 315.48L418.247 315.969L417.952 315.19C415.864 309.676 412.809 306.513 409.568 306.513C406.328 306.513 403.272 309.676 401.185 315.19L400.89 315.969L400.215 315.48C399.617 315.017 398.887 314.756 398.131 314.737C394.512 314.737 391.44 321.246 391.282 329.089Z" fill="#7E6786"/>
</g>
<g id="plantShort3_1">
<path id="Vector_9" d="M81.9371 317.947C81.2864 317.96 80.6572 318.182 80.1416 318.579C78.6113 314.536 76.2423 311.938 73.5808 311.938C70.9194 311.938 68.5504 314.536 67.0201 318.579C66.5045 318.182 65.8752 317.96 65.2246 317.947C62.201 317.947 59.7499 323.058 59.7499 329.363H87.4118C87.4118 323.058 84.9607 317.947 81.9371 317.947Z" fill="#00E0B9"/>
<path id="Vector_10" d="M86.1368 329.363H47V328.726C47 319.607 50.5716 312.463 55.1309 312.463C55.8808 312.468 56.6178 312.659 57.2756 313.019C59.5611 307.427 62.9219 304.239 66.5683 304.239C70.2146 304.239 73.5758 307.427 75.8612 313.019C76.5191 312.659 77.256 312.468 78.0059 312.463C82.5652 312.463 86.1368 319.607 86.1368 328.726V329.363ZM48.2815 328.089H84.8553C84.6966 320.246 81.6245 313.737 78.0059 313.737C77.2498 313.756 76.5196 314.017 75.9222 314.48L75.247 314.969L74.9523 314.19C72.8645 308.676 69.8087 305.513 66.5683 305.513C63.3278 305.513 60.2723 308.676 58.1846 314.19L57.8898 314.969L57.2146 314.48C56.6172 314.017 55.887 313.756 55.1309 313.737C51.5123 313.737 48.4403 320.246 48.2815 328.089Z" fill="#7E6786"/>
</g>
<g id="plantTall">
<path id="Vector_11" d="M1038.88 246.293C1043.1 246.293 1046.52 242.87 1046.52 238.647C1046.52 234.424 1043.1 231 1038.88 231C1034.65 231 1031.23 234.424 1031.23 238.647C1031.23 242.87 1034.65 246.293 1038.88 246.293Z" fill="#D0CDE1"/>
<path id="Vector_12" d="M1019.75 276.243C1026.79 276.243 1032.5 270.537 1032.5 263.498C1032.5 256.46 1026.79 250.754 1019.75 250.754C1012.71 250.754 1007 256.46 1007 263.498C1007 270.537 1012.71 276.243 1019.75 276.243Z" fill="#FF4654"/>
<path id="Vector_13" d="M1023.83 271.145H1022.56V330.406H1023.83V271.145Z" fill="#7E6786"/>
<path id="Vector_14" d="M1023.58 272.419C1020.93 272.419 1018.34 271.634 1016.14 270.164C1013.94 268.694 1012.22 266.604 1011.21 264.159C1010.19 261.713 1009.93 259.023 1010.44 256.427C1010.96 253.831 1012.24 251.447 1014.11 249.575C1015.98 247.704 1018.37 246.429 1020.96 245.913C1023.56 245.397 1026.25 245.662 1028.7 246.675C1031.14 247.687 1033.24 249.403 1034.71 251.603C1036.18 253.804 1036.96 256.391 1036.96 259.038C1036.96 262.585 1035.55 265.987 1033.04 268.495C1030.53 271.004 1027.12 272.415 1023.58 272.419ZM1023.58 246.93C1021.18 246.93 1018.84 247.64 1016.85 248.971C1014.85 250.301 1013.3 252.192 1012.38 254.404C1011.47 256.617 1011.23 259.051 1011.7 261.4C1012.16 263.748 1013.32 265.905 1015.01 267.599C1016.7 269.292 1018.86 270.445 1021.21 270.912C1023.56 271.379 1026 271.14 1028.21 270.223C1030.42 269.307 1032.32 267.755 1033.65 265.764C1034.98 263.773 1035.69 261.432 1035.69 259.038C1035.68 255.828 1034.41 252.75 1032.14 250.481C1029.87 248.211 1026.79 246.934 1023.58 246.93V246.93Z" fill="#7E6786"/>
<path id="Vector_15" d="M1034.41 249.479C1032.77 249.479 1031.17 248.994 1029.81 248.083C1028.45 247.173 1027.38 245.879 1026.76 244.366C1026.13 242.852 1025.96 241.186 1026.28 239.579C1026.6 237.972 1027.39 236.496 1028.55 235.338C1029.71 234.179 1031.19 233.39 1032.8 233.071C1034.4 232.751 1036.07 232.915 1037.58 233.542C1039.1 234.169 1040.39 235.231 1041.3 236.593C1042.21 237.956 1042.7 239.557 1042.7 241.195C1042.7 243.392 1041.82 245.497 1040.27 247.05C1038.72 248.603 1036.61 249.477 1034.41 249.479ZM1034.41 234.186C1033.03 234.186 1031.67 234.597 1030.52 235.367C1029.36 236.138 1028.46 237.232 1027.93 238.513C1027.4 239.794 1027.26 241.203 1027.53 242.563C1027.81 243.923 1028.47 245.172 1029.45 246.152C1030.43 247.132 1031.68 247.8 1033.04 248.07C1034.4 248.341 1035.81 248.202 1037.1 247.671C1038.38 247.141 1039.47 246.242 1040.24 245.09C1041.01 243.937 1041.43 242.582 1041.43 241.195C1041.42 239.337 1040.68 237.555 1039.37 236.241C1038.05 234.927 1036.27 234.188 1034.41 234.186V234.186Z" fill="#7E6786"/>
</g>
<g id="plantTall_2">
<path id="Vector_16" d="M124.762 244.293C128.987 244.293 132.412 240.87 132.412 236.647C132.412 232.424 128.987 229 124.762 229C120.537 229 117.112 232.424 117.112 236.647C117.112 240.87 120.537 244.293 124.762 244.293Z" fill="#D0CDE1"/>
<path id="Vector_17" d="M105.637 274.243C112.679 274.243 118.387 268.537 118.387 261.498C118.387 254.46 112.679 248.754 105.637 248.754C98.5958 248.754 92.8875 254.46 92.8875 261.498C92.8875 268.537 98.5958 274.243 105.637 274.243Z" fill="#FF4654"/>
<path id="Vector_18" d="M109.718 269.145H108.443V328.406H109.718V269.145Z" fill="#7E6786"/>
<path id="Vector_19" d="M109.462 270.419C106.815 270.419 104.226 269.634 102.025 268.164C99.8232 266.694 98.1073 264.604 97.094 262.159C96.0807 259.713 95.8156 257.023 96.3322 254.427C96.8488 251.831 98.1238 249.447 99.9961 247.575C101.868 245.704 104.254 244.429 106.851 243.913C109.448 243.397 112.139 243.662 114.586 244.675C117.032 245.687 119.123 247.403 120.594 249.603C122.065 251.804 122.85 254.391 122.85 257.038C122.846 260.585 121.434 263.987 118.924 266.495C116.415 269.004 113.012 270.415 109.462 270.419ZM109.462 244.93C107.067 244.93 104.725 245.64 102.733 246.971C100.741 248.301 99.1887 250.192 98.272 252.404C97.3552 254.617 97.1154 257.051 97.5827 259.4C98.0501 261.748 99.2037 263.905 100.898 265.599C102.592 267.292 104.75 268.445 107.099 268.912C109.449 269.379 111.884 269.14 114.098 268.223C116.311 267.307 118.203 265.755 119.534 263.764C120.865 261.773 121.575 259.432 121.575 257.038C121.571 253.828 120.294 250.75 118.023 248.481C115.753 246.211 112.674 244.934 109.462 244.93V244.93Z" fill="#7E6786"/>
<path id="Vector_20" d="M120.3 247.479C118.661 247.479 117.059 246.993 115.696 246.083C114.333 245.173 113.271 243.879 112.643 242.365C112.016 240.852 111.852 239.186 112.172 237.579C112.491 235.972 113.281 234.496 114.44 233.338C115.599 232.179 117.075 231.39 118.683 231.071C120.291 230.751 121.957 230.915 123.471 231.542C124.986 232.169 126.28 233.231 127.191 234.593C128.101 235.955 128.587 237.557 128.587 239.195C128.585 241.392 127.711 243.497 126.157 245.05C124.604 246.603 122.497 247.477 120.3 247.479ZM120.3 232.186C118.913 232.186 117.557 232.597 116.404 233.367C115.251 234.138 114.352 235.232 113.821 236.513C113.29 237.794 113.152 239.203 113.422 240.563C113.693 241.923 114.361 243.172 115.341 244.152C116.322 245.132 117.572 245.8 118.932 246.07C120.292 246.341 121.702 246.202 122.984 245.671C124.265 245.141 125.36 244.242 126.131 243.09C126.901 241.937 127.312 240.582 127.312 239.195C127.31 237.337 126.571 235.555 125.256 234.241C123.942 232.927 122.159 232.188 120.3 232.186V232.186Z" fill="#7E6786"/>
</g>
<g id="plantTall_3">
<path id="Vector_21" d="M485.875 246.532C490.1 246.532 493.525 243.108 493.525 238.885C493.525 234.662 490.1 231.239 485.875 231.239C481.65 231.239 478.225 234.662 478.225 238.885C478.225 243.108 481.65 246.532 485.875 246.532Z" fill="#D0CDE1"/>
<path id="Vector_22" d="M466.75 276.481C473.792 276.481 479.5 270.776 479.5 263.737C479.5 256.699 473.792 250.993 466.75 250.993C459.708 250.993 454 256.699 454 263.737C454 270.776 459.708 276.481 466.75 276.481Z" fill="#FF4654"/>
<path id="Vector_23" d="M470.831 271.384H469.556V330.645H470.831V271.384Z" fill="#7E6786"/>
<path id="Vector_24" d="M470.575 272.658C467.927 272.658 465.339 271.873 463.137 270.403C460.936 268.932 459.22 266.842 458.207 264.397C457.193 261.952 456.928 259.262 457.445 256.666C457.961 254.07 459.236 251.686 461.109 249.814C462.981 247.943 465.366 246.668 467.963 246.152C470.56 245.636 473.252 245.901 475.698 246.913C478.144 247.926 480.235 249.641 481.706 251.842C483.177 254.043 483.963 256.63 483.963 259.276C483.958 262.824 482.547 266.225 480.037 268.734C477.527 271.243 474.124 272.654 470.575 272.658ZM470.575 247.169C468.179 247.169 465.838 247.879 463.846 249.21C461.854 250.54 460.301 252.431 459.385 254.643C458.468 256.855 458.228 259.29 458.695 261.638C459.163 263.987 460.316 266.144 462.01 267.837C463.704 269.531 465.862 270.684 468.212 271.151C470.562 271.618 472.997 271.378 475.21 270.462C477.424 269.546 479.315 267.994 480.646 266.003C481.977 264.012 482.688 261.671 482.688 259.276C482.684 256.066 481.407 252.989 479.136 250.719C476.865 248.45 473.786 247.173 470.575 247.169V247.169Z" fill="#7E6786"/>
<path id="Vector_25" d="M481.412 249.718C479.773 249.718 478.171 249.232 476.808 248.322C475.445 247.412 474.383 246.118 473.756 244.604C473.129 243.091 472.964 241.425 473.284 239.818C473.604 238.211 474.393 236.735 475.552 235.577C476.711 234.418 478.188 233.629 479.796 233.31C481.403 232.99 483.07 233.154 484.584 233.781C486.098 234.408 487.393 235.47 488.303 236.832C489.214 238.194 489.7 239.796 489.7 241.434C489.697 243.63 488.824 245.736 487.27 247.289C485.716 248.842 483.61 249.716 481.412 249.718ZM481.412 234.425C480.026 234.425 478.67 234.836 477.517 235.606C476.363 236.376 475.465 237.471 474.934 238.752C474.403 240.033 474.264 241.442 474.535 242.802C474.805 244.161 475.473 245.41 476.454 246.391C477.435 247.371 478.684 248.038 480.044 248.309C481.405 248.579 482.815 248.441 484.096 247.91C485.377 247.379 486.473 246.481 487.243 245.328C488.014 244.176 488.425 242.821 488.425 241.434C488.423 239.576 487.683 237.794 486.369 236.48C485.054 235.166 483.272 234.427 481.412 234.425V234.425Z" fill="#7E6786"/>
</g>
<path id="ground" d="M1043 328.239H0V329.239H1043V328.239Z" fill="#7E6786"/>
<g id="plantShort3_2">
<path id="Vector_26" d="M1020.94 318.947C1020.29 318.96 1019.66 319.182 1019.14 319.579C1017.61 315.536 1015.24 312.938 1012.58 312.938C1009.92 312.938 1007.55 315.536 1006.02 319.579C1005.5 319.182 1004.88 318.96 1004.22 318.947C1001.2 318.947 998.75 324.058 998.75 330.363H1026.41C1026.41 324.058 1023.96 318.947 1020.94 318.947Z" fill="#00E0B9"/>
<path id="Vector_27" d="M1025.14 330.363H986V329.726C986 320.607 989.572 313.463 994.131 313.463C994.881 313.468 995.618 313.659 996.276 314.019C998.561 308.427 1001.92 305.239 1005.57 305.239C1009.21 305.239 1012.58 308.427 1014.86 314.019C1015.52 313.659 1016.26 313.468 1017.01 313.463C1021.57 313.463 1025.14 320.607 1025.14 329.726V330.363ZM987.282 329.089H1023.86C1023.7 321.246 1020.62 314.737 1017.01 314.737C1016.25 314.756 1015.52 315.017 1014.92 315.48L1014.25 315.969L1013.95 315.19C1011.86 309.676 1008.81 306.513 1005.57 306.513C1002.33 306.513 999.272 309.676 997.185 315.19L996.89 315.969L996.215 315.48C995.617 315.017 994.887 314.756 994.131 314.737C990.512 314.737 987.44 321.246 987.282 329.089Z" fill="#7E6786"/>
</g>
</g>
<g id="girl">
<g id="lowerBody">
<g id="leg2">
<path id="Vector_28" d="M338.896 296.159L339.607 307.353L350.984 305.399L350.272 294.56L338.896 296.159Z" fill="#FFB8B8"/>
<path id="Vector_29" d="M337.297 194.706L345.296 248.719C345.296 248.719 349.562 269.508 349.917 277.503C350.273 285.499 351.695 295.804 351.695 295.804L337.297 298.114L323.076 228.464L337.297 194.706Z" fill="#1F1E2D"/>
<path id="Vector_30" d="M353.117 299.713L341.74 300.423C341.74 300.423 337.505 295.626 337.756 298.114C338.007 300.601 335.341 311.084 335.341 311.084L326.453 320.323C326.453 320.323 308.856 320.323 311.522 328.852C314.188 337.38 334.986 330.273 334.986 330.273L342.985 327.608V331.162C342.985 331.162 356.672 333.116 357.027 329.562C357.383 326.009 357.027 321.567 356.494 321.212C355.961 320.856 353.117 299.713 353.117 299.713Z" fill="#1F1E2D"/>
</g>
<g id="leg1">
<path id="Vector_31" d="M288.236 302.388L286.103 309.495L298.723 311.805L300.501 305.231L288.236 302.388Z" fill="#FFB8B8"/>
<path id="Vector_32" d="M340.052 145.41L341.207 153.317C341.207 153.317 355.783 182.278 339.963 196.493L318.632 249.085C318.632 249.085 316.321 276.447 309.566 286.042L303.345 307.896L284.858 303.099L299.79 255.659C299.79 255.659 299.612 235.759 301.745 231.317L311.166 189.03L312.855 143.811C312.855 143.811 337.741 142.034 340.052 145.41Z" fill="#1F1E2D"/>
<path id="Vector_33" d="M300.54 308.483C300.54 308.483 292.408 307.833 291.269 306.858C290.131 305.882 288.342 301.818 285.902 304.419C283.463 307.02 274.68 315.473 274.68 315.473L266.223 319.538C266.223 319.538 255.164 316.611 251.423 323.439C247.683 330.267 269.801 337.42 275.494 335.144L282.65 333.681L282.324 337.094C282.324 337.094 292.408 339.37 293.871 336.444C295.335 333.518 296.474 330.104 295.823 329.129C295.173 328.153 300.54 308.483 300.54 308.483Z" fill="#1F1E2D"/>
</g>
</g>
<g id="upperBody">
<path id="Vector_34" d="M326.631 86.5102C334.681 86.5102 341.207 79.9872 341.207 71.9406C341.207 63.8941 334.681 57.3711 326.631 57.3711C318.581 57.3711 312.055 63.8941 312.055 71.9406C312.055 79.9872 318.581 86.5102 326.631 86.5102Z" fill="#FFB8B8"/>
<path id="Vector_35" d="M327.52 82.2459C327.52 82.2459 334.63 93.4396 332.852 96.6378C331.075 99.836 325.564 108.542 325.564 108.542C325.564 108.542 350.095 90.4191 346.895 86.5102C346.895 86.5102 339.607 80.2915 339.252 76.3826L327.52 82.2459Z" fill="#FFB8B8"/>
<path id="Vector_36" d="M360.582 104.633L347.99 132.481L342.522 144.57L340.496 149.053L311.166 148.697L314.188 128.265C309.922 117.249 320.054 112.807 320.054 112.807L328.586 103.718V105.166C328.586 105.166 336.941 95.2165 340.674 89.5309C344.406 83.8452 349.561 85.9773 349.561 85.9773C358.449 85.0889 360.582 104.633 360.582 104.633Z" fill="#575A89"/>
<path id="Vector_37" opacity="0.2" d="M347.99 132.481L342.522 144.57C340.766 141.286 339.429 137.568 339.429 135.371C339.429 129.33 345.473 132.529 345.473 132.529C345.473 132.529 340.585 105.788 340.585 97.7927C340.585 92.482 345.014 116.051 347.99 132.481Z" fill="black"/>
<path id="Vector_38" d="M343.162 134.483L316.677 133.95C316.677 133.95 297.301 135.549 300.145 143.367C302.989 151.185 318.454 143.367 318.454 143.367L349.384 148.164L343.162 134.483Z" fill="#FFB8B8"/>
<path id="Vector_39" d="M348.139 87.3985C348.139 87.3985 338.896 88.1092 338.896 96.1047C338.896 104.1 347.251 132.529 347.251 132.529C347.251 132.529 341.207 129.33 341.207 135.371C341.207 141.412 351.339 159.002 352.406 147.276C352.406 147.276 367.693 154.738 366.804 140.702C365.915 126.665 356.316 96.9931 356.316 96.9931C356.316 96.9931 355.25 86.8655 348.139 87.3985Z" fill="#575A89"/>
<path id="Vector_40" d="M327.116 70.3559C326.095 69.3685 326.114 67.7032 325.291 66.5457C323.999 64.7281 321.31 64.8499 319.102 65.1637C317.624 65.3089 316.172 65.6461 314.782 66.167C314.172 66.4177 313.629 66.8066 313.196 67.3029C312.762 67.7993 312.45 68.3895 312.283 69.0271C312.11 69.7432 311.729 67.7116 311.341 65.0803C310.943 62.3956 311.408 59.6539 312.67 57.2505C313.931 54.847 315.923 52.9058 318.358 51.7065C318.387 51.6923 318.416 51.6783 318.445 51.6644C320.942 50.4511 323.559 49.3796 326.32 49.0785C329.081 48.7774 332.027 49.3226 334.192 51.0608C335.182 51.8553 335.987 52.8752 337.048 53.5716C338.912 54.7952 341.272 54.8545 343.488 55.1124C346.009 55.3305 348.456 56.0808 350.666 57.3138C352.888 58.57 354.525 60.6509 355.222 63.1054C355.924 65.9614 354.779 69.3375 351.97 70.5768C351.479 70.7831 351.044 71.1022 350.7 71.5081C348.393 74.3267 352.117 75.869 352.657 78.3225C353.108 80.3697 351.138 82.2233 349.118 82.787C347.217 83.2593 345.211 83.056 343.444 82.2119C341.676 81.3678 340.258 79.9356 339.431 78.1606C338.738 76.5546 338.58 74.778 338.392 73.0392C338.176 71.0489 332.953 67.4439 336.479 70.1556C337.163 70.6678 337.702 71.3492 338.043 72.1328C339.116 74.6993 336.89 76.156 335.696 77.9884C335.046 79.019 334.698 80.211 334.691 81.4293C334.685 82.6475 335.02 83.8432 335.659 84.8807C334.131 84.0255 332.95 82.6641 332.319 81.0313C331.688 79.3985 331.647 77.5967 332.203 75.937C332.523 75.0662 333.009 74.2612 333.3 73.3802C333.753 72.0054 333.352 69.3339 331.322 69.8755C329.873 70.2621 328.635 71.8258 327.116 70.3559Z" fill="#1F1E2D"/>
<g id="phone">
<path id="Vector_41" d="M293.512 134.346C293.614 134.184 293.347 133.831 292.916 133.558C292.484 133.285 292.052 133.195 291.949 133.357C291.847 133.518 292.113 133.871 292.545 134.144C292.976 134.417 293.409 134.507 293.512 134.346Z" fill="#7E6786"/>
<path id="Vector_42" d="M291.997 131.336C292.226 130.974 292.591 130.717 293.009 130.623C293.428 130.529 293.867 130.605 294.23 130.835L314.737 143.815C315.1 144.045 315.356 144.409 315.45 144.828C315.544 145.246 315.468 145.685 315.238 146.047V146.047L291.997 131.336Z" fill="#00E0B9"/>
<path id="Vector_43" d="M290.058 132.023L290.703 131.005C290.86 130.757 291.109 130.582 291.395 130.517C291.681 130.453 291.981 130.505 292.229 130.662L315.578 145.442C315.872 145.627 316.079 145.922 316.155 146.261C316.231 146.599 316.17 146.955 315.984 147.248L315.448 148.094L290.058 132.023Z" fill="#7E6786"/>
<path id="Vector_44" d="M293.534 132.582L293.287 132.973L294.849 133.962L295.097 133.571L293.534 132.582Z" fill="#D0CDE1"/>
<path id="Vector_45" d="M295.683 133.942L295.435 134.333L296.998 135.322L297.245 134.931L295.683 133.942Z" fill="#D0CDE1"/>
</g>
</g>
</g>
<g id="chatbox">
<g id="outerChatBox" filter="url(#filter0_d)">
<path d="M261.736 143.548L242.188 124.42H153.486V69.5557H269.786V124.42H261.548L261.736 143.548ZM154.573 123.334H242.631L260.624 140.939L260.451 123.334H268.699V70.6421H154.573V123.334Z" fill="#00E0B9"/>
</g>
<g id="emo1" filter="url(#filter1_d)">
<path d="M180.18 109.815L170.514 100.153C169.213 98.8531 168.468 97.0996 168.433 95.2612C168.399 93.4228 169.08 91.6429 170.332 90.2956C171.583 88.9484 173.309 88.1387 175.146 88.037C176.982 87.9353 178.787 88.5494 180.18 89.7501C181.573 88.5495 183.378 87.9355 185.214 88.0373C187.051 88.1391 188.777 88.9487 190.028 90.2959C191.28 91.6431 191.961 93.4229 191.927 95.2612C191.893 97.0995 191.147 98.8531 189.846 100.153L180.18 109.815ZM175.539 89.1157C174.349 89.1149 173.184 89.4672 172.194 90.1281C171.204 90.7889 170.432 91.7285 169.976 92.828C169.521 93.9275 169.402 95.1374 169.634 96.3046C169.867 97.4719 170.44 98.5439 171.283 99.385L180.18 108.279L189.078 99.385C190.206 98.2564 190.84 96.7261 190.839 95.1307C190.839 93.5353 190.205 92.0053 189.076 90.8771C187.947 89.749 186.417 89.115 184.821 89.1147C183.224 89.1143 181.693 89.7476 180.564 90.8753L180.18 91.2593L179.796 90.8753C179.237 90.3162 178.574 89.873 177.843 89.571C177.113 89.2691 176.33 89.1143 175.539 89.1157V89.1157Z" fill="#00E0B9"/>
</g>
<g id="emo3" >
<g id="Vector_46" filter="url(#filter3_d)">
<path d="M238.809 110.84C236.444 110.84 234.133 110.139 232.167 108.826C230.2 107.513 228.668 105.646 227.763 103.463C226.858 101.279 226.621 98.876 227.083 96.5578C227.544 94.2395 228.683 92.1101 230.355 90.4388C232.027 88.7674 234.157 87.6292 236.476 87.1681C238.796 86.707 241.2 86.9437 243.384 87.8482C245.569 88.7527 247.436 90.2845 248.75 92.2498C250.064 94.215 250.765 96.5256 250.765 98.8892C250.761 102.058 249.501 105.095 247.259 107.336C245.018 109.576 241.979 110.836 238.809 110.84V110.84ZM238.809 88.0249C236.659 88.0249 234.558 88.6621 232.77 89.8559C230.983 91.0497 229.59 92.7464 228.767 94.7316C227.945 96.7168 227.729 98.9013 228.149 101.009C228.568 103.116 229.603 105.052 231.123 106.571C232.643 108.091 234.58 109.126 236.688 109.545C238.797 109.964 240.982 109.749 242.968 108.927C244.954 108.104 246.652 106.712 247.846 104.925C249.041 103.139 249.678 101.038 249.678 98.8892C249.675 96.0088 248.529 93.2474 246.491 91.2106C244.453 89.1739 241.691 88.0282 238.809 88.0249V88.0249Z" fill="#00E0B9"/>
</g>
<g id="Vector_47" filter="url(#filter4_d)">
<path d="M243.7 97.8028C245.201 97.8028 246.417 96.5867 246.417 95.0867C246.417 93.5866 245.201 92.3706 243.7 92.3706C242.199 92.3706 240.983 93.5866 240.983 95.0867C240.983 96.5867 242.199 97.8028 243.7 97.8028Z" fill="#FF4654"/>
</g>
<g id="Vector_48" filter="url(#filter5_d)">
<path d="M234.461 97.8028C235.962 97.8028 237.178 96.5867 237.178 95.0867C237.178 93.5866 235.962 92.3706 234.461 92.3706C232.96 92.3706 231.744 93.5866 231.744 95.0867C231.744 96.5867 232.96 97.8028 234.461 97.8028Z" fill="#FF4654"/>
</g>
<g id="Vector_49" filter="url(#filter6_d)">
<path d="M235.422 101.062C234.313 108.729 243.112 110.285 242.231 101.062C242.283 101.056 235.776 101.067 235.422 101.062Z" fill="#FF4654"/>
</g>
</g>
<g id="emo2">
<g id="Vector_50" filter="url(#filter7_d)">
<path d="M213.874 94.0077C213.727 93.8601 213.552 93.743 213.359 93.6631C213.166 93.5832 212.96 93.5421 212.751 93.542C212.543 93.5419 212.336 93.583 212.143 93.6627C211.95 93.7425 211.775 93.8594 211.628 94.0069C211.48 94.1544 211.363 94.3294 211.283 94.5221C211.204 94.7148 211.163 94.9213 211.163 95.1299C211.163 95.3384 211.204 95.5449 211.284 95.7375C211.364 95.9302 211.481 96.1051 211.629 96.2525L213.874 98.4973L216.12 96.2525C216.268 96.1051 216.385 95.9302 216.465 95.7375C216.545 95.5449 216.586 95.3384 216.586 95.1299C216.586 94.9213 216.545 94.7148 216.465 94.5221C216.385 94.3294 216.268 94.1544 216.121 94.0069C215.973 93.8594 215.798 93.7425 215.605 93.6627C215.413 93.583 215.206 93.5419 214.997 93.542C214.789 93.5421 214.582 93.5832 214.39 93.6631C214.197 93.743 214.022 93.8601 213.874 94.0077V94.0077Z" fill="#FF4654"/>
</g>
<g id="Vector_51" filter="url(#filter8_d)">
<path d="M204.636 94.0077C204.488 93.8601 204.313 93.743 204.12 93.6631C203.928 93.5832 203.721 93.5421 203.513 93.542C203.304 93.5419 203.097 93.583 202.905 93.6627C202.712 93.7425 202.537 93.8594 202.389 94.0069C202.242 94.1544 202.125 94.3294 202.045 94.5221C201.965 94.7148 201.924 94.9213 201.924 95.1299C201.924 95.3384 201.965 95.5449 202.045 95.7375C202.125 95.9302 202.242 96.1051 202.39 96.2525L204.636 98.4973L206.881 96.2525C207.029 96.1051 207.146 95.9302 207.226 95.7375C207.306 95.5449 207.347 95.3384 207.347 95.1299C207.347 94.9213 207.306 94.7148 207.227 94.5221C207.147 94.3294 207.03 94.1544 206.882 94.0069C206.735 93.8594 206.56 93.7425 206.367 93.6627C206.174 93.583 205.967 93.5419 205.759 93.542C205.55 93.5421 205.344 93.5832 205.151 93.6631C204.958 93.743 204.783 93.8601 204.636 94.0077Z" fill="#FF4654"/>
</g>
<g id="Vector_52" filter="url(#filter9_d)">
<path d="M209.462 110.84C207.098 110.84 204.786 110.139 202.82 108.826C200.854 107.513 199.321 105.646 198.416 103.463C197.511 101.279 197.275 98.876 197.736 96.5578C198.197 94.2395 199.336 92.1101 201.008 90.4388C202.68 88.7674 204.811 87.6292 207.13 87.1681C209.449 86.707 211.853 86.9437 214.038 87.8482C216.222 88.7527 218.09 90.2845 219.403 92.2498C220.717 94.215 221.418 96.5256 221.418 98.8892C221.415 102.058 220.154 105.095 217.913 107.336C215.671 109.576 212.632 110.836 209.462 110.84V110.84ZM209.462 88.0249C207.313 88.0249 205.211 88.6621 203.424 89.8559C201.636 91.0497 200.243 92.7464 199.421 94.7316C198.598 96.7168 198.383 98.9013 198.802 101.009C199.221 103.116 200.257 105.052 201.777 106.571C203.297 108.091 205.233 109.126 207.342 109.545C209.45 109.964 211.636 109.749 213.622 108.927C215.608 108.104 217.305 106.712 218.5 104.925C219.694 103.139 220.331 101.038 220.331 98.8892C220.328 96.0088 219.182 93.2474 217.144 91.2106C215.107 89.1739 212.344 88.0282 209.462 88.0249V88.0249Z" fill="#00E0B9"/>
</g>
<g id="Vector_53" filter="url(#filter10_d)">
<path d="M205.275 102.653C207.76 105.993 212.057 106.293 214.353 102.653H205.275Z" fill="#FF4654"/>
</g>
</g>
<g id="chatUnderLine" filter="url(#filter11_d)">
<path d="M288.392 143.03H230.243V144.117H288.392V143.03Z" fill="#7E6786"/>
</g>
</g>
</g>
<defs>
<filter id="filter0_d" x="153.486" y="69.5557" width="126.3" height="83.9919" filterUnits="userSpaceOnUse" color-interpolation-filters="sRGB">
<feFlood flood-opacity="0" result="BackgroundImageFix"/>
<feColorMatrix in="SourceAlpha" type="matrix" values="0 0 0 0 0 0 0 0 0 0 0 0 0 0 0 0 0 0 127 0"/>
<feOffset dx="5" dy="5"/>
<feGaussianBlur stdDeviation="2.5"/>
<feColorMatrix type="matrix" values="0 0 0 0 0 0 0 0 0 0 0 0 0 0 0 0 0 0 0.7 0"/>
<feBlend mode="normal" in2="BackgroundImageFix" result="effect1_dropShadow"/>
<feBlend mode="normal" in="SourceGraphic" in2="effect1_dropShadow" result="shape"/>
</filter>
<filter id="filter1_d" x="168.432" y="88.0261" width="33.4956" height="31.7888" filterUnits="userSpaceOnUse" color-interpolation-filters="sRGB">
<feFlood flood-opacity="0" result="BackgroundImageFix"/>
<feColorMatrix in="SourceAlpha" type="matrix" values="0 0 0 0 0 0 0 0 0 0 0 0 0 0 0 0 0 0 127 0"/>
<feOffset dx="5" dy="5"/>
<feGaussianBlur stdDeviation="2.5"/>
<feColorMatrix type="matrix" values="0 0 0 0 0 0 0 0 0 0 0 0 0 0 0 0 0 0 0.7 0"/>
<feBlend mode="normal" in2="BackgroundImageFix" result="effect1_dropShadow"/>
<feBlend mode="normal" in="SourceGraphic" in2="effect1_dropShadow" result="shape"/>
</filter>
<filter id="filter2_d" x="226.853" y="86.9385" width="32.9121" height="32.9015" filterUnits="userSpaceOnUse" color-interpolation-filters="sRGB">
<feFlood flood-opacity="0" result="BackgroundImageFix"/>
<feColorMatrix in="SourceAlpha" type="matrix" values="0 0 0 0 0 0 0 0 0 0 0 0 0 0 0 0 0 0 127 0"/>
<feOffset dx="5" dy="5"/>
<feGaussianBlur stdDeviation="2"/>
<feColorMatrix type="matrix" values="0 0 0 0 0 0 0 0 0 0 0 0 0 0 0 0 0 0 0.25 0"/>
<feBlend mode="normal" in2="BackgroundImageFix" result="effect1_dropShadow"/>
<feBlend mode="normal" in="SourceGraphic" in2="effect1_dropShadow" result="shape"/>
</filter>
<filter id="filter3_d" x="226.853" y="86.9385" width="33.9121" height="33.9015" filterUnits="userSpaceOnUse" color-interpolation-filters="sRGB">
<feFlood flood-opacity="0" result="BackgroundImageFix"/>
<feColorMatrix in="SourceAlpha" type="matrix" values="0 0 0 0 0 0 0 0 0 0 0 0 0 0 0 0 0 0 127 0"/>
<feOffset dx="5" dy="5"/>
<feGaussianBlur stdDeviation="2.5"/>
<feColorMatrix type="matrix" values="0 0 0 0 0 0 0 0 0 0 0 0 0 0 0 0 0 0 0.7 0"/>
<feBlend mode="normal" in2="BackgroundImageFix" result="effect1_dropShadow"/>
<feBlend mode="normal" in="SourceGraphic" in2="effect1_dropShadow" result="shape"/>
</filter>
<filter id="filter4_d" x="240.983" y="92.3706" width="15.4346" height="15.4321" filterUnits="userSpaceOnUse" color-interpolation-filters="sRGB">
<feFlood flood-opacity="0" result="BackgroundImageFix"/>
<feColorMatrix in="SourceAlpha" type="matrix" values="0 0 0 0 0 0 0 0 0 0 0 0 0 0 0 0 0 0 127 0"/>
<feOffset dx="5" dy="5"/>
<feGaussianBlur stdDeviation="2.5"/>
<feColorMatrix type="matrix" values="0 0 0 0 0 0 0 0 0 0 0 0 0 0 0 0 0 0 0.7 0"/>
<feBlend mode="normal" in2="BackgroundImageFix" result="effect1_dropShadow"/>
<feBlend mode="normal" in="SourceGraphic" in2="effect1_dropShadow" result="shape"/>
</filter>
<filter id="filter5_d" x="231.744" y="92.3706" width="15.4346" height="15.4321" filterUnits="userSpaceOnUse" color-interpolation-filters="sRGB">
<feFlood flood-opacity="0" result="BackgroundImageFix"/>
<feColorMatrix in="SourceAlpha" type="matrix" values="0 0 0 0 0 0 0 0 0 0 0 0 0 0 0 0 0 0 127 0"/>
<feOffset dx="5" dy="5"/>
<feGaussianBlur stdDeviation="2.5"/>
<feColorMatrix type="matrix" values="0 0 0 0 0 0 0 0 0 0 0 0 0 0 0 0 0 0 0.7 0"/>
<feBlend mode="normal" in2="BackgroundImageFix" result="effect1_dropShadow"/>
<feBlend mode="normal" in="SourceGraphic" in2="effect1_dropShadow" result="shape"/>
</filter>
<filter id="filter6_d" x="235.325" y="101.06" width="16.9684" height="16.3493" filterUnits="userSpaceOnUse" color-interpolation-filters="sRGB">
<feFlood flood-opacity="0" result="BackgroundImageFix"/>
<feColorMatrix in="SourceAlpha" type="matrix" values="0 0 0 0 0 0 0 0 0 0 0 0 0 0 0 0 0 0 127 0"/>
<feOffset dx="5" dy="5"/>
<feGaussianBlur stdDeviation="2.5"/>
<feColorMatrix type="matrix" values="0 0 0 0 0 0 0 0 0 0 0 0 0 0 0 0 0 0 0.7 0"/>
<feBlend mode="normal" in2="BackgroundImageFix" result="effect1_dropShadow"/>
<feBlend mode="normal" in="SourceGraphic" in2="effect1_dropShadow" result="shape"/>
</filter>
<filter id="filter7_d" x="210.163" y="93.542" width="15.4234" height="14.9553" filterUnits="userSpaceOnUse" color-interpolation-filters="sRGB">
<feFlood flood-opacity="0" result="BackgroundImageFix"/>
<feColorMatrix in="SourceAlpha" type="matrix" values="0 0 0 0 0 0 0 0 0 0 0 0 0 0 0 0 0 0 127 0"/>
<feOffset dx="4" dy="5"/>
<feGaussianBlur stdDeviation="2.5"/>
<feColorMatrix type="matrix" values="0 0 0 0 0 0 0 0 0 0 0 0 0 0 0 0 0 0 0.7 0"/>
<feBlend mode="normal" in2="BackgroundImageFix" result="effect1_dropShadow"/>
<feBlend mode="normal" in="SourceGraphic" in2="effect1_dropShadow" result="shape"/>
</filter>
<filter id="filter8_d" x="200.924" y="93.542" width="15.4234" height="14.9553" filterUnits="userSpaceOnUse" color-interpolation-filters="sRGB">
<feFlood flood-opacity="0" result="BackgroundImageFix"/>
<feColorMatrix in="SourceAlpha" type="matrix" values="0 0 0 0 0 0 0 0 0 0 0 0 0 0 0 0 0 0 127 0"/>
<feOffset dx="4" dy="5"/>
<feGaussianBlur stdDeviation="2.5"/>
<feColorMatrix type="matrix" values="0 0 0 0 0 0 0 0 0 0 0 0 0 0 0 0 0 0 0.7 0"/>
<feBlend mode="normal" in2="BackgroundImageFix" result="effect1_dropShadow"/>
<feBlend mode="normal" in="SourceGraphic" in2="effect1_dropShadow" result="shape"/>
</filter>
<filter id="filter9_d" x="196.506" y="86.9385" width="33.9121" height="33.9015" filterUnits="userSpaceOnUse" color-interpolation-filters="sRGB">
<feFlood flood-opacity="0" result="BackgroundImageFix"/>
<feColorMatrix in="SourceAlpha" type="matrix" values="0 0 0 0 0 0 0 0 0 0 0 0 0 0 0 0 0 0 127 0"/>
<feOffset dx="4" dy="5"/>
<feGaussianBlur stdDeviation="2.5"/>
<feColorMatrix type="matrix" values="0 0 0 0 0 0 0 0 0 0 0 0 0 0 0 0 0 0 0.7 0"/>
<feBlend mode="normal" in2="BackgroundImageFix" result="effect1_dropShadow"/>
<feBlend mode="normal" in="SourceGraphic" in2="effect1_dropShadow" result="shape"/>
</filter>
<filter id="filter10_d" x="204.275" y="102.653" width="19.0783" height="12.6182" filterUnits="userSpaceOnUse" color-interpolation-filters="sRGB">
<feFlood flood-opacity="0" result="BackgroundImageFix"/>
<feColorMatrix in="SourceAlpha" type="matrix" values="0 0 0 0 0 0 0 0 0 0 0 0 0 0 0 0 0 0 127 0"/>
<feOffset dx="4" dy="5"/>
<feGaussianBlur stdDeviation="2.5"/>
<feColorMatrix type="matrix" values="0 0 0 0 0 0 0 0 0 0 0 0 0 0 0 0 0 0 0.7 0"/>
<feBlend mode="normal" in2="BackgroundImageFix" result="effect1_dropShadow"/>
<feBlend mode="normal" in="SourceGraphic" in2="effect1_dropShadow" result="shape"/>
</filter>
<filter id="filter11_d" x="230.243" y="143.03" width="68.1498" height="11.0864" filterUnits="userSpaceOnUse" color-interpolation-filters="sRGB">
<feFlood flood-opacity="0" result="BackgroundImageFix"/>
<feColorMatrix in="SourceAlpha" type="matrix" values="0 0 0 0 0 0 0 0 0 0 0 0 0 0 0 0 0 0 127 0"/>
<feOffset dx="5" dy="5"/>
<feGaussianBlur stdDeviation="2.5"/>
<feColorMatrix type="matrix" values="0 0 0 0 0 0 0 0 0 0 0 0 0 0 0 0 0 0 0.7 0"/>
<feBlend mode="normal" in2="BackgroundImageFix" result="effect1_dropShadow"/>
<feBlend mode="normal" in="SourceGraphic" in2="effect1_dropShadow" result="shape"/>
</filter>
</defs>
</svg>
