<svg width="114" height="145" viewBox="0 0 114 145" fill="none" xmlns="http://www.w3.org/2000/svg">
<g id="girlSit">
<path id="Vector" d="M99.1172 102.202C99.1172 102.202 90.2556 104.346 86.7479 108.354C85.4351 109.713 83.8183 110.74 82.0308 111.352V105.29C84.0568 101.886 86.1018 98.0996 86.1018 98.0996C86.1941 97.9132 86.9326 95.3029 86.9326 95.3029C88.5941 93.9978 86.8402 89.4298 86.8402 89.4298C86.8402 89.4298 87.8556 86.5398 87.3018 85.9805C86.7479 85.4211 87.2095 83.9295 87.671 83.277C88.0072 82.6494 88.1365 81.9315 88.0402 81.2261C88.0402 80.6667 87.3018 79.8277 86.1018 79.3616C84.9018 78.8955 86.1941 78.1496 86.9326 77.9632C87.671 77.7767 87.8556 76.0055 87.0249 75.0732C86.1941 74.141 87.1172 73.5816 87.5787 72.5562C88.0402 71.5307 86.1018 71.7172 86.1018 71.7172V62.3032L86.1027 62.3025C86.1027 62.3025 85.5489 59.226 84.995 53.8172C84.4412 48.4111 82.3171 47.8517 82.3171 47.8517C81.1788 47.4989 80.068 47.0624 78.9941 46.5457C77.8623 46.0156 76.6888 45.5797 75.4855 45.2424C73.9576 45.2265 72.438 45.016 70.9633 44.6159C69.9629 44.2762 68.9269 44.052 67.8756 43.9475C67.7621 43.8943 67.654 43.8384 67.5433 43.7825C65.0442 42.5137 63.0638 40.4158 61.9411 37.8478C61.8842 37.7197 61.832 37.5933 61.7807 37.4673C62.3324 36.862 62.8265 36.2067 63.2565 35.5097L63.266 35.4938C63.267 35.589 63.2701 35.6842 63.2701 35.7793C63.2702 35.8193 63.2688 35.8591 63.2687 35.8991C63.2678 36.129 63.2655 36.3588 63.2592 36.5881L63.2605 36.5861L63.2603 36.6064C64.7341 34.0049 69.0041 33.4109 69.4107 30.442C69.4286 30.307 69.4375 30.171 69.4376 30.0349L69.4381 30.0164C69.4381 29.9163 69.4334 29.8162 69.4261 29.7162C69.3709 28.8874 69.0873 28.0618 69.0319 27.2236C69.0181 26.984 69.022 26.7436 69.0437 26.5046L69.0451 26.518C69.236 24.2115 70.9752 22.2065 71.7716 19.9665C71.9839 19.3638 72.1234 18.738 72.1872 18.1022L72.1892 18.0853C72.2087 17.893 72.2217 17.7002 72.2283 17.5069C72.23 17.4589 72.2301 17.411 72.231 17.363C72.2332 17.2288 72.2324 17.0946 72.2285 16.9603C72.2039 15.7692 71.9355 14.5958 71.4399 13.5123C70.9444 12.4289 70.2321 11.4584 69.3471 10.6608C67.8756 9.38162 65.9306 8.57797 64.912 6.90862C64.4367 6.12977 64.2027 5.21459 63.6849 4.46394C62.7095 3.05 60.9149 2.47396 59.2206 2.2695C57.5263 2.06505 55.7793 2.13358 54.1567 1.60043C53.007 1.22267 51.9633 0.554899 50.8011 0.218317C49.5349 -0.120535 48.1954 -0.063843 46.9624 0.380767C45.7293 0.825377 44.6619 1.63662 43.9033 2.70556C43.2907 3.59898 42.8897 4.66914 42.0644 5.36651C40.373 6.79572 37.5032 6.17543 36.021 7.82463C35.2071 8.73022 35.1136 9.9641 35.2125 11.2266L35.2159 11.2708C35.2239 11.3686 35.2329 11.4665 35.2429 11.5644C35.2474 11.6099 35.2519 11.6554 35.2568 11.701C35.2622 11.7497 35.2678 11.7983 35.2735 11.847C35.3258 12.2992 35.3913 12.7492 35.4481 13.1831C35.4568 13.2493 35.4633 13.3157 35.4712 13.3819C35.4873 13.5166 35.503 13.6512 35.5163 13.7861C35.5259 13.8847 35.5341 13.9833 35.5423 14.082C35.5523 14.2042 35.5612 14.3265 35.569 14.4488C35.5751 14.5447 35.5816 14.6405 35.5863 14.7365C35.7534 18.1782 35.0239 21.6042 33.4691 24.6793C32.0728 27.4214 29.9957 29.9449 29.634 33.0066C29.5776 33.508 29.5643 34.0132 29.5942 34.5168C29.5973 34.576 29.5985 34.6353 29.6026 34.6945C29.609 34.7852 29.6187 34.8758 29.6275 34.9664C29.6373 35.0704 29.6466 35.1744 29.6593 35.2782C29.6667 35.3375 29.6757 35.3967 29.684 35.4559C29.7029 35.5938 29.723 35.7316 29.7463 35.8692C29.7513 35.8986 29.7569 35.928 29.7621 35.9574C30.129 38.044 30.9593 40.1033 31.402 42.1969C31.566 42.9743 31.6763 43.7622 31.732 44.5548L31.7328 44.5711C31.7504 44.8229 31.7624 45.075 31.769 45.3274C31.7777 45.6689 31.7732 46.0105 31.7619 46.352C31.061 46.6222 30.342 46.843 29.6103 47.0127C28.317 47.2001 24.5315 50.5562 24.8084 51.3952C25.0826 52.223 23.1136 58.1157 23.0583 58.2891L23.0555 58.2919L23.0561 58.2924L23.0555 58.2928L19.9413 79.7344C19.9413 79.7344 18.2969 81.3192 18.8108 82.3447C19.3247 83.3702 18.7113 85.1414 18.7113 85.1414C18.7113 85.1414 15.933 86.3533 16.5497 87.0991C17.1663 87.8449 16.8849 89.2433 16.4603 90.1755C16.0357 91.1078 15.3432 92.7858 16.4603 93.0655C17.5774 93.3451 16.6524 96.9809 16.6524 96.9809C16.6524 96.9809 20.5485 96.5338 20.2623 98.8454C20.1709 99.5838 22.9873 101.608 24.1632 102.418V113.555C22.5893 113.144 21.0469 112.621 19.5478 111.99C17.1478 110.871 3.67081 108.727 0.71696 115.16C-2.23689 121.592 4.77852 130.169 6.53236 131.101C6.53236 131.101 8.19394 132.406 8.56314 133.059C8.93234 133.711 11.0555 133.898 11.0555 133.898C11.0555 133.898 13.2709 134.923 13.8247 135.483C14.2333 135.895 17.6068 136.967 21.6087 137.801L21.6079 137.801C21.6079 137.801 18.377 145.239 23.6476 144.625C28.9182 144.011 31.4859 141.418 35.2024 141.418C36.6875 141.418 39.4458 141.211 42.2226 140.962C42.9192 141.085 43.6082 141.247 44.2863 141.449C45.851 141.939 47.4579 142.282 49.0863 142.474C49.0863 142.474 53.2402 144.712 55.4555 144.152C55.6395 144.097 55.8106 144.005 55.9589 143.883C55.9755 143.879 55.993 143.877 56.0094 143.873C56.5597 143.635 57.0249 143.236 57.3436 142.729C60.1162 143.012 63.273 143.416 64.4611 143.875C66.7586 144.762 83.1785 143.533 83.1785 143.533C83.1785 143.533 93.7874 143.742 96.8281 144.661C99.8688 145.581 98.7877 135.276 93.1792 134.116C91.6755 133.829 90.1468 133.694 88.6162 133.712C89.0047 133.313 89.3593 132.882 89.6761 132.424C91.6973 132.24 93.0249 132.127 93.0249 132.127C93.0249 132.127 98.3787 129.516 101.425 127.931C103.372 126.873 105.121 125.486 106.594 123.83C106.594 123.83 109.271 122.152 110.379 121.499C111.486 120.846 112.04 118.702 112.04 118.702C120.44 99.6845 99.1172 102.202 99.1172 102.202ZM75.0789 78.3452C75.0798 78.0312 75.0808 77.7173 75.082 77.4051C75.3771 77.6182 75.3338 77.9515 75.0789 78.3452ZM75.1666 84.9383C75.3899 85.2326 75.6073 85.5008 75.7633 85.7008C76.3599 86.4659 75.2799 86.838 75.3582 88.1211C75.3758 88.4093 75.4004 88.8077 75.4279 89.2516H75.4277C75.314 87.4142 75.2214 85.8892 75.1667 84.9383H75.1666Z" fill="url(#paint0_linear)"/>
<path id="Vector_2" d="M27.117 114.359C27.117 114.359 21.9478 113.159 19.5478 112.052C17.1477 110.944 3.67081 108.821 0.716961 115.19C-2.23689 121.559 4.77851 130.052 6.53236 130.975C8.28621 131.898 25.3632 119.252 25.3632 119.252L38.8401 124.928L41.4247 116.113L27.117 114.359Z" fill="#65617D"/>
<path id="Vector_3" d="M82.0678 116.113H42.2041C37.0193 116.113 32.8163 120.316 32.8163 125.501V127.125C32.8163 132.31 37.0193 136.513 42.2041 136.513H82.0678C87.2525 136.513 91.4556 132.31 91.4556 127.125V125.501C91.4556 120.316 87.2525 116.113 82.0678 116.113Z" fill="#65617D"/>
<path id="Vector_4" opacity="0.1" d="M91.4556 126.312C91.4557 129.017 90.3813 131.612 88.4686 133.525C86.556 135.438 83.9618 136.513 81.2565 136.514H43.0162C40.3108 136.514 37.7163 135.439 35.8033 133.526C33.8904 131.613 32.8157 129.019 32.8157 126.314C32.8157 123.608 33.8904 121.014 35.8033 119.101C37.7163 117.188 40.3108 116.113 43.0162 116.113H81.2565C83.9614 116.113 86.5554 117.188 88.4681 119.101C90.3807 121.013 91.4554 123.607 91.4556 126.312V126.312Z" fill="black"/>
<path id="Vector_5" d="M59.5283 126.909C59.5283 126.909 53.6495 128.419 48.8519 128.351C44.0543 128.284 21.6079 137.609 21.6079 137.609C21.6079 137.609 18.377 144.974 23.6476 144.366C28.9182 143.758 31.4859 141.19 35.2024 141.19C38.9189 141.19 50.6088 139.906 50.6088 139.906L61.859 131.595L59.5283 126.909Z" fill="#FBBEBE"/>
<path id="Vector_6" d="M63.2096 57.4053L52.6615 59.4851L51.9776 59.6207C51.9776 59.6207 43.6394 57.4053 43.3625 57.2198C43.0855 57.037 35.5172 46.8351 35.5172 46.8351C35.5172 46.8351 39.3443 46.8767 42.3517 45.1432C42.4597 45.0822 42.5649 45.0158 42.6701 44.9493C43.9968 44.1548 45.0054 42.923 45.5224 41.4656C45.5751 41.3133 45.6221 41.1555 45.6664 40.9921C46.0103 39.4939 45.9799 37.9341 45.5778 36.4505C44.5588 32.1471 46.9209 30.9619 50.0695 31.0644C54.6166 31.2139 60.8086 34.0524 60.8086 34.0524C60.888 35.5009 61.2169 36.9249 61.7806 38.2616C61.8305 38.3862 61.8858 38.5108 61.9412 38.6382C63.0701 41.1878 65.0506 43.2653 67.5434 44.5146C67.6542 44.5699 67.7622 44.6253 67.8757 44.6779C68.2108 44.8385 68.5653 44.9908 68.9336 45.1293C76.9643 48.1755 63.2096 57.4053 63.2096 57.4053Z" fill="#FBBEBE"/>
<path id="Vector_7" opacity="0.1" d="M61.9411 38.6384C59.9361 40.9099 57.2154 42.4285 54.2295 42.9427C51.2436 43.4569 48.1717 42.9358 45.5224 41.4657C46.0192 39.8336 46.0384 38.0933 45.5777 36.4506C43.0854 25.9275 60.8085 34.0525 60.8085 34.0525C60.8976 35.6382 61.2817 37.1935 61.9411 38.6384V38.6384Z" fill="black"/>
<path id="Vector_8" d="M65.2697 29.2892C65.2736 31.7765 64.5758 34.2145 63.2565 36.3231C62.826 37.0138 62.3318 37.6627 61.7805 38.2615C59.4556 40.8124 56.2259 42.3537 52.7805 42.5566C52.5146 42.5732 52.246 42.5815 51.9774 42.5815C49.3484 42.5815 46.7785 41.8019 44.5926 40.3414C42.4067 38.8808 40.7029 36.8048 39.6969 34.3759C38.6908 31.947 38.4276 29.2744 38.9405 26.6959C39.4534 24.1175 40.7193 21.749 42.5783 19.8901C44.4373 18.0311 46.8057 16.7651 49.3842 16.2522C51.9627 15.7394 54.6353 16.0026 57.0642 17.0086C59.493 18.0147 61.569 19.7184 63.0296 21.9043C64.4902 24.0902 65.2697 26.6602 65.2697 29.2892V29.2892Z" fill="#FBBEBE"/>
<path id="Vector_9" opacity="0.1" d="M63.2095 57.4054L52.6615 59.4851L51.9776 59.6208C51.9776 59.6208 43.6394 57.4054 43.3625 57.2199C43.0855 57.0371 35.5172 46.8352 35.5172 46.8352C35.5172 46.8352 39.3443 46.8768 42.3517 45.1432C42.4597 45.0823 42.5649 45.0159 42.6701 44.9494C43.822 46.1844 45.2145 47.1707 46.7618 47.8474C48.3091 48.5241 49.9786 48.8771 51.6674 48.8845C52.2961 48.8808 52.9236 48.8308 53.5449 48.7349C55.0293 48.5079 56.5246 48.3611 58.0173 48.206C60.8751 47.9069 65.2477 47.0402 67.5434 44.5146C67.6542 44.57 67.7622 44.6254 67.8757 44.678C68.2108 44.8386 68.5653 44.9909 68.9336 45.1294C76.9643 48.1756 63.2095 57.4054 63.2095 57.4054Z" fill="black"/>
<path id="Vector_10" d="M75.1172 84.3581C75.2086 86.3908 76.6874 109.281 76.6874 109.281H30.6239L30.9368 94.8702L31.1888 83.3418L31.2719 79.5591L31.6402 66.4523L30.3082 65.2781L23.0555 58.8812L23.0583 58.8784C23.1137 58.7067 25.0826 52.8719 24.8085 52.0522C24.5316 51.2215 28.3171 47.8984 29.6103 47.7128C30.3466 47.5436 31.0702 47.3233 31.7759 47.0538C33.9525 46.2894 36.8574 45.1651 37.1787 45.3396C37.63 45.5833 42.1605 45.1624 42.3516 45.143H42.3571C43.5109 46.4838 44.9392 47.5612 46.5455 48.3023C48.1517 49.0433 49.8984 49.4306 51.6673 49.4381C52.296 49.4344 52.9235 49.3844 53.5448 49.2885C55.0292 49.0614 56.5245 48.9147 58.0172 48.7596C61.019 48.4467 65.6879 47.5051 67.8757 44.6777C68.9266 44.7811 69.9624 45.0032 70.9634 45.3396C72.4387 45.7358 73.9581 45.9442 75.4856 45.9599C76.6883 46.2937 77.8618 46.7253 78.9942 47.2504C80.0687 47.7622 81.1794 48.1945 82.3172 48.5436C82.3172 48.5436 84.4413 49.0975 84.9951 54.4504C85.5489 59.8061 86.1028 62.8522 86.1028 62.8522L75.1172 72.359C75.1172 72.359 75.0258 82.3283 75.1172 84.3581Z" fill="#B563FF"/>
<path id="Vector_11" d="M23.0554 100.329L24.6694 102.913L30.7169 105.045L34.8709 97.4667L31.0412 94.8821L24.9014 92.4825L21.3938 94.5131L23.0554 100.329Z" fill="#FBBEBE"/>
<path id="Vector_12" d="M74.6556 113.067C74.6556 113.067 83.2402 112.421 86.7479 108.452C90.2556 104.482 99.1172 102.359 99.1172 102.359C99.1172 102.359 120.44 99.867 112.04 118.698C112.04 118.698 111.486 120.821 110.379 121.467C109.271 122.113 106.594 123.775 106.594 123.775L73.8308 120.913L74.6556 113.067Z" fill="#65617D"/>
<path id="Vector_13" opacity="0.1" d="M91.4555 126.312C91.4582 128.318 90.8675 130.28 89.758 131.95C84.2472 132.441 72.0404 133.587 69.4872 134.299C66.3497 135.168 59.9998 133.654 59.3047 133.482C59.2632 133.474 59.241 133.468 59.241 133.468C59.241 133.468 58.017 129.754 57.4327 127.378C57.1696 126.298 57.0367 125.495 57.2084 125.437C57.7622 125.252 62.841 123.867 62.7469 124.651C62.6555 125.437 77.9777 118.697 77.9777 118.697L78.4484 124.606C80.0103 126.397 91.4555 123.748 91.4555 126.312Z" fill="black"/>
<path id="Vector_14" d="M107.24 121.375L106.594 123.775C105.118 125.417 103.37 126.791 101.425 127.836C98.3787 129.406 93.0248 131.99 93.0248 131.99C93.0248 131.99 73.3633 133.652 70.0402 134.575C66.7171 135.498 59.794 133.744 59.794 133.744C59.794 133.744 57.2094 125.898 57.7632 125.713C58.3171 125.529 63.394 124.144 63.3017 124.929C63.2094 125.713 78.5325 118.975 78.5325 118.975L107.24 121.375Z" fill="#65617D"/>
<path id="Vector_15" d="M52.501 142.068C52.501 142.068 62.1638 142.744 64.4612 143.623C66.7587 144.501 83.1787 143.285 83.1787 143.285C83.1787 143.285 93.7875 143.491 96.8282 144.402C99.869 145.312 98.7878 135.109 93.1793 133.96C87.5709 132.811 79.6649 134.5 79.6649 134.5C79.6649 134.5 70.7454 133.352 69.6642 133.217C68.5831 133.081 61.4557 133.282 61.4557 133.282L52.501 142.068Z" fill="#FBBEBE"/>
<path id="Vector_16" opacity="0.1" d="M14.5254 116.594C14.5254 116.594 27.2965 117.743 30.8103 119.837L14.5254 116.594Z" fill="black"/>
<path id="Vector_17" opacity="0.1" d="M94.1928 108.215C94.1928 108.215 84.1921 110.648 80.2729 114.229L94.1928 108.215Z" fill="black"/>
<path id="Vector_18" opacity="0.1" d="M15.2688 113.688C15.4715 113.756 21.1476 114.499 21.0124 115.04C20.8773 115.58 15.2688 113.688 15.2688 113.688Z" fill="black"/>
<path id="Vector_19" opacity="0.1" d="M6.34778 127.929L7.08624 130.698C7.83692 131.262 8.51854 131.913 9.11702 132.636C9.48625 133.282 11.6093 133.467 11.6093 133.467C11.6093 133.467 13.8247 134.482 14.3786 135.036C14.9324 135.59 20.9324 137.344 26.5632 138.082C32.194 138.821 42.6248 140.206 44.8402 140.944C46.4055 141.429 48.0123 141.769 49.6402 141.959C49.6402 141.959 53.794 144.175 56.0094 143.621C58.2248 143.067 62.0094 133.005 62.0094 133.005C62.0094 133.005 47.4248 129.59 46.9632 128.482C46.5017 127.375 32.4709 122.208 32.4709 122.208L24.1632 122.405L6.34778 127.929Z" fill="black"/>
<path id="Vector_20" d="M5.79382 128.206L6.53229 130.975C7.28297 131.539 7.96459 132.19 8.56306 132.913C8.93229 133.559 11.0554 133.744 11.0554 133.744C11.0554 133.744 13.2708 134.759 13.8246 135.313C14.3785 135.867 20.3785 137.621 26.0093 138.359C31.64 139.098 42.0708 140.483 44.2862 141.221C45.8516 141.706 47.4584 142.046 49.0862 142.236C49.0862 142.236 53.2401 144.452 55.4555 143.898C57.6709 143.344 61.4555 133.282 61.4555 133.282C61.4555 133.282 46.8708 129.867 46.4093 128.759C45.9477 127.652 25.3631 119.252 25.3631 119.252L18.9016 117.775L5.79382 128.206Z" fill="#65617D"/>
<path id="Vector_21" d="M24.6691 57.959L23.0555 58.8821L19.9413 80.1129C19.9413 80.1129 18.2969 81.6821 18.8108 82.6975C19.3247 83.7129 18.7113 85.4667 18.7113 85.4667C18.7113 85.4667 15.933 86.6667 16.5497 87.4052C17.1663 88.1437 16.8849 89.5283 16.4603 90.4514C16.0358 91.3744 15.3432 93.036 16.4603 93.3129C17.5774 93.5899 16.6524 97.1898 16.6524 97.1898C16.6524 97.1898 20.5485 96.7471 20.2623 99.036C20.1469 99.9591 24.6691 102.913 24.6691 102.913C24.6691 102.913 19.5302 93.5898 31.0414 94.8821L32.031 89.6259C32.031 89.6259 33.0207 86.6667 32.031 85.7437C31.0414 84.8206 32.2535 80.436 32.2535 80.436L32.4709 61.3744L24.6691 57.959Z" fill="#B563FF"/>
<path id="Vector_22" opacity="0.1" d="M22.161 85.3756C22.3637 85.7135 28.5804 86.4027 28.9858 87.5108C29.3912 88.619 22.161 85.3756 22.161 85.3756Z" fill="black"/>
<path id="Vector_23" opacity="0.1" d="M20.2013 90.6463C20.2013 90.6463 21.0442 88.0109 23.0554 88.484C25.0665 88.957 20.2013 90.6463 20.2013 90.6463Z" fill="black"/>
<path id="Vector_24" opacity="0.1" d="M19.1201 94.4978C19.1201 94.4978 20.6067 90.984 22.6339 91.2543C24.661 91.5246 19.1201 94.4978 19.1201 94.4978Z" fill="black"/>
<path id="Vector_25" d="M86.7478 94.4207L86.1017 98.2977C86.1017 98.2977 79.4555 110.482 78.2555 110.667C77.0555 110.852 70.5017 102.544 70.5017 102.544L68.7478 94.4207L75.6525 93.1121L78.717 90.0823C78.717 90.0823 86.4709 90.8207 86.7478 94.4207Z" fill="#FBBEBE"/>
<path id="Vector_26" d="M83.6094 61.0976L86.1017 62.8515V72.1746C86.1017 72.1746 88.0401 71.9899 87.5786 73.0053C87.117 74.0207 86.194 74.5746 87.0247 75.4976C87.8555 76.4207 87.6709 78.1746 86.9324 78.3592C86.194 78.5438 84.9017 79.2823 86.1016 79.7438C87.3016 80.2054 88.0401 81.0361 88.0401 81.59C88.1363 82.2889 88.0069 83.0003 87.6709 83.6207C87.2093 84.2669 86.7478 85.7438 87.3016 86.2977C87.8555 86.8515 86.8401 89.7131 86.8401 89.7131C86.8401 89.7131 88.594 94.2361 86.9324 95.5285C86.9324 95.5285 86.194 98.1131 86.1016 98.2977C86.1016 98.2977 87.2649 89.3112 75.6525 93.1121C75.6525 93.1121 75.4364 89.6878 75.3581 88.4173C75.2797 87.1468 76.3598 86.7783 75.7631 86.0208C75.1665 85.2632 73.6734 83.5281 74.3785 83.0669C75.0837 82.6056 74.8401 81.7746 74.5631 81.1284C74.2862 80.4823 73.3086 80.4824 74.1933 79.6977C75.078 78.913 75.6 78.1764 75.0816 77.8063C74.5631 77.4362 73.6613 76.2338 74.3785 75.6823C75.0957 75.1307 75.117 67.0977 75.117 67.0977C75.117 67.0977 78.0709 55.2822 83.6094 61.0976Z" fill="#B563FF"/>
<path id="Vector_27" opacity="0.1" d="M82.4353 76.9801C82.4353 76.9801 85.9843 76.0175 86.1018 76.9801C86.2193 77.9426 82.4353 76.9801 82.4353 76.9801Z" fill="black"/>
<path id="Vector_28" opacity="0.1" d="M78.4486 79.632C78.4486 79.632 83.3138 78.4157 83.9219 79.3617C84.5301 80.3077 78.4486 79.632 78.4486 79.632Z" fill="black"/>
<path id="Vector_29" opacity="0.1" d="M77.3673 82.1997C77.3673 82.1997 84.6651 81.1861 85.1381 82.6727C85.6111 84.1593 77.3673 82.1997 77.3673 82.1997Z" fill="black"/>
<path id="Vector_30" opacity="0.1" d="M78.4486 85.3756C78.7189 85.4432 85.4761 85.9162 85.6112 87.2C85.7464 88.4839 78.4486 85.3756 78.4486 85.3756Z" fill="black"/>
<path id="Vector_31" d="M76.1073 89.5366H30.0867C26.8153 89.5366 24.1632 92.1887 24.1632 95.4601V116.482C24.1632 119.753 26.8153 122.405 30.0867 122.405H76.1073C79.3787 122.405 82.0308 119.753 82.0308 116.482V95.4601C82.0308 92.1887 79.3787 89.5366 76.1073 89.5366Z" fill="#3F3D56"/>
<path id="Vector_32" d="M53.0969 108.105C54.2758 108.105 55.2314 107.15 55.2314 105.971C55.2314 104.792 54.2758 103.836 53.0969 103.836C51.9181 103.836 50.9625 104.792 50.9625 105.971C50.9625 107.15 51.9181 108.105 53.0969 108.105Z" fill="#E7EFFD"/>
<path id="Vector_33" opacity="0.1" d="M33.8555 69.392C33.8555 69.392 39.4014 73.6315 43.69 70.4007C43.69 70.4007 36.4401 71.0601 33.8555 69.392Z" fill="black"/>
<path id="Vector_34" opacity="0.1" d="M61.9412 70.5314C61.9412 70.5314 67.4871 74.7709 71.7757 71.5401C71.7757 71.5401 64.5258 72.1996 61.9412 70.5314Z" fill="black"/>
<path id="Vector_35" opacity="0.1" d="M65.2697 29.2892C65.2736 31.7765 64.5758 34.2145 63.2565 36.323C63.1457 32.6206 62.2734 28.9181 60.2602 25.8276C58.4158 22.9947 52.8109 18.0295 48.9561 19.4113C48.553 19.5598 48.1905 19.8011 47.898 20.1158C47.6055 20.4304 47.3912 20.8095 47.2724 21.2224C46.8903 22.6734 48.009 23.2772 48.7263 24.4319C49.945 26.414 50.4209 28.7642 50.0694 31.0642C50.0202 31.3738 49.9555 31.6806 49.8755 31.9836C49.2691 34.2599 47.8789 36.8658 49.3134 38.735C50.3131 40.0366 52.462 40.4852 52.7528 42.0996C52.7798 42.2504 52.7891 42.4037 52.7805 42.5566C52.714 43.6421 51.7863 44.6003 51.382 45.6692C50.9057 46.9264 51.1743 48.1754 51.6672 49.4381C52.3097 51.0858 53.3315 52.7529 53.578 54.492C53.8217 56.2061 53.2928 57.8455 52.6614 59.4849C51.9818 60.9904 51.471 62.5665 51.1383 64.1843C50.6925 67.2527 51.8168 70.8001 49.8866 73.2259C49.6905 73.5191 49.3873 73.7239 49.042 73.7963C47.8041 73.9265 48.0146 71.7028 47.0204 70.9551C47.1257 72.2483 47.2254 73.5942 46.7574 74.8043C46.2866 76.0145 45.0681 77.0391 43.786 76.8369C43.6392 75.8705 43.4924 74.9031 43.3457 73.9348C42.474 74.7933 41.4248 75.4502 40.2718 75.8594C40.7241 72.772 41.8164 69.8131 43.4786 67.1723C40.2275 68.737 38.3334 72.1265 36.6414 75.3111C35.5863 77.3022 34.4952 79.4788 34.8635 81.7025C35.0131 82.6081 35.4035 83.4693 35.4894 84.3831C35.5752 85.297 35.2429 86.3604 34.3927 86.7093C34.0105 86.8275 33.6015 86.8273 33.2195 86.7086C32.8374 86.59 32.5002 86.3586 32.2521 86.0447C32.2217 86.0087 32.1912 85.9727 32.1607 85.9339C32.1078 85.8676 32.0588 85.7983 32.014 85.7262C31.9206 85.587 31.8382 85.4407 31.7675 85.2887C31.5351 84.7426 31.3606 84.1736 31.2469 83.5911L31.1887 83.3419C30.3303 79.5674 29.5549 75.6766 30.1835 71.8606C30.4161 70.4539 30.8398 69.0609 30.79 67.6348C30.7519 66.8291 30.5894 66.0341 30.3081 65.2782C29.5549 63.168 28.1038 61.2268 27.2758 59.1C27.2682 59.0848 27.2617 59.0691 27.2564 59.0529C26.8216 57.9259 26.6084 56.5191 27.4115 55.6163C27.8768 55.2011 28.3956 54.85 28.9539 54.5723C30.5601 53.5255 31.2801 51.54 31.5736 49.6458C31.7087 48.7884 31.7763 47.9218 31.7758 47.0538C33.9524 46.2895 36.8573 45.1652 37.1786 45.3397C37.63 45.5833 42.1604 45.1624 42.3515 45.143C43.8269 44.3515 44.9566 43.0413 45.5223 41.4655C45.5749 41.3132 45.622 41.1554 45.6663 40.992C43.5979 39.8767 41.8622 38.233 40.6358 36.2285C39.4095 34.224 38.7363 31.9303 38.685 29.581C38.6337 27.2316 39.2061 24.9107 40.3438 22.8546C41.4815 20.7984 43.1438 19.0806 45.1615 17.8761C47.1792 16.6716 49.4801 16.0234 51.8299 15.9976C54.1796 15.9718 56.4942 16.5693 58.5379 17.7293C60.5815 18.8892 62.2812 20.5701 63.4637 22.6008C64.6463 24.6314 65.2694 26.9393 65.2697 29.2892V29.2892Z" fill="black"/>
<path id="Vector_36" d="M49.8751 31.4292C49.2678 33.7063 47.8792 36.3117 49.3143 38.1811C50.3143 39.4837 52.4627 39.9305 52.7515 41.5471C52.98 42.8262 51.8414 43.9009 51.3818 45.1164C50.2853 48.0162 53.1427 50.8677 53.5769 53.9374C54.0481 57.2675 51.6217 60.303 51.1381 63.6313C50.6923 66.699 51.8168 70.2459 49.8858 72.6709C49.6906 72.9651 49.3872 73.1704 49.0415 73.2422C47.8039 73.3736 48.0138 71.1503 47.0191 70.4026C47.126 71.6959 47.226 73.0416 46.7567 74.2515C46.2875 75.4614 45.0681 76.486 43.7862 76.2836L43.3457 73.3804C42.4733 74.2384 41.4241 74.8956 40.2714 75.3058C40.7242 72.2186 41.8165 69.2599 43.4784 66.619C40.2288 68.1843 38.3338 71.5721 36.6426 74.758C35.5862 76.7481 34.4962 78.9248 34.8642 81.1477C35.0143 82.0543 35.4041 82.9143 35.49 83.8293C35.5758 84.7442 35.243 85.8062 34.3927 86.1548C33.9867 86.2772 33.5524 86.2683 33.1517 86.1294C32.751 85.9905 32.4044 85.7287 32.1612 85.3812C31.6899 84.6755 31.3782 83.8756 31.2477 83.037C30.3659 79.1841 29.5403 75.2058 30.1846 71.3061C30.4171 69.8992 30.8404 68.5059 30.7893 67.0808C30.6776 63.964 28.3779 61.4092 27.2552 58.4995C26.8202 57.3722 26.6086 55.9658 27.4105 55.062C27.8767 54.6473 28.396 54.2965 28.9547 54.0186C30.56 52.9714 31.2809 50.987 31.5748 49.093C31.8918 47.044 31.8328 44.9544 31.4009 42.9265C30.7525 39.8903 29.2662 36.9274 29.634 33.8446C29.9956 30.813 32.0727 28.3143 33.469 25.5991C35.2656 22.086 35.9552 18.1109 35.447 14.1979C35.2062 12.3772 34.7866 10.27 36.0209 8.9101C37.5031 7.27712 40.3729 7.8913 42.0643 6.47613C42.8896 5.78562 43.2906 4.72601 43.9032 3.84136C44.6681 2.7804 45.7372 1.97681 46.969 1.53702C48.2008 1.09722 49.5371 1.04197 50.801 1.37857C51.9632 1.71184 53.0069 2.37307 54.1566 2.74711C55.7792 3.27502 57.5262 3.20714 59.2205 3.40959C60.9148 3.61203 62.7093 4.18243 63.6848 5.58247C64.2026 6.32573 64.4366 7.23192 64.9119 8.00311C65.9305 9.65604 67.8755 10.4518 69.347 11.7185C70.6096 12.8438 71.5127 14.3161 71.9437 15.9516C72.3747 17.587 72.3144 19.3132 71.7705 20.9146C70.8918 23.3617 68.8589 25.5241 69.0318 28.1184C69.1029 29.1841 69.556 30.2291 69.4096 31.2871C69.0029 34.2269 64.7329 34.8149 63.2591 37.3909C63.3764 33.1671 62.5661 28.8148 60.2605 25.2739C58.4155 22.4401 52.8103 17.4752 48.9568 18.8569C48.5536 19.0055 48.191 19.2469 47.8984 19.5615C47.6058 19.8762 47.3913 20.2554 47.2724 20.6683C46.891 22.1193 48.0085 22.7224 48.7256 23.8788C49.415 24.9954 49.8721 26.2396 50.0696 27.5369C50.2671 28.8342 50.2009 30.158 49.8751 31.4292V31.4292Z" fill="#3F3D56"/>
<g id="Group" opacity="0.2">
<path id="Vector_37" opacity="0.2" d="M31.77 46.0667C31.8016 44.7394 31.678 43.413 31.402 42.1143C30.8508 39.5331 29.698 37.0044 29.5896 34.4104C29.4417 37.2976 30.7921 40.089 31.402 42.9451C31.6206 43.9721 31.7438 45.0171 31.77 46.0667Z" fill="black"/>
<path id="Vector_38" opacity="0.2" d="M42.7712 67.0238C42.9959 66.6114 43.2291 66.2039 43.4795 65.8066C40.2299 67.3719 38.335 70.7597 36.6438 73.9456C35.6654 75.7885 34.6607 77.7916 34.8094 79.8431C34.9328 78.0827 35.798 76.3697 36.6438 74.7764C38.2078 71.8301 39.9485 68.7143 42.7712 67.0238Z" fill="black"/>
<path id="Vector_39" opacity="0.2" d="M35.4744 83.723C35.4512 84.0637 35.3392 84.3924 35.1496 84.6765C34.9601 84.9606 34.6995 85.1902 34.3938 85.3425C33.9878 85.4648 33.5535 85.456 33.1528 85.3171C32.7521 85.1782 32.4054 84.9163 32.1623 84.5689C31.691 83.8632 31.3793 83.0632 31.2488 82.2247C30.537 79.4818 30.1063 76.6735 29.9634 73.8433C29.9016 76.9255 30.5562 80.0291 31.2488 83.0555C31.3793 83.894 31.691 84.6939 32.1623 85.3997C32.4054 85.7471 32.7521 86.009 33.1528 86.1479C33.5535 86.2868 33.9878 86.2956 34.3938 86.1732C35.2441 85.8247 35.5769 84.7627 35.4911 83.8477C35.4871 83.8058 35.4796 83.7646 35.4744 83.723Z" fill="black"/>
<path id="Vector_40" opacity="0.2" d="M50.1756 28.6543C50.1466 29.3174 50.0463 29.9753 49.8763 30.6169C49.426 32.3049 48.5476 34.1731 48.7073 35.7884C48.8298 34.3832 49.5014 32.853 49.8763 31.4477C50.116 30.5369 50.2169 29.5952 50.1756 28.6543V28.6543Z" fill="black"/>
<path id="Vector_41" opacity="0.2" d="M35.6069 16.3313C35.6298 15.3467 35.5767 14.3619 35.4481 13.3855C35.353 12.6661 35.2314 11.9023 35.1935 11.1572C35.184 12.1826 35.2693 13.2066 35.4481 14.2163C35.5402 14.9178 35.5933 15.6239 35.6069 16.3313V16.3313Z" fill="black"/>
<path id="Vector_42" opacity="0.2" d="M52.7526 41.5655C52.7485 41.5429 52.7405 41.5227 52.7357 41.5005C52.5394 42.4614 51.748 43.3385 51.3829 44.304C51.1682 44.8804 51.0906 45.499 51.1563 46.1106C51.1886 45.7768 51.2647 45.4487 51.3829 45.1348C51.8425 43.9194 52.9811 42.8447 52.7526 41.5655Z" fill="black"/>
<path id="Vector_43" opacity="0.2" d="M30.7906 66.2686C30.6789 63.1518 28.3791 60.597 27.2564 57.6872C27.0762 57.2315 26.955 56.7546 26.8955 56.2681C26.8328 57.0362 26.9566 57.8081 27.2564 58.518C28.3604 61.3793 30.5977 63.8985 30.7784 66.9452C30.7915 66.7203 30.7987 66.4949 30.7906 66.2686Z" fill="black"/>
<path id="Vector_44" opacity="0.2" d="M60.2616 24.4615C58.4166 21.6278 52.8114 16.6628 48.958 18.0446C48.5547 18.1931 48.1921 18.4345 47.8995 18.7492C47.6069 19.0639 47.3924 19.4431 47.2736 19.856C47.1827 20.1721 47.1727 20.5059 47.2445 20.8268C47.254 20.7803 47.2608 20.7351 47.2736 20.6868C47.3924 20.2738 47.6069 19.8947 47.8995 19.58C48.1921 19.2653 48.5547 19.0239 48.958 18.8754C52.8114 17.4936 58.4166 22.4585 60.2616 25.2923C62.3497 28.4993 63.2085 32.3717 63.2653 36.2115C63.3266 32.1034 62.5005 27.9001 60.2616 24.4615Z" fill="black"/>
<path id="Vector_45" opacity="0.2" d="M69.4107 30.4748C69.0049 33.4082 64.7532 34.0004 63.2704 36.5621C63.271 36.8449 63.2677 37.1273 63.2603 37.4094C64.734 34.8334 69.0041 34.2454 69.4107 31.3056C69.4468 31.0166 69.4478 30.7243 69.4136 30.4351C69.4119 30.4483 69.4126 30.4615 69.4107 30.4748Z" fill="black"/>
<path id="Vector_46" opacity="0.2" d="M71.7716 20.102C70.8929 22.5491 68.86 24.7115 69.033 27.3058C69.0355 27.3439 69.0417 27.3818 69.0452 27.4199C69.236 25.136 70.9752 23.1507 71.7716 20.9327C72.1295 19.919 72.2831 18.8444 72.2234 17.771C72.1897 18.5661 72.0374 19.3518 71.7716 20.102V20.102Z" fill="black"/>
<path id="Vector_47" opacity="0.2" d="M49.8869 71.8585C49.6917 72.1527 49.3882 72.358 49.0425 72.4298C47.805 72.5612 48.0149 70.338 47.0201 69.5902C47.0445 69.8846 47.0677 70.1817 47.0847 70.4793C48.0029 71.2748 47.8339 73.389 49.0426 73.2606C49.3883 73.1888 49.6917 72.9835 49.8869 72.6893C50.9885 71.3059 51.0955 69.5572 51.0671 67.7408C51.0387 69.2547 50.8193 70.6875 49.8869 71.8585Z" fill="black"/>
<path id="Vector_48" opacity="0.2" d="M46.7578 73.4392C46.2886 74.6491 45.0691 75.6736 43.7873 75.4713C43.6404 74.5035 43.4936 73.5358 43.3467 72.5681C42.5136 73.3862 41.519 74.0217 40.4264 74.434C40.3708 74.73 40.316 75.0262 40.2725 75.3243C41.4252 74.914 42.4744 74.2569 43.3467 73.3989C43.4936 74.3666 43.6404 75.3343 43.7873 76.302C45.0691 76.5044 46.2886 75.4798 46.7578 74.2699C47.0494 73.4267 47.1655 72.5328 47.0991 71.6431C47.0847 72.2564 46.9694 72.8633 46.7578 73.4392Z" fill="black"/>
<path id="Vector_49" opacity="0.2" d="M51.1393 62.819C51.0397 63.5989 51.0021 64.3854 51.0269 65.1713C51.0325 64.6623 51.07 64.1541 51.1393 63.6497C51.6002 60.4774 53.8241 57.5708 53.6238 54.4219C53.4449 57.2567 51.5594 59.9274 51.1393 62.819Z" fill="black"/>
</g>
</g>
<defs>
<linearGradient id="paint0_linear" x1="57" y1="144.719" x2="57" y2="-0.0101707" gradientUnits="userSpaceOnUse">
<stop stop-color="#808080" stop-opacity="0.25"/>
<stop offset="0.53514" stop-color="#808080" stop-opacity="0.12"/>
<stop offset="1" stop-color="#808080" stop-opacity="0.1"/>
</linearGradient>
</defs>
</svg>
