<svg width="152" height="164" viewBox="0 0 152 164" fill="none" xmlns="http://www.w3.org/2000/svg">
<g id="guyChat">
<path id="Vector" d="M1.2798 162.368C5.0217 164.875 10.6949 163.682 10.6949 163.682C10.6949 163.682 19.2651 159.623 21.8 159.623C24.3348 159.623 30.4909 157.116 30.4909 157.116L30.2832 155.425L29.6548 150.333C33.5556 153.373 37.8906 152.324 40.0267 152.102C42.3201 151.863 54.5695 144.581 55.7476 144.103C56.19 143.837 56.5591 143.464 56.8219 143.019H56.8243C57.6134 141.813 58.3068 140.546 58.898 139.23L58.8966 139.231C59.6646 138.556 60.2244 138.013 60.1848 137.896C60.3487 137.198 60.6008 136.525 60.935 135.891C62.2515 135.701 63.5156 135.246 64.6509 134.553C64.8407 134.399 65.0131 134.224 65.1651 134.033C65.6317 133.431 65.8764 132.688 65.858 131.927C65.858 131.927 77.808 119.869 76.2388 114.856C74.6696 109.842 80.1014 109.722 80.1014 109.722C80.1014 109.722 88.4302 106.141 89.589 103.992C90.3035 102.669 96.5489 99.7684 101.252 97.7294C101.447 97.6446 101.64 97.5614 101.829 97.4799C103.657 101.479 112.919 98.4021 114.744 96.7099C116.676 94.9192 122.349 94.0836 122.349 94.0836C122.349 94.0836 122.59 70.6852 124.401 67.7008C125.26 66.2849 125.468 61.6649 125.446 57.2025C125.445 57.0439 125.444 56.8855 125.443 56.7275C127.979 56.233 134.01 55.0866 136.812 54.8078C138.588 54.6311 140.438 53.5246 141.857 52.4488C141.965 52.5834 142.024 52.659 142.024 52.659C142.513 52.8596 143.041 52.9464 143.568 52.9129C144.034 52.9628 144.505 52.8745 144.921 52.659C146.007 52.0621 149.991 50.8683 151.439 50.2714C152.888 49.6745 151.198 45.3769 150.111 44.5412C149.025 43.7056 148.301 42.6312 148.904 42.1536C149.508 41.6761 147.456 40.4823 146.249 40.2436C145.042 40.0048 141.421 38.3335 141.421 38.3335C141.421 38.3335 140.093 35.5878 137.92 35.5878C135.747 35.5878 132.85 33.439 132.85 33.439C132.73 32.4839 130.436 32.3645 130.436 32.3645C130.436 32.3645 121.745 25.6793 120.297 26.515C118.848 27.3506 114.865 25.2018 114.865 25.2018C114.865 25.2018 109.98 25.7487 108.83 24.8492L108.83 24.8436C108.822 24.5494 108.721 24.2653 108.54 24.0331C108.279 23.2264 107.017 22.1186 105.793 21.1963C105.886 20.6261 105.932 20.0493 105.933 19.4716C105.933 19.2209 105.923 18.9702 105.906 18.7243C105.903 18.6828 105.898 18.6421 105.895 18.6008C105.952 18.0404 106.008 17.4801 106.065 16.9198C106.078 16.3666 106.223 15.8244 106.487 15.3382C106.691 15.0242 106.991 14.7759 107.218 14.4762C107.271 14.4046 107.321 14.33 107.366 14.2529C107.378 14.2321 107.389 14.2109 107.401 14.1899C107.434 14.1307 107.464 14.0706 107.492 14.0096C107.501 13.989 107.511 13.9686 107.519 13.9479C107.588 13.7838 107.64 13.6135 107.676 13.4392C107.678 13.4256 107.681 13.4118 107.683 13.3981C107.698 13.3192 107.71 13.2396 107.719 13.1592L107.723 13.1259C107.772 12.4312 107.68 11.7338 107.451 11.076C107.089 9.94916 106.523 8.8577 106.463 7.68166C106.491 7.09775 106.471 6.51248 106.401 5.93198C106.111 4.62845 104.768 3.79595 103.477 3.25516C101.693 2.5075 100.793 1.6901 99.3591 0.578224C98.1406 -0.366737 96.1313 0.107716 94.5973 0.206176C91.0955 0.430937 87.6375 1.48484 84.3444 2.576C83.0447 2.92644 81.8273 3.53086 80.7625 4.35435C80.0908 4.92465 79.6293 5.70328 79.4515 6.56624L79.4514 6.56591L79.4512 6.56797C79.416 6.7669 79.4026 6.96908 79.4113 7.17092C79.4121 7.18888 79.4138 7.20677 79.4149 7.22469C79.42 7.3019 79.4287 7.37891 79.441 7.45573C79.445 7.48084 79.4485 7.50593 79.4532 7.53097C79.4703 7.62329 79.4926 7.71456 79.5201 7.80433L79.5219 7.81151C79.6606 8.25142 79.919 8.65042 80.0684 9.0872C80.1011 9.18389 80.1285 9.28231 80.1504 9.38201C80.1528 9.39265 80.1547 9.40333 80.157 9.41398C80.1772 9.50954 80.1937 9.60546 80.2055 9.70177L80.2056 9.70123C80.3386 10.787 79.9386 11.9204 79.7609 13.0266C79.7358 13.1829 79.7192 13.3424 79.7066 13.5028L79.7066 13.5022L79.7063 13.5079C79.654 14.1481 79.7104 14.7926 79.8732 15.414L79.8784 15.4351C79.8994 15.5117 79.9238 15.5866 79.9485 15.6617C79.9591 15.6941 79.9688 15.7269 79.9801 15.7591C80.0026 15.8229 80.0278 15.8853 80.0531 15.9478C80.0699 15.9896 80.0864 16.0315 80.1045 16.0727C80.1291 16.1283 80.1556 16.1827 80.1824 16.237C80.2051 16.2829 80.228 16.3286 80.2523 16.3735C80.2791 16.4229 80.3072 16.4714 80.3361 16.5194C80.3644 16.5667 80.3936 16.6132 80.4239 16.659C80.4531 16.7031 80.483 16.7466 80.514 16.7893C80.5482 16.8363 80.5839 16.882 80.6203 16.9272C80.6517 16.9662 80.6833 17.0051 80.7164 17.0427C80.7569 17.0887 80.7997 17.1327 80.8429 17.1765C80.8761 17.2102 80.9088 17.2444 80.9436 17.2767C80.9918 17.3215 81.043 17.3635 81.0943 17.4055C81.1282 17.4332 81.1608 17.462 81.196 17.4885C81.256 17.5335 81.3196 17.5748 81.3835 17.6159C81.4139 17.6355 81.4426 17.6568 81.474 17.6755C81.5724 17.7344 81.674 17.7878 81.7783 17.8356C82.4711 18.1514 83.3443 18.2643 83.7639 18.8727C83.8614 19.0168 83.9305 19.1782 83.9672 19.3482C83.9667 19.3895 83.964 19.4302 83.964 19.4716V19.5766C83.9688 19.93 83.9881 20.2786 84.0244 20.6224C84.0214 20.8115 84.0319 21.0006 84.0557 21.1882C84.077 21.3297 84.1168 21.4678 84.174 21.5989C84.6624 24.004 85.9532 26.1718 87.8349 27.7472C87.8699 27.931 87.9113 28.1471 87.9586 28.3892C86.8976 29.1924 85.711 29.8144 84.4468 30.2301C81.5499 31.0776 77.4458 34.9909 77.4458 34.9909C77.4458 34.9909 75.4059 49.6745 74.9182 51.4652C74.4282 53.2559 74.066 60.1799 74.066 60.1799C74.066 60.1799 73.5832 63.045 72.859 64.4775C72.347 65.4879 72.4388 69.8255 73.8699 72.4615C73.6354 72.9794 73.3363 73.4656 72.9797 73.9085C70.0827 77.2511 61.3918 77.1317 58.4948 77.1317C55.8261 77.1317 55.0031 78.7492 54.8897 79.0046C49.5868 80.5107 32.4082 85.4139 30.3701 86.3048C27.956 87.3602 26.6282 97.7843 26.6282 97.7843C26.6282 97.7843 21.5585 115.094 21.7999 117.372C22.0413 119.65 20.11 125.958 20.11 125.958C20.11 125.958 20.11 133.099 19.2892 133.584C19.2823 133.59 19.2741 133.595 19.2651 133.598C18.4202 133.956 18.5408 137.418 18.5408 137.418C18.5408 137.418 19.1618 137.598 20.132 137.843C19.8747 139.594 18.9249 142.041 18.1766 143.779C17.8007 143.303 17.434 143.103 17.2131 143.659C16.6095 145.178 7.5565 155.922 5.26307 155.922C4.16946 155.922 2.3637 156.817 1.17597 158.025C-0.125246 159.353 -0.678066 161.058 1.2798 162.368ZM42.803 100.172C53.063 101.127 64.0474 99.4437 64.0474 99.4437C64.0474 99.4437 63.2024 102.44 62.4782 103.634C61.7539 104.828 59.7019 111.632 59.7019 113.065C59.7019 114.497 56.4428 126.793 55.4772 127.39C55.0002 127.796 54.638 128.319 54.427 128.909C54.1727 129.502 53.959 130.111 53.7873 130.733C53.8014 131.045 53.8304 131.338 53.8704 131.617C53.149 132.279 52.3865 132.97 51.7063 133.584L51.7063 133.584C51.7063 133.584 47.3898 135.986 45.9413 137.299C44.4929 138.612 37.7333 140.221 37.7333 140.221C36.0621 140.941 34.4396 141.769 32.876 142.7C30.7817 143.963 28.6849 145.566 28.1386 147.151C28.375 144.483 28.7613 141.269 29.019 139.225C29.1505 139.222 29.2793 139.217 29.4045 139.209C32.7867 138.999 32.2822 135.771 32.1035 134.971C32.0794 134.856 32.06 134.792 32.06 134.792C34.4742 132.166 39.906 112.587 39.1818 110.438C38.4575 108.29 39.7853 106.38 40.0726 106.38C40.3598 106.38 40.751 103.992 40.1474 102.679C39.5439 101.366 42.803 100.172 42.803 100.172ZM125.773 47.5063C125.56 47.5577 125.346 47.6093 125.133 47.6643C125.128 47.5742 125.125 47.5257 125.125 47.5257C125.125 47.5257 125.366 47.5254 125.773 47.5063V47.5063ZM90.7006 29.4926C90.604 29.6121 90.5052 29.7292 90.4025 29.8409C90.362 29.8849 90.3202 29.9266 90.279 29.9694C90.2758 29.7452 90.276 29.5228 90.2784 29.307C90.4176 29.3717 90.5583 29.4336 90.7006 29.4925V29.4926ZM78.6087 52.6532L78.6529 53.3251C78.6529 53.3251 78.587 53.7343 78.4653 54.4368L78.6087 52.6532ZM134.081 45.9814L131.975 46.3445C132.274 46.2318 132.568 46.109 132.852 45.9738C133.063 45.8744 133.29 45.8126 133.523 45.7912C133.79 45.8183 134.054 45.8747 134.308 45.9594C134.232 45.9614 134.156 45.9688 134.081 45.9814V45.9814Z" fill="url(#paint0_linear)"/>
<path id="Vector_2" d="M62.8466 132.172C62.8466 132.172 60.4208 137.191 60.5393 137.546C60.6578 137.902 55.3265 142.167 55.3265 142.167L49.5214 138.02L50.1137 135.177C50.1137 135.177 56.6297 129.306 57.1036 128.628C57.5775 127.95 62.8466 132.172 62.8466 132.172Z" fill="#BE6F72"/>
<path id="Vector_3" d="M29.7366 149.157C33.7647 153.066 38.5036 151.881 40.7545 151.645C43.0055 151.408 55.0281 144.181 56.1844 143.707C56.6196 143.441 56.9819 143.072 57.2388 142.631H57.2411C58.0162 141.432 58.6967 140.175 59.2765 138.871C59.1959 138.892 55.2555 140.018 54.2604 138.868C54.2604 138.868 52.6018 136.836 52.2464 136.836C51.8909 136.836 52.2179 133.267 52.2179 133.267C52.2179 133.267 47.9813 135.651 46.5597 136.954C45.138 138.257 38.5036 139.854 38.5036 139.854C36.8624 140.569 35.2699 141.39 33.7362 142.314C30.5943 144.231 27.4453 146.934 29.7366 149.157Z" fill="#3F3D56"/>
<path id="Vector_4" opacity="0.1" d="M29.7366 149.157C33.7647 153.066 38.5036 151.882 40.7545 151.645C43.0055 151.408 55.0281 144.181 56.1844 143.707C56.6196 143.441 56.9819 143.072 57.2388 142.631C55.836 141.795 46.6781 147.617 44.1144 148.683C41.553 149.749 35.0679 149.157 31.3952 147.617C29.5613 146.849 31.4189 144.486 33.7362 142.314C30.5943 144.231 27.4453 146.934 29.7366 149.157Z" fill="black"/>
<path id="Vector_5" d="M30.2104 136.836C30.2104 136.836 28.523 149.512 28.952 151.171C29.3811 152.83 18.3632 145.484 18.3632 145.484C18.3632 145.484 22.2187 137.541 21.088 135.716C19.9573 133.891 30.2104 136.836 30.2104 136.836Z" fill="#BE6F72"/>
<path id="Vector_6" d="M19.6664 137.073C19.6664 137.073 26.5378 139.087 30.3289 138.85C33.6485 138.641 33.1532 135.438 32.9779 134.644C32.9542 134.53 32.9353 134.466 32.9353 134.466C35.3047 131.86 40.636 112.43 39.9251 110.298C39.2143 108.165 40.5175 106.27 40.7995 106.27C41.0814 106.27 41.4653 103.9 40.8729 102.597C40.2806 101.294 43.4793 100.109 43.4793 100.109C53.5494 101.057 64.3304 99.3865 64.3304 99.3865C64.3304 99.3865 63.5011 102.36 62.7903 103.545C62.0795 104.73 60.0654 111.483 60.0654 112.904C60.0654 114.326 56.8667 126.529 55.9189 127.121C55.4497 127.525 55.0944 128.044 54.8882 128.628C54.6385 129.217 54.4287 129.821 54.2603 130.438C54.6157 138.376 63.6196 135.295 64.9228 134.229C65.3074 133.915 65.6143 133.517 65.8198 133.064C66.0252 132.612 66.1237 132.119 66.1075 131.623C66.1075 131.623 77.8363 119.657 76.2962 114.681C74.756 109.705 80.0873 109.587 80.0873 109.587C80.0873 109.587 88.2619 106.033 89.3992 103.9C90.1005 102.588 96.2303 99.7088 100.846 97.6853C103.737 96.4176 106.033 95.4888 106.033 95.4888L104.111 88.5985L102.597 83.1677L99.7465 82.0967L90.6313 78.6658L74.2655 76.4148L72.7657 76.6091L56.8667 78.6658C56.8667 78.6658 33.6461 85.3002 31.2767 86.3475C28.9072 87.3948 27.604 97.7398 27.604 97.7398C27.604 97.7398 22.6282 114.918 22.8651 117.179C23.1021 119.439 21.2065 125.699 21.2065 125.699C21.2065 125.699 21.2065 132.786 20.4009 133.267C20.3942 133.274 20.3861 133.279 20.3772 133.281C19.5479 133.637 19.6664 137.073 19.6664 137.073Z" fill="#3F3D56"/>
<path id="Vector_7" opacity="0.1" d="M43.4794 100.109C53.5495 101.057 64.3305 99.3866 64.3305 99.3866C65.0413 97.1475 75.0001 90.9869 75.0001 90.9869C66.8303 88.9729 43.4794 100.109 43.4794 100.109Z" fill="black"/>
<path id="Vector_8" d="M54.2603 130.438C54.6157 138.376 63.6196 135.295 64.9228 134.229C65.1092 134.076 65.2784 133.902 65.4275 133.713C62.2808 134.871 56.7032 135.767 54.8882 128.628C54.6385 129.216 54.4287 129.821 54.2603 130.438V130.438Z" fill="#444053"/>
<path id="Vector_9" d="M19.6664 137.072C19.6664 137.072 26.5378 139.086 30.3289 138.85C33.6485 138.641 33.1532 135.438 32.9779 134.644C29.4996 134.535 23.5096 134.208 20.4009 133.267C20.3941 133.274 20.386 133.278 20.3772 133.281C19.5479 133.637 19.6664 137.072 19.6664 137.072Z" fill="#444053"/>
<path id="Vector_10" opacity="0.1" d="M54.2603 130.438C54.6157 138.376 63.6196 135.295 64.9228 134.229C65.1092 134.076 65.2784 133.902 65.4275 133.713C62.2808 134.871 56.7032 135.767 54.8882 128.628C54.6385 129.216 54.4287 129.821 54.2603 130.438V130.438Z" fill="black"/>
<path id="Vector_11" opacity="0.1" d="M19.6664 137.072C19.6664 137.072 26.5378 139.086 30.3289 138.85C33.6485 138.641 33.1532 135.438 32.9779 134.644C29.4996 134.535 23.5096 134.208 20.4009 133.267C20.3941 133.274 20.386 133.278 20.3772 133.281C19.5479 133.637 19.6664 137.072 19.6664 137.072Z" fill="black"/>
<path id="Vector_12" d="M2.72485 161.833C6.39749 164.321 11.9657 163.136 11.9657 163.136C11.9657 163.136 20.3772 159.108 22.8651 159.108C25.3531 159.108 31.3952 156.62 31.3952 156.62L31.1914 154.943L30.2104 146.906C30.2104 146.906 20.9838 146.669 20.6142 145.839C20.6142 145.839 18.9556 141.759 18.3632 143.266C17.7708 144.773 8.88541 155.436 6.63443 155.436C5.56107 155.436 3.78872 156.324 2.62296 157.523C1.34583 158.84 0.80323 160.532 2.72485 161.833Z" fill="#3F3D56"/>
<path id="Vector_13" opacity="0.1" d="M34.5939 91.8159C34.5939 91.8159 42.2946 96.6733 40.1621 97.7395C38.0296 98.8058 34.5939 91.8159 34.5939 91.8159Z" fill="black"/>
<path id="Vector_14" opacity="0.1" d="M31.3951 101.175C31.3951 101.175 38.0296 107.474 35.5417 107.642C33.0538 107.81 31.3951 101.175 31.3951 101.175Z" fill="black"/>
<path id="Vector_15" opacity="0.1" d="M24.2869 121.197C24.2869 121.197 27.655 127.528 26.3856 128.628C25.1161 129.727 24.2869 121.197 24.2869 121.197Z" fill="black"/>
<path id="Vector_16" opacity="0.1" d="M61.3686 127.595C60.1839 128.779 72.6235 123.685 69.7802 123.448C66.9368 123.211 61.3686 127.595 61.3686 127.595Z" fill="black"/>
<path id="Vector_17" d="M86.2479 38.7404C86.2479 38.7404 86.3877 38.7191 86.6436 38.6812C88.1174 38.4561 93.4582 37.6173 98.2492 36.5771C99.4173 36.3236 100.55 36.0582 101.588 35.7857C105.258 34.8237 107.72 33.7859 106.151 32.9353C104.073 31.8074 102.979 29.7579 102.4 27.995C102.346 27.822 102.294 27.6538 102.246 27.4879C101.99 26.5985 101.83 25.6842 101.768 24.7607C101.768 24.7607 88.3804 20.0218 90.9868 24.7607C92.2663 27.0851 91.4062 28.9831 90.1978 30.3123C89.3687 31.1907 88.3929 31.918 87.3142 32.4614L86.2479 38.7404Z" fill="#BE6F72"/>
<path id="Vector_18" opacity="0.1" d="M100.583 35.0676C100.583 35.0676 95.7944 38.5033 90.9027 35.66C86.0109 32.8167 79.6134 60.7761 79.6134 60.7761L72.979 77.1253C72.979 77.1253 68.6808 80.6795 74.0286 82.2196C79.3765 83.7598 91.2427 80.6795 94.2542 85.1814C97.2658 89.6834 102.971 90.3942 103.554 90.3942C104.137 90.3942 106.395 73.4527 106.395 73.4527L106.981 48.9289L100.583 35.0676Z" fill="black"/>
<path id="Vector_19" d="M74.2655 81.272C79.6134 82.8121 91.4795 79.7319 94.4911 84.2338C95.76 86.0628 97.5297 87.487 99.5878 88.3353C100.919 88.933 102.339 89.3084 103.791 89.4466C103.869 89.4466 103.981 89.1362 104.111 88.5983C104.945 85.1697 106.632 72.505 106.632 72.505L107.217 47.9813L101.588 35.7857L100.82 34.12C100.063 34.6226 99.2421 35.0218 98.3794 35.3071C97.2023 35.7431 95.9439 35.9158 94.6929 35.813C93.4419 35.7102 92.2286 35.3345 91.1384 34.7124C89.7025 33.8783 88.1386 35.6957 86.6435 38.6812C83.0443 45.8701 79.8503 59.8285 79.8503 59.8285L73.2159 76.1777C73.0582 76.3132 72.9079 76.4571 72.7657 76.6089C71.8226 77.6017 70.0574 80.0612 74.2655 81.272Z" fill="#F3F5F9"/>
<path id="Vector_20" opacity="0.1" d="M99.7466 82.0965C99.4828 84.1654 99.4296 86.2557 99.5878 88.3353C99.78 91.2925 100.152 94.2352 100.701 97.1473C100.735 97.3302 100.783 97.5101 100.846 97.6851C103.737 96.4175 106.033 95.4887 106.033 95.4887L104.111 88.5983C104.945 85.1697 106.632 72.505 106.632 72.505L107.217 47.9813L101.588 35.7857C105.258 34.8237 107.72 33.7859 106.151 32.9353C103.872 31.6984 102.775 29.3503 102.246 27.4879C101.279 28.8312 100.148 30.0483 98.8793 31.1108C98.832 31.1511 98.8059 31.1724 98.8059 31.1724L98.3794 35.3071L98.249 36.5771L97.9766 39.2143C97.9766 39.2143 99.2798 70.3725 100.228 72.1496C101.175 73.9267 100.701 77.3624 99.8721 81.3905C99.8248 81.6179 99.7845 81.8525 99.7466 82.0965Z" fill="black"/>
<path id="Vector_21" d="M100.346 80.9168C99.5168 84.9449 100.228 91.5793 101.175 96.6736C102.123 101.768 112.193 98.4507 114.089 96.6736C115.984 94.8966 121.553 94.0673 121.553 94.0673C121.553 94.0673 121.79 70.8467 123.567 67.8849C124.41 66.4798 124.614 61.8949 124.593 57.4664C124.576 53.4881 124.379 49.6378 124.306 48.3322C124.287 48.0289 124.278 47.863 124.278 47.863C124.278 47.863 131.978 34.8311 131.86 33.8833C131.741 32.9355 129.49 32.8171 129.49 32.8171C129.49 32.8171 120.96 26.1826 119.539 27.0119C118.117 27.8412 114.207 25.7087 114.207 25.7087C114.207 25.7087 109.253 26.2703 108.229 25.3154C108.167 25.2623 108.117 25.1951 108.086 25.1193C108.054 25.0435 108.041 24.9613 108.047 24.8794C108.163 23.363 102.998 20.1239 102.839 20.0244C107.191 23.9411 100.152 29.9761 99.3533 30.6372C99.3059 30.6774 99.2799 30.6988 99.2799 30.6988L98.4506 38.7407C98.4506 38.7407 99.7537 69.8989 100.702 71.676C101.649 73.4531 101.175 76.8888 100.346 80.9168Z" fill="#67647E"/>
<path id="Vector_22" d="M100.805 47.6621C101.132 47.6621 101.397 47.3969 101.397 47.0698C101.397 46.7426 101.132 46.4774 100.805 46.4774C100.477 46.4774 100.212 46.7426 100.212 47.0698C100.212 47.3969 100.477 47.6621 100.805 47.6621Z" fill="#444053"/>
<path id="Vector_23" opacity="0.1" d="M99.5902 31.1108L103.189 34.5939L108.466 25.789C108.403 25.7359 108.354 25.6687 108.323 25.5929C108.291 25.5172 108.278 25.435 108.284 25.353C108.4 23.8366 103.234 20.5976 103.076 20.498C107.428 24.4147 100.389 30.4497 99.5902 31.1108Z" fill="black"/>
<path id="Vector_24" opacity="0.1" d="M101.989 66.6177C102.316 66.6177 102.582 66.3525 102.582 66.0253C102.582 65.6982 102.316 65.433 101.989 65.433C101.662 65.433 101.397 65.6982 101.397 66.0253C101.397 66.3525 101.662 66.6177 101.989 66.6177Z" fill="black"/>
<path id="Vector_25" d="M101.989 66.381C102.316 66.381 102.582 66.1158 102.582 65.7886C102.582 65.4615 102.316 65.1963 101.989 65.1963C101.662 65.1963 101.397 65.4615 101.397 65.7886C101.397 66.1158 101.662 66.381 101.989 66.381Z" fill="#444053"/>
<path id="Vector_26" d="M99.3531 30.6372L102.952 34.1203L108.229 25.3154C108.166 25.2623 108.117 25.1951 108.086 25.1193C108.054 25.0435 108.041 24.9613 108.047 24.8794C108.163 23.363 102.997 20.1239 102.839 20.0244C107.191 23.9411 100.152 29.9761 99.3531 30.6372Z" fill="#67647E"/>
<path id="Vector_27" d="M96.5375 63.8325L102.934 63.9782C103.444 63.9899 103.867 63.5861 103.878 63.0765L104.233 47.505C104.245 46.9953 103.841 46.5728 103.331 46.5612L96.9344 46.4154C96.4248 46.4038 96.0022 46.8075 95.9906 47.3172L95.6358 62.8886C95.6241 63.3983 96.0279 63.8208 96.5375 63.8325Z" fill="#3F3D56"/>
<path id="Vector_28" opacity="0.1" d="M96.5375 63.8325L102.934 63.9782C103.444 63.9899 103.867 63.5861 103.878 63.0765L104.233 47.505C104.245 46.9953 103.841 46.5728 103.331 46.5612L96.9344 46.4154C96.4248 46.4038 96.0022 46.8075 95.9906 47.3172L95.6358 62.8886C95.6241 63.3983 96.0279 63.8208 96.5375 63.8325Z" fill="black"/>
<path id="Vector_29" d="M96.5813 64.2191L102.978 64.3648C103.488 64.3765 103.91 63.9727 103.922 63.4631L104.277 47.8916C104.288 47.382 103.885 46.9594 103.375 46.9478L96.9781 46.802C96.4685 46.7904 96.0459 47.1941 96.0343 47.7038L95.6795 63.2752C95.6678 63.7849 96.0716 64.2075 96.5813 64.2191Z" fill="#3F3D56"/>
<path id="Vector_30" d="M100.199 53.2627C100.915 53.2627 101.495 52.6826 101.495 51.9671C101.495 51.2516 100.915 50.6715 100.199 50.6715C99.4837 50.6715 98.9037 51.2516 98.9037 51.9671C98.9037 52.6826 99.4837 53.2627 100.199 53.2627Z" fill="#67647E"/>
<path id="Vector_31" opacity="0.1" d="M55.5635 79.8503C58.5253 81.1535 77.9547 77.7178 80.7981 76.8884C83.6414 76.0591 87.7879 69.6616 85.7739 65.0412C83.7599 60.4208 86.4848 55.9189 86.4848 55.9189C86.4848 55.9189 90.7498 46.7965 91.6975 45.0194C92.6453 43.2423 94.6214 38.0674 94.8963 37.2002C94.9075 37.1031 94.8983 37.0046 94.8693 36.9112C94.8404 36.8178 94.7923 36.7314 94.7281 36.6576C93.958 35.4848 90.9867 33.4091 90.9867 33.4091C90.1503 33.7124 90.046 31.3169 90.0792 29.5564C90.0982 28.5707 90.1574 27.7841 90.1574 27.7841C90.1574 27.7841 89.7641 28.1845 89.122 28.7295C88.8874 28.9261 88.6196 29.1441 88.3235 29.3692C87.2071 30.2616 85.9433 30.952 84.5892 31.4093C81.7459 32.2505 77.7178 36.134 77.7178 36.134L78.9025 54.329C78.9025 54.329 76.1777 71.4387 73.3343 74.756C70.491 78.0732 61.961 77.9547 59.1177 77.9547C56.2743 77.9547 55.5635 79.8503 55.5635 79.8503Z" fill="black"/>
<path id="Vector_32" d="M55.3265 79.1396C58.2883 80.4428 77.7178 77.0071 80.5611 76.1778C83.4045 75.3485 87.551 68.9509 85.537 64.3305C83.5229 59.7101 86.2478 55.2081 86.2478 55.2081C86.2478 55.2081 90.5128 46.0858 91.4606 44.3087C92.4084 42.5316 94.3845 37.3567 94.6594 36.4895C94.6705 36.3924 94.6614 36.2939 94.6324 36.2005C94.6034 36.1071 94.5553 36.0207 94.4911 35.9469C93.721 34.7741 90.7498 32.6984 90.7498 32.6984C89.9133 33.0017 89.8091 30.6062 89.8423 28.8457C89.8612 27.86 89.9205 27.0734 89.9205 27.0734C89.9205 27.0734 89.5271 27.4738 88.885 28.0188C88.6505 28.2154 88.3827 28.4334 88.0865 28.6585C86.9701 29.5509 85.7064 30.2413 84.3523 30.6986C81.509 31.5398 77.4809 35.4233 77.4809 35.4233L78.6656 53.6183C78.6656 53.6183 75.9407 70.728 73.0974 74.0453C70.2541 77.3625 61.7241 77.244 58.8807 77.244C56.0374 77.244 55.3265 79.1396 55.3265 79.1396Z" fill="#67647E"/>
<path id="Vector_33" opacity="0.1" d="M87.551 27.5474C87.551 27.5474 87.6624 28.1729 87.8496 29.1325C88.487 32.3858 90.0081 39.4894 91.1052 39.2145C91.8919 39.0178 93.2211 37.6246 94.2542 36.4209C93.4841 35.2481 90.5128 33.1724 90.5128 33.1724C89.6764 33.4757 89.5722 31.0802 89.6053 29.3197L88.6481 28.4928L87.551 27.5474Z" fill="black"/>
<path id="Vector_34" d="M87.788 27.0734C87.788 27.0734 87.8993 27.6989 88.0865 28.6585C88.7239 31.9118 90.2451 39.0154 91.3421 38.7405C92.1288 38.5438 93.458 37.1506 94.4911 35.9469C93.7211 34.7741 90.7498 32.6984 90.7498 32.6984C89.9133 33.0017 89.8091 30.6062 89.8423 28.8457L88.885 28.0188L87.788 27.0734Z" fill="#67647E"/>
<path id="Vector_35" d="M80.2058 61.9609C80.2058 61.9609 86.1294 60.7762 87.788 58.1698C89.4466 55.5634 100.73 53.3125 99.3533 56.0373C97.9766 58.7622 87.788 67.678 87.788 67.678L83.3737 74.0001L77.4809 72.505L74.9994 67.678L80.2058 61.9609Z" fill="#BE6F72"/>
<path id="Vector_36" opacity="0.1" d="M94.2207 68.7202C94.2207 68.7202 88.4842 70.8527 87.6206 73.6961C86.7569 76.5394 94.2207 68.7202 94.2207 68.7202Z" fill="black"/>
<path id="Vector_37" opacity="0.1" d="M97.7396 72.031C97.7396 72.031 98.2616 74.9911 91.0699 74.755L97.7396 72.031Z" fill="black"/>
<path id="Vector_38" opacity="0.1" d="M128.779 34.1199L131.386 33.8829C131.386 33.8829 134.229 36.0154 136.362 36.0154C138.494 36.0154 139.797 38.7403 139.797 38.7403C139.797 38.7403 143.351 40.3989 144.536 40.6358C145.721 40.8728 147.735 42.0575 147.143 42.5314C146.55 43.0053 147.261 44.0715 148.327 44.9008C149.393 45.7301 151.052 49.9952 149.63 50.5875C148.209 51.1798 144.299 52.3646 143.233 52.9569C142.86 53.1214 142.456 53.2064 142.048 53.2064C141.64 53.2064 141.237 53.1214 140.863 52.9569C140.863 52.9569 134.587 44.7824 131.387 46.3225C128.187 47.8627 123.803 47.8627 123.803 47.8627L120.368 40.6359L128.779 34.1199Z" fill="black"/>
<path id="Vector_39" d="M74.2656 73.1023C74.4984 73.5046 74.817 73.8507 75.1987 74.116C75.5803 74.3814 76.0157 74.5595 76.4739 74.6377C78.7931 74.9087 81.1434 74.6916 83.3737 74.0003C83.3737 74.0003 71.4388 70.2092 82.9306 60.9897H79.8504L78.8244 60.6011L79.2935 58.1461L79.9688 36.0157L77.4809 35.4233C77.4809 35.4233 75.4787 49.9954 75.0001 51.7725C74.5191 53.5496 74.1637 60.421 74.1637 60.421C74.1637 60.421 73.6898 63.2643 72.979 64.686C72.4435 65.7546 72.5809 70.5741 74.2656 73.1023Z" fill="#67647E"/>
<path id="Vector_40" opacity="0.1" d="M74.7395 73.1021C74.9724 73.5044 75.2909 73.8505 75.6726 74.1159C76.0542 74.3813 76.4896 74.5594 76.9478 74.6376C79.267 74.9086 81.6173 74.6915 83.8476 74.0002C83.8476 74.0002 71.9127 70.2091 83.4046 60.9895H80.3243L79.2983 60.601C77.6113 63.5888 74.9551 68.9059 74.7395 73.1021Z" fill="black"/>
<path id="Vector_41" d="M74.2656 73.1021C74.4985 73.5044 74.8171 73.8505 75.1987 74.1159C75.5804 74.3813 76.0157 74.5594 76.474 74.6376C78.7932 74.9086 81.1435 74.6915 83.3738 74.0002C83.3738 74.0002 71.4389 70.2091 82.9307 60.9895H79.8504L78.8244 60.601C77.1374 63.5888 74.4812 68.9059 74.2656 73.1021Z" fill="#67647E"/>
<path id="Vector_42" opacity="0.1" d="M90.1978 30.3123C92.2224 31.2315 94.4818 31.5022 96.6663 31.0874C98.8508 30.6725 100.854 29.5924 102.4 27.995C102.346 27.822 102.294 27.6538 102.246 27.4879C101.99 26.5985 101.83 25.6842 101.768 24.7607C101.768 24.7607 88.3804 20.0218 90.9868 24.7607C92.2663 27.0851 91.4062 28.9831 90.1978 30.3123Z" fill="black"/>
<path id="Vector_43" d="M83.8784 20.0219V20.1261C83.8831 20.4768 83.9021 20.8227 83.9377 21.1639C83.9732 21.4909 84.0229 21.8155 84.0846 22.133C84.5491 24.4564 85.7659 26.5621 87.5469 28.1248C89.3278 29.6874 91.5739 30.6201 93.9379 30.7787C96.3019 30.9372 98.6524 30.3128 100.626 29.002C102.6 27.6911 104.087 25.7668 104.857 23.5263C104.929 23.3178 104.995 23.1069 105.052 22.8936C105.311 21.9584 105.441 20.9923 105.44 20.0219C105.44 19.7731 105.431 19.5243 105.414 19.2802C105.222 16.4919 103.954 13.8874 101.879 12.0157C99.8028 10.1441 97.0814 9.15178 94.2881 9.24797C91.4949 9.34416 88.8481 10.5214 86.9061 12.5314C84.9641 14.5413 83.8785 17.227 83.8784 20.0219V20.0219Z" fill="#BE6F72"/>
<path id="Vector_44" opacity="0.1" d="M83.8784 20.1262C83.9367 20.4688 83.9566 20.8169 83.9377 21.164C83.9348 21.3517 83.9451 21.5393 83.9685 21.7256C83.9893 21.8659 84.0283 22.0029 84.0846 22.1331C84.5205 23.1567 85.9422 23.8178 86.8805 23.1591C87.2421 22.8616 87.53 22.4845 87.7217 22.0573C88.7168 20.2068 90.1029 18.0766 92.2828 18.0411C93.2117 18.0245 94.086 18.4155 94.984 18.6453C95.8797 18.8728 96.9483 18.9012 97.6188 18.2899C98.133 17.8207 98.3771 17.0175 99.0689 16.8516C99.7703 16.6834 100.396 17.3208 100.713 17.9416C101.031 18.56 101.282 19.2921 101.924 19.612C102.208 19.7542 102.543 19.7945 102.822 19.9461C104.111 20.6522 103.519 23.1259 104.857 23.5264C104.899 23.5394 104.942 23.5497 104.985 23.5572C105.007 23.3368 105.03 23.1141 105.052 22.8937C105.173 21.69 105.293 20.4856 105.414 19.2803C105.222 16.492 103.954 13.8874 101.879 12.0158C99.8028 10.1441 97.0814 9.15178 94.2881 9.24797C91.4949 9.34416 88.8481 10.5214 86.9061 12.5314C84.9641 14.5413 83.8785 17.227 83.8784 20.0219V20.1262Z" fill="black"/>
<path id="Vector_45" d="M103.03 3.92853C104.297 4.46523 105.615 5.2914 105.9 6.58501C105.968 7.16116 105.988 7.74196 105.96 8.32143C106.02 9.48854 106.576 10.5717 106.931 11.69C107.286 12.8082 107.413 14.1134 106.701 15.0644C106.479 15.3618 106.184 15.6081 105.984 15.9198C105.725 16.4031 105.583 16.9409 105.57 17.4893L104.985 23.3208C103.481 23.0407 104.151 20.4353 102.821 19.7093C102.542 19.5568 102.209 19.516 101.924 19.3738C101.282 19.054 101.031 18.3232 100.713 17.7033C100.395 17.0834 99.7698 16.4469 99.0677 16.6148C98.3778 16.7797 98.1337 17.5847 97.6195 18.0533C96.9481 18.6649 95.88 18.6364 94.983 18.4075C94.086 18.1787 93.2115 17.7873 92.2831 17.8029C90.1026 17.8397 88.7162 19.9688 87.7209 21.8192C87.5302 22.2474 87.2423 22.6252 86.88 22.9227C85.8216 23.6671 84.1496 22.7299 83.968 21.4878C83.8663 20.7927 84.0833 20.0159 83.682 19.4275C83.2703 18.8237 82.4132 18.7116 81.7332 18.3982C80.002 17.6003 79.465 15.4387 79.7531 13.6258C79.9606 12.3192 80.4805 10.974 80.055 9.71631C79.9083 9.28283 79.6547 8.88686 79.5186 8.45028C79.1383 7.23085 79.7585 5.8851 80.7361 5.01939C81.779 4.20327 82.9742 3.60331 84.2517 3.25458C87.4839 2.1717 90.8779 1.12579 94.3148 0.902733C95.8204 0.805017 97.7925 0.334166 98.9884 1.27196C100.396 2.37536 101.279 3.18656 103.03 3.92853Z" fill="#3F3D56"/>
<path id="Vector_46" opacity="0.1" d="M100.212 38.3029C100.539 38.3029 100.805 38.0377 100.805 37.7105C100.805 37.3834 100.539 37.1182 100.212 37.1182C99.8851 37.1182 99.6199 37.3834 99.6199 37.7105C99.6199 38.0377 99.8851 38.3029 100.212 38.3029Z" fill="black"/>
<path id="Vector_47" d="M100.212 38.0658C100.539 38.0658 100.805 37.8006 100.805 37.4735C100.805 37.1463 100.539 36.8811 100.212 36.8811C99.8851 36.8811 99.6199 37.1463 99.6199 37.4735C99.6199 37.8006 99.8851 38.0658 100.212 38.0658Z" fill="#444053"/>
<path id="Vector_48" opacity="0.1" d="M104.003 75.5032C104.33 75.5032 104.596 75.238 104.596 74.9108C104.596 74.5837 104.33 74.3185 104.003 74.3185C103.676 74.3185 103.411 74.5837 103.411 74.9108C103.411 75.238 103.676 75.5032 104.003 75.5032Z" fill="black"/>
<path id="Vector_49" d="M104.003 75.2663C104.33 75.2663 104.596 75.0011 104.596 74.6739C104.596 74.3468 104.33 74.0815 104.003 74.0815C103.676 74.0815 103.411 74.3468 103.411 74.6739C103.411 75.0011 103.676 75.2663 104.003 75.2663Z" fill="#444053"/>
<path id="Vector_50" opacity="0.1" d="M101.989 85.3366C102.316 85.3366 102.582 85.0714 102.582 84.7442C102.582 84.4171 102.316 84.1519 101.989 84.1519C101.662 84.1519 101.397 84.4171 101.397 84.7442C101.397 85.0714 101.662 85.3366 101.989 85.3366Z" fill="black"/>
<path id="Vector_51" d="M101.989 85.0995C102.316 85.0995 102.582 84.8343 102.582 84.5071C102.582 84.18 102.316 83.9148 101.989 83.9148C101.662 83.9148 101.397 84.18 101.397 84.5071C101.397 84.8343 101.662 85.0995 101.989 85.0995Z" fill="#444053"/>
<path id="Vector_52" opacity="0.1" d="M81.6274 47.0697C81.6274 47.0697 80.3242 55.9188 81.6274 57.459C82.9306 58.9991 81.6274 47.0697 81.6274 47.0697Z" fill="black"/>
<path id="Vector_53" opacity="0.1" d="M120.368 63.5011C120.368 63.5011 122.856 68.8608 120.368 74.0001C117.88 79.1395 116.34 81.226 117.169 84.507C117.998 87.7879 120.368 63.5011 120.368 63.5011Z" fill="black"/>
<path id="Vector_54" opacity="0.1" d="M2.72485 161.833C6.39749 164.321 11.9657 163.136 11.9657 163.136C11.9657 163.136 20.3772 159.108 22.8651 159.108C25.3531 159.108 31.3952 156.62 31.3952 156.62L31.1914 154.943C28.7366 155.417 23.1542 156.542 22.5097 157.094C21.6804 157.805 11.4918 161.241 11.4918 161.241C11.4918 161.241 4.55405 160.374 2.62296 157.523C1.34583 158.841 0.80323 160.532 2.72485 161.833Z" fill="black"/>
<g id="Group" opacity="0.1">
<path id="Vector_55" opacity="0.1" d="M105.96 7.37354C105.954 7.24518 105.954 7.11635 105.956 6.98743C105.966 7.13462 105.968 7.28267 105.966 7.43117C105.965 7.41184 105.961 7.39292 105.96 7.37354Z" fill="black"/>
<path id="Vector_56" opacity="0.1" d="M81.7332 17.4503C82.4132 17.7638 83.2703 17.8758 83.682 18.4796C84.0832 19.068 83.8663 19.8448 83.968 20.5399C84.1496 21.782 85.8216 22.7192 86.88 21.9748C87.2423 21.6774 87.5302 21.2995 87.7209 20.8713C88.7161 19.0209 90.1026 16.8918 92.2831 16.8551C93.2115 16.8394 94.086 17.2308 94.983 17.4597C95.88 17.6886 96.9481 17.7171 97.6195 17.1054C98.1337 16.6369 98.3778 15.8318 99.0677 15.6669C99.7698 15.499 100.395 16.1355 100.713 16.7554C101.031 17.3753 101.282 18.1061 101.924 18.4259C102.209 18.5681 102.542 18.6089 102.821 18.7614C104.151 19.4874 103.481 22.0929 104.985 22.3729C105.18 20.4291 105.375 18.4853 105.57 16.5415C105.583 15.993 105.725 15.4553 105.984 14.9719C106.184 14.6603 106.479 14.4139 106.701 14.1165C106.97 13.7483 107.138 13.3159 107.188 12.8627C107.315 13.6318 107.141 14.4203 106.701 15.0643C106.479 15.3617 106.184 15.608 105.984 15.9197C105.725 16.403 105.583 16.9408 105.57 17.4892C105.375 19.4331 105.18 21.3769 104.985 23.3207C103.481 23.0406 104.151 20.4352 102.821 19.7092C102.542 19.5567 102.209 19.5159 101.924 19.3737C101.282 19.0539 101.031 18.3231 100.713 17.7032C100.395 17.0833 99.7698 16.4468 99.0677 16.6147C98.3778 16.7796 98.1337 17.5846 97.6195 18.0532C96.9481 18.6648 95.88 18.6363 94.983 18.4074C94.086 18.1786 93.2115 17.7872 92.2831 17.8028C90.1026 17.8396 88.7161 19.9687 87.7209 21.8191C87.5302 22.2473 87.2423 22.6251 86.88 22.9226C85.8216 23.667 84.1496 22.7298 83.968 21.4877C83.8663 20.7926 84.0832 20.0158 83.682 19.4274C83.2702 18.8236 82.4132 18.7115 81.7332 18.3981C80.15 17.6684 79.5679 15.7986 79.6998 14.0977C79.8152 15.5002 80.4414 16.8549 81.7332 17.4503Z" fill="black"/>
<path id="Vector_57" opacity="0.1" d="M79.5185 7.50232C79.6547 7.9389 79.9083 8.33487 80.055 8.76834C80.212 9.27171 80.2579 9.80317 80.1896 10.326C80.1658 10.1186 80.1207 9.91424 80.055 9.71612C79.9083 9.28265 79.6547 8.88668 79.5185 8.4501C79.3972 8.04949 79.3734 7.62564 79.4494 7.21399C79.4667 7.3114 79.4897 7.40768 79.5185 7.50232V7.50232Z" fill="black"/>
</g>
<path id="Vector_58" opacity="0.1" d="M114.326 60.1794C117.051 59.5823 123.448 57.6962 123.448 57.6962C123.448 57.6962 123.882 57.6085 124.593 57.4664C124.576 53.4881 124.379 49.6377 124.306 48.3322L124.277 48.3369C124.277 48.3369 118.828 50.114 117.524 51.0618C116.221 52.0095 112.193 51.7726 112.193 51.7726C112.193 51.7726 105.914 52.128 100.701 57.9332C95.4886 63.7383 111.601 60.7765 114.326 60.1794Z" fill="black"/>
<path id="Vector_59" d="M140.954 49.6065C141.198 49.7172 141.41 49.8881 141.57 50.1031C141.73 50.3182 141.832 50.5704 141.868 50.836C141.903 51.1016 141.871 51.3718 141.773 51.6214C141.676 51.8709 141.516 52.0915 141.31 52.2625C139.867 53.4574 137.759 54.8874 135.748 55.0897C132.392 55.4273 124.315 57.0473 123.513 57.2091C123.469 57.2179 123.428 57.228 123.386 57.2405C122.72 57.4362 116.893 59.1427 114.326 59.7053C111.601 60.3025 95.4886 63.2643 100.701 57.4591C103.626 54.1017 107.667 51.9166 112.077 51.3079C112.147 51.3015 112.216 51.2999 112.286 51.3033C112.895 51.3316 116.338 51.4503 117.524 50.5877C118.144 50.1989 118.801 49.8719 119.485 49.6114C122.061 48.5475 124.747 47.773 127.494 47.302L133.067 46.3304C133.385 46.2749 133.712 46.3167 134.006 46.4501L140.954 49.6065Z" fill="#BE6F72"/>
<path id="Vector_60" d="M129.253 34.1199L131.86 33.8829C131.86 33.8829 134.703 36.0154 136.836 36.0154C138.968 36.0154 140.271 38.7403 140.271 38.7403C140.271 38.7403 143.825 40.3989 145.01 40.6358C146.195 40.8728 148.209 42.0575 147.617 42.5314C147.024 43.0053 147.735 44.0715 148.801 44.9008C149.867 45.7301 151.526 49.9952 150.104 50.5875C148.683 51.1798 144.773 52.3646 143.707 52.9569C143.334 53.1214 142.93 53.2064 142.522 53.2064C142.114 53.2064 141.711 53.1214 141.337 52.9569C141.337 52.9569 135.061 44.7824 131.861 46.3225C128.661 47.8627 124.277 47.8627 124.277 47.8627L120.842 40.6359L129.253 34.1199Z" fill="#67647E"/>
</g>
<defs>
<linearGradient id="paint0_linear" x1="151849" y1="76980.7" x2="151849" y2="27481.8" gradientUnits="userSpaceOnUse">
<stop stop-color="#808080" stop-opacity="0.25"/>
<stop offset="0.53514" stop-color="#808080" stop-opacity="0.12"/>
<stop offset="1" stop-color="#808080" stop-opacity="0.1"/>
</linearGradient>
</defs>
</svg>
