<svg width="414" height="264" viewBox="0 0 414 264" fill="none" xmlns="http://www.w3.org/2000/svg">
<g id="kite">
<path id="tail" d="M322 107C293.965 109.55 271.858 113.993 248.147 122.086C221.029 131.343 266.816 138.439 280.642 141.346C295.658 144.502 325.858 152.06 301.649 160.444C282.635 167.03 255.291 168.87 233.376 172C211.325 175.15 177.775 175.973 158.866 182.753C149.257 186.199 200.169 195.878 204.82 198C221.694 205.701 196.612 215.531 185.454 219.747C166.784 226.801 144.941 229.18 123.089 232.907C97.7241 237.234 72.8568 241.868 48.9072 247.833C33.6465 251.635 7.86918 255.305 0 263" stroke="#22215B" stroke-linecap="round" stroke-linejoin="round"/>
<mask id="mask0" mask-type="alpha" maskUnits="userSpaceOnUse" x="332" y="14" width="57" height="87">
<g id="kiteBody">
<path id="Polygon 1" d="M359.23 49.9116L336.865 35.6287L380.581 14.2555L359.23 49.9116Z" fill="white"/>
<path id="Polygon 3" d="M357.242 52.9721L332.252 100.367L336.346 37.306L357.242 52.9721Z" fill="white"/>
<path id="Polygon 4" d="M361.421 56.1052L334.338 99.1753L387.958 65.5853L361.421 56.1052Z" fill="white"/>
<path id="Polygon 2" d="M363.26 52.9989L381.198 14.447L388.048 64.3572L363.26 52.9989Z" fill="white"/>
</g>
</mask>
<g mask="url(#mask0)">
<rect id="Rectangle 2" x="332.46" y="12.5032" width="56.3684" height="89.921" fill="#22215B"/>
</g>
</g>
</svg>
