<svg width="699" height="387" viewBox="0 0 699 387" fill="none" xmlns="http://www.w3.org/2000/svg">
<g id="TheGirl">
<path id="ground" d="M699 374.633H0V376.088H699V374.633Z" fill="#503D56"/>
<g id="plantShort2">
<path id="Vector" d="M271.718 363.055C270.975 363.071 270.256 363.323 269.667 363.776C267.919 359.162 265.214 356.196 262.174 356.196C259.134 356.196 256.428 359.162 254.681 363.776C254.092 363.323 253.373 363.071 252.63 363.055C249.176 363.055 246.377 368.89 246.377 376.088H277.971C277.971 368.89 275.171 363.055 271.718 363.055Z" fill="#B563FF"/>
<path id="Vector_2" d="M270.69 376.088H225.989V375.361C225.989 364.95 230.069 356.795 235.276 356.795C236.133 356.8 236.974 357.018 237.726 357.429C240.336 351.046 244.175 347.406 248.339 347.406C252.504 347.406 256.343 351.046 258.953 357.429C259.705 357.018 260.546 356.8 261.403 356.795C266.61 356.795 270.69 364.95 270.69 375.361V376.088ZM227.453 374.634H269.226C269.045 365.68 265.536 358.25 261.403 358.25C260.539 358.271 259.705 358.569 259.023 359.098L258.252 359.656L257.915 358.766C255.531 352.471 252.04 348.861 248.339 348.861C244.638 348.861 241.148 352.471 238.764 358.766L238.427 359.656L237.656 359.098C236.974 358.569 236.14 358.271 235.276 358.25C231.143 358.25 227.634 365.68 227.453 374.634Z" fill="#503D56"/>
</g>
<g id="plantShort1">
<path id="Vector_3" d="M496.709 363.055C495.966 363.071 495.247 363.323 494.658 363.776C492.91 359.162 490.204 356.196 487.165 356.196C484.125 356.196 481.419 359.162 479.671 363.776C479.082 363.323 478.364 363.071 477.62 363.055C474.167 363.055 471.367 368.89 471.367 376.088H502.962C502.962 368.89 500.162 363.055 496.709 363.055Z" fill="#B563FF"/>
<path id="Vector_4" d="M531.359 376.088H486.658V375.361C486.658 364.95 490.737 356.795 495.945 356.795C496.801 356.8 497.643 357.018 498.395 357.429C501.005 351.046 504.844 347.406 509.009 347.406C513.172 347.406 517.011 351.046 519.622 357.429C520.373 357.018 521.215 356.8 522.071 356.795C527.279 356.795 531.359 364.95 531.359 375.361V376.088ZM488.121 374.634H529.895C529.714 365.68 526.205 358.25 522.071 358.25C521.208 358.271 520.374 358.569 519.692 359.098L518.921 359.656L518.584 358.766C516.199 352.471 512.709 348.861 509.009 348.861C505.307 348.861 501.817 352.471 499.433 358.766L499.096 359.656L498.324 359.098C497.642 358.569 496.808 358.271 495.945 358.25C491.812 358.25 488.302 365.68 488.121 374.634Z" fill="#503D56"/>
</g>
<g id="plantShort3_3">
<path id="Vector_5" d="M193.809 363.055C193.066 363.071 192.347 363.323 191.758 363.776C190.01 359.162 187.304 356.196 184.265 356.196C181.225 356.196 178.519 359.162 176.771 363.776C176.182 363.323 175.464 363.071 174.72 363.055C171.267 363.055 168.467 368.89 168.467 376.088H200.062C200.062 368.89 197.262 363.055 193.809 363.055Z" fill="#B563FF"/>
<path id="Vector_6" d="M198.605 376.088H153.905V375.361C153.905 364.95 157.984 356.795 163.192 356.795C164.048 356.8 164.89 357.018 165.641 357.429C168.252 351.046 172.09 347.406 176.255 347.406C180.42 347.406 184.259 351.046 186.869 357.429C187.62 357.018 188.462 356.8 189.319 356.795C194.526 356.795 198.605 364.95 198.605 375.361V376.088ZM155.369 374.634H197.142C196.96 365.68 193.452 358.25 189.319 358.25C188.455 358.271 187.621 358.569 186.939 359.098L186.168 359.656L185.831 358.766C183.446 352.471 179.956 348.861 176.255 348.861C172.554 348.861 169.064 352.471 166.68 358.766L166.343 359.656L165.572 359.098C164.889 358.569 164.055 358.271 163.192 358.25C159.059 358.25 155.55 365.68 155.369 374.634Z" fill="#503D56"/>
</g>
<g id="plantShort3_2">
<path id="Vector_7" d="M654.441 363.367C653.698 363.383 652.979 363.635 652.39 364.088C650.643 359.473 647.937 356.508 644.897 356.508C641.857 356.508 639.151 359.473 637.404 364.088C636.815 363.635 636.096 363.383 635.353 363.367C631.899 363.367 629.1 369.202 629.1 376.4H660.694C660.694 369.202 657.895 363.367 654.441 363.367Z" fill="#B563FF"/>
<path id="Vector_8" d="M659.238 376.4H614.537V375.673C614.537 365.262 618.617 357.107 623.824 357.107C624.681 357.112 625.522 357.33 626.274 357.741C628.884 351.357 632.723 347.718 636.888 347.718C641.052 347.718 644.891 351.357 647.502 357.741C648.253 357.33 649.095 357.112 649.951 357.107C655.159 357.107 659.238 365.262 659.238 375.673V376.4ZM616.001 374.945H657.774C657.593 365.992 654.084 358.561 649.951 358.561C649.088 358.583 648.254 358.88 647.571 359.41L646.8 359.968L646.463 359.078C644.079 352.783 640.589 349.173 636.888 349.173C633.186 349.173 629.697 352.783 627.312 359.078L626.975 359.968L626.204 359.41C625.522 358.88 624.688 358.583 623.824 358.561C619.691 358.561 616.183 365.992 616.001 374.945Z" fill="#503D56"/>
</g>
<g id="plantShort3_1">
<path id="Vector_9" d="M90.1442 364.822C89.4011 364.838 88.6824 365.09 88.0935 365.543C86.3457 360.928 83.6399 357.963 80.6001 357.963C77.5604 357.963 74.8546 360.928 73.1068 365.543C72.5178 365.09 71.7991 364.838 71.056 364.822C67.6026 364.822 64.803 370.657 64.803 377.855H96.3973C96.3973 370.657 93.5977 364.822 90.1442 364.822Z" fill="#B563FF"/>
<path id="Vector_10" d="M94.941 377.855H50.2406V377.128C50.2406 366.717 54.32 358.562 59.5274 358.562C60.3839 358.567 61.2256 358.785 61.977 359.196C64.5873 352.812 68.426 349.173 72.5906 349.173C76.7553 349.173 80.5943 352.812 83.2046 359.196C83.956 358.785 84.7977 358.567 85.6542 358.562C90.8617 358.562 94.941 366.717 94.941 377.128V377.855ZM51.7043 376.4H93.4773C93.296 367.446 89.7873 360.016 85.6542 360.016C84.7906 360.038 83.9567 360.335 83.2743 360.865L82.5032 361.423L82.1665 360.533C79.7819 354.238 76.2917 350.628 72.5906 350.628C68.8896 350.628 65.3997 354.238 63.0152 360.533L62.6785 361.423L61.9073 360.865C61.225 360.335 60.391 360.038 59.5274 360.016C55.3944 360.016 51.8857 367.446 51.7043 376.4Z" fill="#503D56"/>
</g>
<g id="girl">
<g id="lowerBody">
<g id="leg2">
<path id="Vector_11" d="M423.764 330.981L424.716 345.972L439.959 343.354L439.006 328.84L423.764 330.981Z" fill="#FFB8B8"/>
<path id="Vector_12" d="M421.62 195.12L432.337 267.453C432.337 267.453 438.053 295.291 438.53 305.998C439.006 316.705 440.911 330.506 440.911 330.506L421.62 333.599L402.568 240.328L421.62 195.12Z" fill="#2F2E41"/>
<path id="Vector_13" d="M442.816 335.74L427.574 336.692C427.574 336.692 421.9 330.268 422.236 333.599C422.573 336.93 419.001 350.968 419.001 350.968L407.093 363.341C407.093 363.341 383.515 363.341 387.087 374.762C390.66 386.182 418.524 376.665 418.524 376.665L429.241 373.096V377.855C429.241 377.855 447.58 380.472 448.056 375.713C448.532 370.955 448.056 365.006 447.341 364.53C446.627 364.054 442.816 335.74 442.816 335.74Z" fill="#2F2E41"/>
</g>
<g id="leg1">
<path id="Vector_14" d="M355.889 339.323L353.031 348.84L369.94 351.933L372.322 343.13L355.889 339.323Z" fill="#FFB8B8"/>
<path id="Vector_15" d="M425.312 129.107L426.86 139.695C426.86 139.695 446.389 178.479 425.193 197.513L396.614 267.942C396.614 267.942 393.518 304.584 384.468 317.433L376.132 346.699L351.364 340.275L371.369 276.746C371.369 276.746 371.131 250.097 373.989 244.149L386.611 187.52L388.874 126.966C388.874 126.966 422.216 124.586 425.312 129.107Z" fill="#2F2E41"/>
<path id="Vector_16" d="M372.373 347.485C372.373 347.485 361.478 346.614 359.953 345.308C358.428 344.002 356.031 338.559 352.762 342.043C349.494 345.526 337.727 356.846 337.727 356.846L326.396 362.288C326.396 362.288 311.579 358.37 306.567 367.513C301.556 376.656 331.19 386.235 338.817 383.187L348.404 381.228L347.968 385.8C347.968 385.8 361.478 388.847 363.439 384.929C365.4 381.01 366.926 376.439 366.054 375.133C365.183 373.826 372.373 347.485 372.373 347.485Z" fill="#2F2E41"/>
</g>
</g>
<g id="upperBody">
<path id="Vector_17" d="M407.331 50.2315C418.116 50.2315 426.86 41.4962 426.86 30.7208C426.86 19.9453 418.116 11.2101 407.331 11.2101C396.545 11.2101 387.802 19.9453 387.802 30.7208C387.802 41.4962 396.545 50.2315 407.331 50.2315Z" fill="#FFB8B8"/>
<path id="Vector_18" d="M408.522 44.5211C408.522 44.5211 418.048 59.511 415.666 63.7938C413.285 68.0767 405.902 79.7355 405.902 79.7355C405.902 79.7355 438.768 55.4661 434.481 50.2315C434.481 50.2315 424.716 41.9038 424.24 36.6692L408.522 44.5211Z" fill="#FFB8B8"/>
<path id="Vector_19" d="M452.819 74.5009L435.948 111.793L428.622 127.982L425.907 133.985L386.611 133.509L390.66 106.146C384.944 91.3943 398.519 85.4459 398.519 85.4459L409.951 73.2755V75.2147C409.951 75.2147 421.144 61.8903 426.145 54.2764C431.147 46.6625 438.053 49.5177 438.053 49.5177C449.961 48.328 452.819 74.5009 452.819 74.5009Z" fill="#575A89"/>
<path id="Vector_20" opacity="0.2" d="M435.948 111.792L428.622 127.982C426.269 123.585 424.478 118.605 424.478 115.664C424.478 107.574 432.576 111.857 432.576 111.857C432.576 111.857 426.026 76.0475 426.026 65.3404C426.026 58.2285 431.961 89.7906 435.948 111.792Z" fill="black"/>
<path id="Vector_21" d="M429.48 114.474L393.994 113.76C393.994 113.76 368.035 115.902 371.845 126.371C375.656 136.84 396.376 126.371 396.376 126.371L437.815 132.795L429.48 114.474Z" fill="#FFB8B8"/>
<path id="Vector_22" d="M436.148 51.4213C436.148 51.4213 423.764 52.373 423.764 63.0801C423.764 73.7872 434.957 111.857 434.957 111.857C434.957 111.857 426.86 107.574 426.86 115.664C426.86 123.754 440.435 147.309 441.864 131.605C441.864 131.605 462.345 141.599 461.155 122.802C459.964 104.005 447.103 64.2698 447.103 64.2698C447.103 64.2698 445.674 50.7075 436.148 51.4213Z" fill="#575A89"/>
<path id="Vector_23" d="M407.98 28.5986C406.613 27.2764 406.638 25.0463 405.536 23.4962C403.805 21.0622 400.202 21.2253 397.243 21.6456C395.264 21.8399 393.318 22.2915 391.456 22.989C390.639 23.3248 389.911 23.8456 389.33 24.5102C388.749 25.1749 388.331 25.9653 388.108 26.8192C387.876 27.7781 387.365 25.0575 386.845 21.5338C386.312 17.9386 386.936 14.2672 388.625 11.0486C390.315 7.82997 392.984 5.2304 396.247 3.62439C396.286 3.60536 396.325 3.58658 396.363 3.56807C399.709 1.94327 403.215 0.50834 406.914 0.105118C410.613 -0.298104 414.56 0.43196 417.461 2.75975C418.787 3.82365 419.866 5.18946 421.287 6.12205C423.785 7.76059 426.948 7.83995 429.915 8.18539C433.294 8.47747 436.572 9.48223 439.534 11.1333C442.511 12.8156 444.704 15.6023 445.638 18.8892C446.577 22.7137 445.044 27.2348 441.28 28.8944C440.623 29.1707 440.04 29.598 439.579 30.1415C436.488 33.9161 441.478 35.9814 442.201 39.267C442.805 42.0085 440.166 44.4908 437.46 45.2456C434.913 45.8781 432.225 45.6058 429.857 44.4755C427.489 43.3451 425.588 41.4271 424.48 39.0502C423.552 36.8995 423.341 34.5204 423.088 32.192C422.799 29.5266 415.802 24.699 420.526 28.3304C421.442 29.0163 422.164 29.9288 422.621 30.9781C424.058 34.415 421.076 36.3658 419.476 38.8196C418.605 40.1997 418.139 41.796 418.13 43.4274C418.122 45.0588 418.571 46.66 419.427 48.0494C417.379 46.9042 415.797 45.081 414.951 42.8944C414.106 40.7079 414.051 38.2951 414.797 36.0725C415.226 34.9064 415.876 33.8283 416.266 32.6485C416.874 30.8076 416.336 27.23 413.616 27.9553C411.675 28.4729 410.016 30.567 407.98 28.5986Z" fill="#2F2E41"/>
<g id="phone">
<path id="Vector_24" d="M362.957 114.29C363.095 114.073 362.737 113.601 362.159 113.236C361.581 112.87 361.001 112.749 360.864 112.966C360.727 113.182 361.084 113.654 361.662 114.02C362.24 114.386 362.82 114.507 362.957 114.29Z" fill="#503D56"/>
<path id="Vector_25" d="M360.928 110.26C361.236 109.775 361.724 109.431 362.285 109.305C362.846 109.18 363.434 109.282 363.92 109.589L391.396 126.972C391.881 127.279 392.225 127.766 392.351 128.327C392.477 128.888 392.375 129.475 392.067 129.96L360.928 110.26Z" fill="#B563FF"/>
<path id="Vector_26" d="M358.33 111.179L359.194 109.816C359.405 109.484 359.738 109.249 360.122 109.163C360.505 109.077 360.907 109.147 361.239 109.357L392.522 129.149C392.915 129.398 393.194 129.792 393.296 130.246C393.398 130.699 393.315 131.175 393.066 131.568L392.348 132.701L358.33 111.179Z" fill="#503D56"/>
<path id="Vector_27" d="M362.988 111.929L362.656 112.451L364.75 113.776L365.081 113.253L362.988 111.929Z" fill="#D0CDE1"/>
<path id="Vector_28" d="M365.866 113.75L365.535 114.272L367.628 115.597L367.96 115.074L365.866 113.75Z" fill="#D0CDE1"/>
</g>
</g>
</g>
<g id="plantTall">
<path id="Vector_29" d="M567.382 278.901C572.208 278.901 576.12 274.992 576.12 270.171C576.12 265.35 572.208 261.442 567.382 261.442C562.556 261.442 558.645 265.35 558.645 270.171C558.645 274.992 562.556 278.901 567.382 278.901Z" fill="#D0CDE1"/>
<path id="Vector_30" d="M545.538 313.091C553.581 313.091 560.101 306.577 560.101 298.542C560.101 290.507 553.581 283.993 545.538 283.993C537.496 283.993 530.976 290.507 530.976 298.542C530.976 306.577 537.496 313.091 545.538 313.091Z" fill="#B563FF"/>
<path id="Vector_31" d="M550.199 307.271H548.743V374.923H550.199V307.271Z" fill="#503D56"/>
<path id="Vector_32" d="M549.907 308.726C546.883 308.726 543.927 307.83 541.412 306.151C538.898 304.473 536.938 302.087 535.78 299.296C534.623 296.504 534.32 293.433 534.91 290.469C535.5 287.506 536.957 284.784 539.095 282.648C541.233 280.511 543.958 279.056 546.924 278.467C549.89 277.877 552.965 278.18 555.759 279.336C558.553 280.492 560.941 282.45 562.621 284.963C564.301 287.475 565.198 290.428 565.198 293.45C565.193 297.5 563.581 301.383 560.714 304.247C557.848 307.11 553.961 308.721 549.907 308.726ZM549.907 279.628C547.171 279.628 544.496 280.439 542.221 281.958C539.946 283.476 538.173 285.635 537.126 288.16C536.079 290.686 535.805 293.465 536.339 296.146C536.872 298.827 538.19 301.29 540.125 303.223C542.06 305.156 544.525 306.472 547.208 307.005C549.892 307.539 552.673 307.265 555.201 306.219C557.729 305.173 559.89 303.401 561.41 301.128C562.93 298.855 563.741 296.183 563.741 293.45C563.737 289.785 562.278 286.272 559.685 283.681C557.091 281.09 553.575 279.632 549.907 279.628Z" fill="#503D56"/>
<path id="Vector_33" d="M562.285 282.538C560.413 282.538 558.583 281.983 557.026 280.944C555.47 279.905 554.257 278.428 553.54 276.7C552.824 274.972 552.636 273.071 553.001 271.236C553.367 269.402 554.268 267.717 555.592 266.394C556.916 265.072 558.602 264.171 560.439 263.806C562.275 263.441 564.178 263.629 565.908 264.344C567.637 265.06 569.115 266.272 570.156 267.827C571.196 269.382 571.751 271.211 571.751 273.081C571.748 275.588 570.75 277.992 568.975 279.765C567.201 281.538 564.795 282.535 562.285 282.538ZM562.285 265.079C560.701 265.079 559.153 265.549 557.835 266.428C556.518 267.307 555.492 268.557 554.886 270.019C554.279 271.481 554.121 273.09 554.43 274.642C554.739 276.194 555.502 277.62 556.622 278.739C557.742 279.858 559.169 280.621 560.723 280.929C562.276 281.238 563.887 281.08 565.35 280.474C566.814 279.868 568.065 278.843 568.945 277.527C569.825 276.211 570.295 274.664 570.295 273.081C570.292 270.96 569.448 268.926 567.946 267.426C566.444 265.926 564.409 265.082 562.285 265.079Z" fill="#503D56"/>
</g>
<g id="plantTall_2">
<path id="Vector_34" d="M139.072 278.611C143.897 278.611 147.809 274.703 147.809 269.882C147.809 265.06 143.897 261.152 139.072 261.152C134.246 261.152 130.334 265.06 130.334 269.882C130.334 274.703 134.246 278.611 139.072 278.611Z" fill="#D0CDE1"/>
<path id="Vector_35" d="M117.228 312.801C125.271 312.801 131.791 306.287 131.791 298.252C131.791 290.217 125.271 283.703 117.228 283.703C109.185 283.703 102.666 290.217 102.666 298.252C102.666 306.287 109.185 312.801 117.228 312.801Z" fill="#B563FF"/>
<path id="Vector_36" d="M121.889 306.981H120.433V374.633H121.889V306.981Z" fill="#503D56"/>
<path id="Vector_37" d="M121.597 308.436C118.573 308.436 115.616 307.54 113.102 305.862C110.587 304.183 108.627 301.797 107.47 299.006C106.313 296.214 106.01 293.143 106.6 290.18C107.19 287.216 108.646 284.494 110.785 282.358C112.923 280.221 115.648 278.767 118.614 278.177C121.58 277.588 124.654 277.89 127.448 279.046C130.242 280.203 132.63 282.161 134.311 284.673C135.991 287.185 136.888 290.139 136.888 293.16C136.883 297.21 135.27 301.093 132.404 303.957C129.537 306.821 125.651 308.432 121.597 308.436ZM121.597 279.338C118.861 279.338 116.186 280.149 113.911 281.668C111.636 283.186 109.863 285.345 108.816 287.871C107.769 290.396 107.495 293.175 108.028 295.856C108.562 298.537 109.88 301 111.815 302.933C113.749 304.866 116.214 306.182 118.898 306.716C121.582 307.249 124.363 306.975 126.891 305.929C129.419 304.883 131.58 303.112 133.1 300.839C134.62 298.566 135.431 295.894 135.431 293.16C135.427 289.495 133.968 285.982 131.375 283.391C128.781 280.8 125.265 279.343 121.597 279.338Z" fill="#503D56"/>
<path id="Vector_38" d="M133.975 282.248C132.103 282.248 130.273 281.693 128.716 280.654C127.16 279.615 125.946 278.138 125.23 276.41C124.513 274.682 124.326 272.781 124.691 270.946C125.056 269.112 125.958 267.427 127.282 266.104C128.606 264.782 130.292 263.881 132.128 263.516C133.964 263.151 135.868 263.339 137.597 264.054C139.327 264.77 140.805 265.982 141.845 267.537C142.885 269.093 143.441 270.921 143.441 272.791C143.438 275.299 142.44 277.702 140.665 279.475C138.891 281.248 136.485 282.245 133.975 282.248ZM133.975 264.79C132.391 264.79 130.842 265.259 129.525 266.138C128.208 267.017 127.182 268.267 126.575 269.729C125.969 271.191 125.81 272.8 126.12 274.352C126.429 275.905 127.191 277.33 128.312 278.45C129.432 279.569 130.859 280.331 132.412 280.639C133.966 280.948 135.577 280.79 137.04 280.184C138.504 279.578 139.754 278.553 140.635 277.237C141.515 275.921 141.984 274.374 141.984 272.791C141.982 270.67 141.137 268.636 139.636 267.136C138.134 265.636 136.098 264.792 133.975 264.79Z" fill="#503D56"/>
</g>
<g id="chatbox">
<path id="outerChatBox" d="M320.34 125.274L294.148 99.6598H175.305V26.188H331.124V99.6598H320.087L320.34 125.274ZM176.762 98.2049H294.742L318.849 121.78L318.617 98.2049H329.668V27.6429H176.762V98.2049Z" fill="#B563FF"/>
<path id="emo1" d="M211.07 80.1009L198.119 67.1625C196.377 65.4215 195.377 63.0732 195.332 60.6114C195.286 58.1496 196.198 55.766 197.875 53.9618C199.552 52.1576 201.864 51.0734 204.325 50.9372C206.786 50.801 209.203 51.6233 211.07 53.2313C212.936 51.6235 215.354 50.8013 217.815 50.9376C220.276 51.0739 222.587 52.158 224.265 53.9621C225.942 55.7662 226.853 58.1497 226.808 60.6114C226.762 63.0732 225.763 65.4214 224.021 67.1625L211.07 80.1009ZM204.852 52.3816C203.257 52.3806 201.697 52.8524 200.37 53.7374C199.044 54.6223 198.01 55.8806 197.399 57.353C196.788 58.8254 196.629 60.4457 196.94 62.0087C197.252 63.5718 198.02 65.0074 199.149 66.1338L211.07 78.0436L222.991 66.1338C224.503 64.6224 225.352 62.5732 225.351 60.4366C225.351 58.3001 224.501 56.2512 222.989 54.7405C221.477 53.2297 219.426 52.3808 217.287 52.3803C215.149 52.3799 213.098 53.2279 211.585 54.738L211.07 55.2523L210.555 54.738C209.807 53.9894 208.918 53.3958 207.939 52.9915C206.96 52.5871 205.911 52.3799 204.852 52.3816Z" fill="#B563FF"/>
<g id="emo3">
<path id="Vector_39" d="M289.621 81.4737C286.453 81.4737 283.356 80.5351 280.721 78.7766C278.087 77.0181 276.034 74.5186 274.822 71.5943C273.609 68.67 273.292 65.4522 273.91 62.3478C274.528 59.2433 276.054 56.3918 278.294 54.1536C280.534 51.9154 283.389 50.3912 286.496 49.7737C289.603 49.1562 292.824 49.4731 295.751 50.6844C298.678 51.8957 301.18 53.9469 302.94 56.5787C304.7 59.2106 305.64 62.3047 305.64 65.47C305.635 69.7129 303.946 73.7808 300.943 76.781C297.94 79.7813 293.868 81.4689 289.621 81.4737ZM289.621 50.9211C286.741 50.9211 283.925 51.7744 281.531 53.373C279.136 54.9717 277.269 57.2439 276.167 59.9023C275.065 62.5608 274.776 65.4861 275.338 68.3083C275.9 71.1305 277.287 73.7229 279.324 75.7576C281.36 77.7923 283.955 79.1779 286.78 79.7393C289.605 80.3007 292.533 80.0125 295.194 78.9114C297.855 77.8102 300.129 75.9454 301.729 73.5529C303.329 71.1603 304.184 68.3474 304.184 65.47C304.179 61.6127 302.643 57.9147 299.913 55.1872C297.183 52.4597 293.482 50.9255 289.621 50.9211Z" fill="#B563FF"/>
<path id="Vector_40" d="M296.174 64.015C298.185 64.015 299.815 62.3866 299.815 60.3778C299.815 58.369 298.185 56.7406 296.174 56.7406C294.164 56.7406 292.534 58.369 292.534 60.3778C292.534 62.3866 294.164 64.015 296.174 64.015Z" fill="#B563FF"/>
<path id="Vector_41" d="M283.796 64.015C285.807 64.015 287.437 62.3866 287.437 60.3778C287.437 58.369 285.807 56.7406 283.796 56.7406C281.785 56.7406 280.155 58.369 280.155 60.3778C280.155 62.3866 281.785 64.015 283.796 64.015Z" fill="#B563FF"/>
<path id="Vector_42" d="M285.083 68.3797C283.597 78.6473 295.386 80.73 294.206 68.3793C294.276 68.3709 285.558 68.3861 285.083 68.3797Z" fill="#B563FF"/>
</g>
<g id="emo2">
<path id="Vector_43" d="M256.214 58.9327C256.016 58.7351 255.782 58.5783 255.524 58.4713C255.265 58.3643 254.989 58.3092 254.709 58.3091C254.43 58.309 254.153 58.3639 253.894 58.4708C253.636 58.5776 253.402 58.7342 253.204 58.9317C253.006 59.1291 252.849 59.3636 252.742 59.6216C252.636 59.8797 252.581 60.1562 252.581 60.4355C252.581 60.7148 252.636 60.9913 252.743 61.2492C252.85 61.5072 253.007 61.7415 253.205 61.9388L256.214 64.9449L259.223 61.9388C259.421 61.7415 259.577 61.5072 259.685 61.2492C259.792 60.9913 259.847 60.7148 259.847 60.4355C259.847 60.1562 259.792 59.8797 259.685 59.6216C259.578 59.3636 259.421 59.1291 259.224 58.9317C259.026 58.7342 258.791 58.5776 258.533 58.4708C258.275 58.3639 257.998 58.309 257.719 58.3091C257.439 58.3092 257.162 58.3643 256.904 58.4713C256.646 58.5783 256.411 58.7351 256.214 58.9327Z" fill="#B563FF"/>
<path id="Vector_44" d="M243.836 58.9327C243.638 58.7351 243.404 58.5783 243.145 58.4713C242.887 58.3643 242.61 58.3092 242.331 58.3091C242.051 58.309 241.775 58.3639 241.516 58.4708C241.258 58.5776 241.023 58.7342 240.826 58.9317C240.628 59.1291 240.471 59.3636 240.364 59.6216C240.257 59.8797 240.202 60.1562 240.203 60.4355C240.203 60.7148 240.258 60.9913 240.365 61.2492C240.472 61.5072 240.629 61.7415 240.827 61.9388L243.836 64.9449L246.845 61.9388C247.042 61.7415 247.199 61.5072 247.306 61.2492C247.414 60.9913 247.469 60.7148 247.469 60.4355C247.469 60.1562 247.414 59.8797 247.307 59.6216C247.2 59.3636 247.043 59.1291 246.846 58.9317C246.648 58.7342 246.413 58.5776 246.155 58.4708C245.897 58.3639 245.62 58.309 245.34 58.3091C245.061 58.3092 244.784 58.3643 244.526 58.4713C244.268 58.5783 244.033 58.7351 243.836 58.9327Z" fill="#B563FF"/>
<path id="Vector_45" d="M250.302 81.4737C247.134 81.4737 244.037 80.5351 241.403 78.7766C238.768 77.0181 236.715 74.5186 235.503 71.5943C234.29 68.67 233.973 65.4522 234.591 62.3478C235.209 59.2433 236.735 56.3918 238.975 54.1536C241.216 51.9154 244.07 50.3912 247.177 49.7737C250.284 49.1562 253.505 49.4731 256.432 50.6844C259.359 51.8957 261.861 53.9469 263.621 56.5787C265.382 59.2106 266.321 62.3047 266.321 65.47C266.316 69.7129 264.627 73.7808 261.624 76.781C258.621 79.7813 254.549 81.4689 250.302 81.4737ZM250.302 50.9211C247.422 50.9211 244.607 51.7744 242.212 53.373C239.817 54.9717 237.95 57.2439 236.848 59.9023C235.746 62.5608 235.458 65.4861 236.02 68.3083C236.581 71.1305 237.968 73.7229 240.005 75.7576C242.042 77.7923 244.636 79.1779 247.461 79.7393C250.286 80.3007 253.214 80.0125 255.875 78.9114C258.536 77.8102 260.81 75.9454 262.411 73.5529C264.011 71.1603 264.865 68.3474 264.865 65.47C264.86 61.6127 263.325 57.9147 260.595 55.1872C257.865 52.4597 254.163 50.9255 250.302 50.9211Z" fill="#B563FF"/>
<path id="Vector_46" d="M244.692 70.5107C248.022 74.9826 253.778 75.3842 256.855 70.5107H244.692Z" fill="#B563FF"/>
</g>
<path id="chatUnderLine" d="M356.053 124.581H278.144V126.036H356.053V124.581Z" fill="#503D56"/>
</g>
</g>
</svg>
